<svg width="318" height="47" viewBox="0 0 318 47" fill="none" xmlns="http://www.w3.org/2000/svg">
<rect width="318" height="47" rx="5" fill="#353535"/>
<path d="M119.529 29.0488L123.174 18.0088H125.199L128.844 29.0488H126.999L125.229 23.0638C124.854 21.8638 124.524 20.6188 124.179 19.3888H124.119C123.789 20.6338 123.459 21.8638 123.084 23.0638L121.299 29.0488H119.529ZM121.584 25.9138V24.5488H126.744V25.9138H121.584ZM130.15 32.3938V20.7988H131.56L131.71 21.7138H131.755C132.475 21.0988 133.36 20.5888 134.29 20.5888C136.375 20.5888 137.56 22.2538 137.56 24.8038C137.56 27.6238 135.865 29.2588 134.005 29.2588C133.27 29.2588 132.52 28.9288 131.83 28.3288L131.89 29.7238V32.3938H130.15ZM133.675 27.8188C134.86 27.8188 135.775 26.7538 135.775 24.8188C135.775 23.0938 135.205 22.0288 133.825 22.0288C133.195 22.0288 132.58 22.3738 131.89 23.0338V27.0688C132.535 27.6238 133.165 27.8188 133.675 27.8188ZM139.599 32.3938V20.7988H141.009L141.159 21.7138H141.204C141.924 21.0988 142.809 20.5888 143.739 20.5888C145.824 20.5888 147.009 22.2538 147.009 24.8038C147.009 27.6238 145.314 29.2588 143.454 29.2588C142.719 29.2588 141.969 28.9288 141.279 28.3288L141.339 29.7238V32.3938H139.599ZM143.124 27.8188C144.309 27.8188 145.224 26.7538 145.224 24.8188C145.224 23.0938 144.654 22.0288 143.274 22.0288C142.644 22.0288 142.029 22.3738 141.339 23.0338V27.0688C141.984 27.6238 142.614 27.8188 143.124 27.8188ZM150.772 29.2588C149.512 29.2588 149.047 28.4488 149.047 27.1138V17.1088H150.787V27.2038C150.787 27.6688 150.982 27.8338 151.192 27.8338C151.267 27.8338 151.327 27.8338 151.477 27.8038L151.702 29.1088C151.477 29.1838 151.207 29.2588 150.772 29.2588ZM156.965 29.2588C154.715 29.2588 152.945 27.6538 152.945 24.9388C152.945 22.2538 154.79 20.5888 156.71 20.5888C158.885 20.5888 160.07 22.1638 160.07 24.5038C160.07 24.8488 160.04 25.1788 159.995 25.3888H154.64C154.775 26.9638 155.765 27.8938 157.19 27.8938C157.925 27.8938 158.54 27.6688 159.155 27.2788L159.755 28.3888C158.99 28.8988 158.045 29.2588 156.965 29.2588ZM154.61 24.1888H158.57C158.57 22.7638 157.94 21.9538 156.74 21.9538C155.705 21.9538 154.79 22.7488 154.61 24.1888ZM161.411 27.3988H173.831V28.6888H161.411V27.3988ZM166.811 24.6088H168.371V27.9238H166.811V24.6088ZM162.866 17.5438H172.346V21.8788H164.456V24.4288H162.896V20.6338H170.786V18.8038H162.866V17.5438ZM162.896 23.7838H172.661V25.0588H162.896V23.7838ZM178.579 27.3988H190.999V28.6888H178.579V27.3988ZM183.979 24.6088H185.539V27.9238H183.979V24.6088ZM180.034 17.5438H189.514V21.8788H181.624V24.4288H180.064V20.6338H187.954V18.8038H180.034V17.5438ZM180.064 23.7838H189.829V25.0588H180.064V23.7838ZM193.682 17.9488H202.442V19.2088H193.682V17.9488ZM192.377 27.0988H204.767V28.3888H192.377V27.0988ZM201.602 17.9488H203.162V19.4338C203.162 21.2638 203.162 23.1838 202.652 26.0788L201.077 25.9288C201.602 23.2138 201.602 21.2038 201.602 19.4338V17.9488ZM215.896 16.5988H217.471V26.5288H215.896V16.5988ZM208.516 28.7488H217.861V30.0238H208.516V28.7488ZM208.516 25.5238H210.091V29.2288H208.516V25.5238ZM210.076 17.5138C212.146 17.5138 213.706 18.9238 213.706 20.9338C213.706 22.9138 212.146 24.3538 210.076 24.3538C208.006 24.3538 206.431 22.9138 206.431 20.9338C206.431 18.9238 208.006 17.5138 210.076 17.5138ZM210.076 18.8638C208.876 18.8638 207.961 19.6738 207.961 20.9338C207.961 22.1638 208.876 22.9738 210.076 22.9738C211.276 22.9738 212.176 22.1638 212.176 20.9338C212.176 19.6738 211.276 18.8638 210.076 18.8638Z" fill="white"/>
<path fill-rule="evenodd" clip-rule="evenodd" d="M32.9354 20.2973C31.8434 19.286 30.892 18.3083 28.8837 18.2066C27.2628 18.1393 26.5232 19.0834 25.0077 19.117C23.5986 19.1506 23.704 18.0721 20.7794 18.3756C18.2422 18.6445 16.0222 21.0723 16.1988 24.4778C16.3755 28.1531 19.0531 33.244 21.5542 33.244C23.3156 33.2104 23.7391 32.4008 25.1833 32.4008C26.9799 32.4008 27.4034 33.4121 28.8125 33.2095C31.2433 32.8724 33.5336 29.197 33.5336 28.0177C32.1947 27.3435 30.8559 26.1968 30.6792 24.2751C30.5387 22.3534 31.7712 21.1395 32.9344 20.2963L32.9354 20.2973Z" fill="white"/>
<path fill-rule="evenodd" clip-rule="evenodd" d="M24.5148 18.4761C24.3382 17.1277 25.2896 14.1938 28.6377 13.7559C29.0251 16.0147 27.0871 18.6105 24.5148 18.4761Z" fill="white"/>
</svg>
