<svg width="36" height="36" viewBox="0 0 36 36" fill="none" xmlns="http://www.w3.org/2000/svg">
<path d="M6.86243 6.86287C7.28437 6.44106 7.85656 6.2041 8.45318 6.2041C9.0498 6.2041 9.62199 6.44106 10.0439 6.86287L17.9999 14.8189L25.9559 6.86287C26.3803 6.45302 26.9486 6.22623 27.5386 6.23135C28.1285 6.23648 28.6929 6.47311 29.11 6.89028C29.5272 7.30745 29.7638 7.87178 29.7689 8.46172C29.7741 9.05166 29.5473 9.62002 29.1374 10.0444L21.1814 18.0004L29.1374 25.9564C29.5473 26.3807 29.7741 26.9491 29.7689 27.539C29.7638 28.129 29.5272 28.6933 29.11 29.1105C28.6929 29.5276 28.1285 29.7643 27.5386 29.7694C26.9486 29.7745 26.3803 29.5477 25.9559 29.1379L17.9999 21.1819L10.0439 29.1379C9.61957 29.5477 9.05122 29.7745 8.46128 29.7694C7.87133 29.7643 7.30701 29.5276 6.88984 29.1105C6.47267 28.6933 6.23604 28.129 6.23091 27.539C6.22579 26.9491 6.45257 26.3807 6.86243 25.9564L14.8184 18.0004L6.86243 10.0444C6.44062 9.62243 6.20366 9.05024 6.20366 8.45362C6.20366 7.857 6.44062 7.28481 6.86243 6.86287Z" fill="white"/>
</svg>
