<svg width="79" height="111" viewBox="0 0 79 111" fill="none" xmlns="http://www.w3.org/2000/svg">
<g clip-path="url(#clip0_1540_5563)">
<path d="M27.7445 94.7785C25.8142 96.6625 22.5184 96.588 20.232 95.1328C17.9455 93.6776 16.5389 91.167 15.7019 88.6011C15.6628 89.6284 14.8166 90.5099 13.8352 90.8138C12.8538 91.1177 11.7612 90.927 10.8379 90.4955C9.03589 89.6693 7.66377 87.9356 7.28092 85.9795C6.89807 84.0233 7.49805 81.9085 8.86961 80.4515C6.19617 80.1175 4.32874 77.3832 4.18101 74.6934C4.03327 72.0036 5.27653 69.4219 6.8194 67.2248C7.23467 66.6221 7.76482 65.9988 8.48599 65.8782C6.64685 63.6624 6.13262 60.4522 7.16061 57.7682C8.20455 55.0858 10.7619 53.0555 13.605 52.6654C12.4403 49.0351 14.1491 44.8728 17.1167 42.4488C21.9457 38.5044 27.2686 37.3331 30.2914 39.636L34.0339 39.7555C35.162 37.5167 38.0755 36.9081 40.5768 37.0314C44.6335 37.231 48.6077 38.7274 51.7851 41.2554C52.8739 42.1226 53.945 43.3263 53.7269 44.6901C58.3 43.4431 63.4487 44.6391 67.0196 47.7385C68.5165 49.0335 69.7658 50.7064 70.1662 52.6482C70.5507 54.5884 69.941 56.799 68.3256 57.9574L68.5123 59.9421C71.0576 60.9078 72.9715 63.3406 73.3123 66.0337C73.653 68.7269 72.4 71.5655 70.1796 73.1302C71.163 76.1621 70.8651 79.5965 69.3727 82.411C67.8804 85.2254 63.8888 87.4173 61.1073 86.5567L61.7134 86.6178L59.5527 87.4312C59.5513 89.2036 59.1 90.9628 58.2659 92.5224C57.809 93.3786 57.2133 94.1726 56.4454 94.7559C55.4334 95.524 54.1553 95.8946 52.8948 96.0898C50.4888 96.4595 47.9206 96.2006 45.8398 94.9433C45.8484 96.1366 44.774 97.0435 43.7334 97.6153C41.7335 98.7511 39.4262 99.4208 37.1435 99.2068C34.8608 98.9927 32.6124 97.7992 31.424 95.8424C31.3411 95.7051 31.4961 95.4468 31.5454 95.5968L27.7445 94.7785Z" fill="#B8A7FF"/>
<path d="M48.8954 36.3554C49.2408 33.4092 50.2082 30.6868 50.8535 27.8031C51.0024 27.1252 51.0564 25.4709 51.9722 25.3377C52.7572 25.2235 53.7317 25.4667 54.475 25.6062C55.1704 25.7407 55.8834 25.861 56.5549 26.0737C57.2423 26.288 58.7112 26.7423 58.9689 27.5418C59.3365 28.6907 57.5918 30.0133 56.9562 30.7227C56.0509 31.711 55.2635 32.808 54.4171 33.8506C53.847 34.5504 53.3358 35.4657 52.7211 36.1289C52.2692 36.6151 51.6882 36.9432 51.0723 37.1389C50.8393 37.2121 50.6366 37.3045 50.3846 37.2468C50.0385 37.1636 49.7661 36.6688 49.399 36.9541" fill="#A8D5CA"/>
<path d="M11.9049 52.2684C8.86402 46.7893 4.51658 43.2409 0.9245 40.6711" stroke="black" stroke-width="1.58" stroke-miterlimit="10" stroke-linecap="round" stroke-linejoin="round"/>
<path d="M25.5276 96.1501C22.5779 99.9939 20.0616 104.494 20.1709 109.323C20.3178 109.144 20.4647 108.966 20.6116 108.787" stroke="black" stroke-width="1.58" stroke-miterlimit="10" stroke-linecap="round" stroke-linejoin="round"/>
<path d="M56.0499 94.845C59.3712 98.8216 61.3213 103.933 61.4925 109.107" stroke="black" stroke-width="1.58" stroke-miterlimit="10" stroke-linecap="round" stroke-linejoin="round"/>
<path d="M68.5124 59.9421C71.0577 60.9078 72.9716 63.3406 73.3124 66.0337C73.6531 68.7268 72.4001 71.5654 70.1797 73.1302C71.1631 76.162 70.8652 79.5965 69.3729 82.4109C67.8805 85.2254 63.8889 87.4172 61.1074 86.5567" stroke="black" stroke-width="1.58" stroke-miterlimit="10" stroke-linecap="round" stroke-linejoin="round"/>
<path d="M59.5544 87.4153C59.5529 89.1877 59.1016 90.9469 58.2676 92.5064C57.8106 93.3627 57.2149 94.1567 56.4471 94.7399C55.435 95.508 54.1569 95.8787 52.8964 96.0739C50.4904 96.4436 47.9222 96.1846 45.8414 94.9274C45.85 96.1207 44.7756 97.0275 43.735 97.5994C41.7352 98.7352 39.4278 99.4049 37.1451 99.1908C34.8624 98.9768 32.614 97.7832 31.4256 95.8264C31.3427 95.6892 31.4977 95.4308 31.547 95.5808" stroke="black" stroke-width="1.58" stroke-miterlimit="10" stroke-linecap="round" stroke-linejoin="round"/>
<path d="M68.5387 47.3761C71.1481 44.0297 74.3236 41.1433 77.9037 38.8777C77.9899 38.8219 78.108 38.7694 78.1797 38.8572C78.253 38.929 78.036 39.0038 78.0775 38.9113" stroke="black" stroke-width="1.58" stroke-miterlimit="10" stroke-linecap="round" stroke-linejoin="round"/>
<path d="M68.3256 57.9574C69.9394 56.8149 70.5666 54.59 70.1662 52.6482C69.7817 50.708 68.5165 49.0335 67.0195 47.7385C63.4486 44.639 58.3 43.4431 53.7269 44.6901C53.945 43.3263 52.8755 42.1066 51.785 41.2554C48.6077 38.7274 44.6335 37.2309 40.5768 37.0314C38.0755 36.9081 35.1604 37.5326 34.0338 39.7555" stroke="black" stroke-width="1.58" stroke-miterlimit="10" stroke-linecap="round" stroke-linejoin="round"/>
<path d="M30.3089 39.6216C27.2862 37.3187 21.9633 38.4901 17.1343 42.4344C14.1842 44.8441 12.4594 49.0048 13.6226 52.651C10.7778 53.057 8.2205 55.0873 7.17817 57.7538C6.13423 60.4362 6.66441 63.648 8.50355 65.8638C7.78238 65.9844 7.25223 66.6077 6.83696 67.2104C5.29249 69.4234 4.05082 71.9892 4.19855 74.679C4.34629 77.3688 6.19778 80.1015 8.88717 80.4371C7.53156 81.8957 6.91563 84.0089 7.29848 85.9651C7.68134 87.9212 9.0375 89.6532 10.8555 90.4811C11.7947 90.9142 12.8714 91.1033 13.8527 90.7995C14.8341 90.4956 15.6644 89.6124 15.7195 88.5867C16.5565 91.1526 17.979 93.6648 20.2495 95.1184C22.536 96.5736 25.8318 96.6481 27.762 94.7641" stroke="black" stroke-width="1.58" stroke-miterlimit="10" stroke-linecap="round" stroke-linejoin="round"/>
<path d="M27.316 51.4053C27.7259 51.4949 28.1935 51.3326 28.4219 50.985C28.6679 50.6231 28.6299 50.2003 28.4596 49.8125C28.345 49.5109 28.1282 49.2634 27.8747 49.0606C27.7551 48.968 27.618 48.8897 27.4793 48.8274C27.2624 48.7411 27.0056 48.7313 26.8013 48.8396C26.6481 48.9208 26.5411 49.0228 26.4309 49.1568C26.268 49.3337 26.1641 49.5649 26.0778 49.7818C25.9707 50.045 25.9099 50.3289 25.8666 50.5984C25.78 51.1376 25.8544 51.838 26.264 52.2499C26.5286 52.5022 26.881 52.6827 27.2495 52.7038C27.5877 52.7056 27.9356 52.6118 28.1847 52.3791C28.6317 51.9408 28.7247 51.3378 28.6566 50.7347C28.5948 50.229 28.3273 49.6864 27.8537 49.4291C27.5172 49.2502 27.1743 49.135 26.7913 49.2576C26.4578 49.369 26.2231 49.6192 26.0936 49.9446C26.0105 50.1295 25.988 50.3529 25.9831 50.5618C25.9908 50.8043 26.0002 51.0309 26.075 51.2479C26.1593 51.5303 26.2628 51.7825 26.4493 52.0108C26.6644 52.2742 26.9403 52.4148 27.2721 52.4805C27.9053 52.5926 28.531 52.1401 28.6735 51.526C28.808 50.9917 28.7542 50.4062 28.4818 49.9114C28.3464 49.6561 28.1616 49.4118 27.9033 49.2569C27.6912 49.1227 27.4743 49.0364 27.2318 49.0442C26.892 49.0582 26.6765 49.2782 26.4593 49.5141C26.2948 49.707 26.1558 49.9669 26.0822 50.2173C25.9847 50.5459 25.9525 50.8649 25.9825 51.2063C26.0697 51.9403 26.6914 52.4864 27.4332 52.4806C27.8033 52.4857 28.199 52.3967 28.4688 52.1177C28.7546 51.8404 28.8841 51.515 28.953 51.1514C29.0122 50.8834 28.9917 50.6074 28.9537 50.3457C28.9172 50.0681 28.8329 49.7857 28.7134 49.5319C28.5319 49.0947 28.1861 48.6892 27.6916 48.6393C27.2131 48.5911 26.7948 48.9034 26.5775 49.3005C26.4385 49.5604 26.3155 49.8219 26.2403 50.0883C26.1667 50.3387 26.1074 50.6066 26.1136 50.8651C26.115 51.1714 26.1482 51.4809 26.2979 51.7538C26.4764 52.0618 26.7553 52.3317 27.1158 52.4325C27.288 52.4821 27.4619 52.5157 27.639 52.5174C27.8974 52.5113 28.1239 52.5019 28.3347 52.3298C28.4927 52.2007 28.5615 51.9981 28.6605 51.8148C28.742 51.6457 28.7072 51.3522 28.6259 51.199C28.5463 51.0298 28.371 50.851 28.1828 50.7998C27.9802 50.731 27.7553 50.7244 27.567 50.8344C27.5143 50.8774 27.4473 50.9029 27.3946 50.9459C27.2892 51.0319 27.2125 51.1531 27.1678 51.2775C27.1294 51.3381 27.1071 51.4003 27.0687 51.4609C27.2635 51.2872 27.4742 51.115 27.669 50.9413C27.653 50.9397 27.6211 50.9365 27.6036 50.9508C27.669 50.9413 27.7487 50.9494 27.8141 50.9398C27.7009 50.9445 27.6052 50.9349 27.4935 50.9236C27.5557 50.946 27.6354 50.9541 27.6976 50.9764C27.6354 50.9541 27.5717 50.9476 27.5111 50.9093C27.5717 50.9476 27.6338 50.97 27.6944 51.0083C27.6482 50.9876 27.6179 50.9684 27.5892 50.9333C27.6322 50.986 27.6928 51.0243 27.7359 51.077C27.7072 51.0419 27.6625 51.0051 27.6339 50.97C27.6769 51.0227 27.7023 51.0897 27.7454 51.1424C27.7183 51.0913 27.6912 51.0403 27.6801 50.9908C27.7056 51.0578 27.7151 51.1232 27.7405 51.1902C27.7167 51.1073 27.6944 51.0083 27.6881 50.911C27.6977 50.9764 27.6896 51.0562 27.6991 51.1216C27.6993 50.9605 27.717 50.785 27.749 50.6271C27.7266 50.6893 27.7186 50.7691 27.6962 50.8313C27.7538 50.5793 27.8434 50.3305 27.9632 50.1008C27.9249 50.1614 27.9025 50.2236 27.8641 50.2842C27.9041 50.2077 27.96 50.1327 28.0159 50.0578C27.9632 50.1008 27.9249 50.1614 27.8722 50.2045C27.8913 50.1742 27.9265 50.1455 27.96 50.1327C27.9073 50.1758 27.8403 50.2012 27.7876 50.2443C27.8052 50.2299 27.8387 50.2172 27.8546 50.2188C27.7876 50.2443 27.7222 50.2538 27.6551 50.2793C27.6711 50.2809 27.6887 50.2665 27.7046 50.2681C27.6392 50.2777 27.5594 50.2696 27.494 50.2791C27.51 50.2807 27.5259 50.2824 27.5419 50.284C27.4797 50.2616 27.3999 50.2535 27.3377 50.2311C27.3537 50.2327 27.384 50.2519 27.3999 50.2535C27.3393 50.2152 27.2771 50.1928 27.2165 50.1545C27.2468 50.1736 27.2612 50.1912 27.2755 50.2088C27.2325 50.1561 27.1719 50.1177 27.1289 50.0651C27.1735 50.1018 27.2006 50.1529 27.2436 50.2055C27.2006 50.1529 27.1751 50.0858 27.1321 50.0332C27.2149 50.1704 27.2802 50.322 27.3296 50.472C27.3041 50.405 27.2946 50.3396 27.2691 50.2726C27.3312 50.4561 27.3597 50.6523 27.3723 50.8469C27.3628 50.7815 27.3708 50.7018 27.3613 50.6364C27.3628 50.7815 27.3627 50.9427 27.3322 51.0846C27.3546 51.0224 27.3627 50.9427 27.3851 50.8805C27.3595 50.9746 27.3355 51.0527 27.2955 51.1293C27.3338 51.0687 27.3562 51.0065 27.3946 50.9459C27.3738 50.9921 27.3355 51.0527 27.3003 51.0814C27.353 51.0384 27.3914 50.9778 27.444 50.9348C27.4089 50.9634 27.3738 50.9921 27.3387 51.0208C27.3914 50.9778 27.4584 50.9523 27.5111 50.9093C27.46 50.9364 27.4249 50.965 27.3594 50.9746C27.4265 50.9491 27.4919 50.9396 27.5589 50.9141C27.5095 50.9252 27.444 50.9348 27.3786 50.9443C27.444 50.9348 27.5238 50.9428 27.5892 50.9333C27.4919 50.9396 27.3962 50.9299 27.3021 50.9043C27.3643 50.9267 27.444 50.9348 27.5062 50.9571C27.4584 50.9523 27.4121 50.9315 27.3659 50.9108C27.4265 50.9491 27.4887 50.9715 27.5493 51.0098C27.503 50.989 27.4584 50.9523 27.4137 50.9156C27.4568 50.9683 27.5174 51.0066 27.5604 51.0593C27.5317 51.0242 27.503 50.989 27.4743 50.9539C27.5174 51.0066 27.5428 51.0736 27.5859 51.1263C27.5588 51.0752 27.5317 51.0242 27.5062 50.9571C27.5317 51.0242 27.5412 51.0896 27.5667 51.1566C27.5428 51.0736 27.5349 50.9923 27.527 50.9109C27.5365 50.9763 27.5285 51.0561 27.538 51.1215C27.5349 50.9923 27.5462 50.8806 27.575 50.7546C27.5526 50.8168 27.5446 50.8966 27.5222 50.9588C27.5526 50.8168 27.5974 50.6924 27.6581 50.5696C27.6198 50.6302 27.5974 50.6924 27.559 50.753C27.6006 50.6605 27.6581 50.5696 27.73 50.4963C27.6773 50.5393 27.6389 50.5999 27.5863 50.6429C27.6389 50.5999 27.6757 50.5553 27.7443 50.5138C27.481 50.5679 27.2194 50.6059 26.9561 50.66C27.004 50.6648 27.0502 50.6856 27.0805 50.7047C27.0199 50.6664 26.9577 50.644 26.8971 50.6057C26.9434 50.6265 27.004 50.6648 27.0486 50.7015C27.0056 50.6488 26.945 50.6105 26.9019 50.5578C26.9609 50.6121 27.0183 50.6824 27.0597 50.751C27.0167 50.6983 26.9912 50.6313 26.9482 50.5786C27.0183 50.6823 27.0708 50.8004 27.1074 50.9169C27.082 50.8499 27.0725 50.7845 27.047 50.7175C27.0979 50.8515 27.1154 50.9983 27.1328 51.1451C27.1632 51.0031 27.1537 50.9377 27.1601 50.8739C27.1648 50.9872 27.1536 51.0988 27.128 51.1929C27.1503 51.1307 27.1584 51.051 27.1808 50.9888C27.1584 51.051 27.136 51.1132 27.1136 51.1754C27.1519 51.1148 27.1743 51.0526 27.2127 50.992C27.1935 51.0223 27.1727 51.0685 27.1376 51.0972C27.1903 51.0542 27.2286 50.9936 27.2813 50.9506C27.2621 50.9809 27.2286 50.9936 27.1935 51.0223C27.2462 50.9793 27.3132 50.9538 27.3659 50.9108C27.3324 50.9235 27.2973 50.9522 27.2637 50.9649C27.3308 50.9394 27.3962 50.9299 27.4632 50.9045C27.4297 50.9172 27.3802 50.9283 27.3483 50.9251C27.4137 50.9156 27.4935 50.9236 27.5589 50.9141C27.4935 50.9236 27.4456 50.9188 27.3834 50.8964C27.4456 50.9188 27.5254 50.9268 27.5876 50.9492C27.5557 50.946 27.5254 50.9268 27.5095 50.9252C27.57 50.9636 27.6322 50.986 27.6928 51.0243C27.6625 51.0051 27.6163 50.9843 27.5876 50.9492C27.6306 51.0019 27.6912 51.0402 27.7343 51.0929C27.6896 51.0562 27.6466 51.0035 27.6195 50.9524C27.6625 51.0051 27.688 51.0721 27.731 51.1248C27.6609 51.0211 27.6227 50.9205 27.5861 50.8041C27.6116 50.8711 27.6211 50.9365 27.6466 51.0035C27.5972 50.8535 27.5639 50.7051 27.564 50.544C27.5735 50.6094 27.5655 50.6892 27.575 50.7546C27.5703 50.6413 27.58 50.5456 27.5912 50.434C27.5688 50.4961 27.5608 50.5759 27.5384 50.6381C27.5448 50.5743 27.5656 50.5281 27.6023 50.4834C27.564 50.544 27.5416 50.6062 27.5033 50.6668C27.5224 50.6365 27.5416 50.6062 27.5608 50.5759C27.5081 50.6189 27.4698 50.6795 27.4171 50.7226C27.4347 50.7082 27.4522 50.6939 27.4698 50.6795C27.4171 50.7226 27.3501 50.748 27.2974 50.7911C27.315 50.7767 27.3325 50.7624 27.3644 50.7656C27.2974 50.7911 27.232 50.8006 27.1649 50.826C27.1825 50.8117 27.2144 50.8149 27.2463 50.8181C27.1809 50.8277 27.1011 50.8196 27.0357 50.8291C27.0676 50.8323 27.0995 50.8356 27.1314 50.8388C27.0692 50.8164 26.9895 50.8084 26.9273 50.786C26.9911 50.7924 27.0357 50.8291 27.0979 50.8515C27.0373 50.8132 26.9751 50.7908 26.9145 50.7524C26.9751 50.7908 27.0357 50.8291 27.0804 50.8659C27.0373 50.8132 26.9767 50.7748 26.9337 50.7222C26.9784 50.7589 27.0214 50.8116 27.0485 50.8626C27.0054 50.81 26.98 50.7429 26.9369 50.6902C26.9927 50.7764 27.0325 50.861 27.0564 50.944C27.0309 50.877 27.0214 50.8116 26.9959 50.7445C27.0469 50.8786 27.0643 51.0254 27.0674 51.1546C27.0578 51.0892 27.0659 51.0094 27.0564 50.944C27.0595 51.0732 27.0482 51.1849 27.0353 51.3125C27.0577 51.2503 27.0658 51.1705 27.0881 51.1083C27.0642 51.1865 27.0402 51.2646 27.0002 51.3412C27.0385 51.2806 27.0609 51.2184 27.0993 51.1578C27.0785 51.2041 27.0418 51.2487 27.005 51.2933C27.0577 51.2503 27.0961 51.1897 27.1487 51.1467C27.1136 51.1754 27.0944 51.2057 27.0593 51.2343C27.112 51.1913 27.179 51.1658 27.2317 51.1228C27.1982 51.1356 27.1631 51.1642 27.1296 51.177C27.1966 51.1515 27.262 51.142 27.329 51.1165C27.2955 51.1293 27.2461 51.1404 27.2142 51.1372C27.2796 51.1276 27.3593 51.1357 27.4247 51.1262C27.3593 51.1357 27.3115 51.1309 27.2493 51.1085C27.3115 51.1309 27.3912 51.1389 27.4534 51.1613C27.3753 51.1373 27.3131 51.1149 27.2509 51.0925C27.3115 51.1309 27.3737 51.1533 27.4343 51.1916C27.388 51.1708 27.3577 51.1516 27.329 51.1165C27.3721 51.1692 27.4326 51.2075 27.4757 51.2602C27.447 51.2251 27.4024 51.1884 27.3737 51.1532C27.4167 51.2059 27.4422 51.273 27.4852 51.3256C27.4422 51.273 27.4167 51.2059 27.4056 51.1565C27.431 51.2235 27.4406 51.2889 27.466 51.3559C27.4294 51.2394 27.4088 51.1246 27.4041 51.0113C27.4136 51.0767 27.4056 51.1565 27.4151 51.2219C27.4041 51.0113 27.425 50.8039 27.4794 50.5838C27.457 50.646 27.449 50.7258 27.4266 50.788C27.481 50.5679 27.5498 50.3653 27.6505 50.166C27.6121 50.2266 27.5897 50.2888 27.5514 50.3494C27.593 50.2569 27.6489 50.1819 27.7207 50.1086C27.668 50.1516 27.6297 50.2122 27.577 50.2553C27.5946 50.2409 27.6121 50.2266 27.6313 50.1963C27.368 50.2503 27.1064 50.2884 26.8431 50.3424C26.8909 50.3472 26.9212 50.3664 26.9675 50.3872C26.9069 50.3488 26.8447 50.3265 26.7841 50.2881C26.8447 50.3265 26.9053 50.3648 26.9499 50.4015C26.9069 50.3488 26.8463 50.3105 26.8033 50.2578C26.8766 50.3297 26.9499 50.4015 27.0057 50.4877C26.9627 50.435 26.9372 50.368 26.8942 50.3153C26.9515 50.3856 26.9914 50.4701 27.0152 50.5531C26.9897 50.4861 26.9802 50.4207 26.9548 50.3537C26.9659 50.4031 26.977 50.4526 26.9865 50.518C26.977 50.4526 26.9851 50.3728 26.9755 50.3074C26.9723 50.3393 26.9691 50.3712 26.9659 50.4031C26.9883 50.3409 26.9963 50.2612 27.0187 50.199C27.0171 50.2149 27.0155 50.2309 26.9979 50.2452C27.0363 50.1846 27.0586 50.1224 27.097 50.0618C27.0954 50.0778 27.0778 50.0921 27.0603 50.1065C27.1129 50.0635 27.1513 50.0029 27.204 49.9598C27.1864 49.9742 27.1864 49.9742 27.1688 49.9885C27.2215 49.9455 27.2885 49.92 27.3412 49.877C27.3237 49.8913 27.3077 49.8897 27.2901 49.9041C27.3572 49.8786 27.4226 49.8691 27.4896 49.8436C27.4561 49.8563 27.4401 49.8547 27.4066 49.8675C27.472 49.858 27.5518 49.866 27.6172 49.8565C27.5518 49.866 27.4896 49.8436 27.4258 49.8372C27.236 49.8019 26.9838 49.9054 26.8434 50.0202C26.6853 50.1492 26.5671 50.3629 26.5621 50.5719C26.5572 50.7809 26.6001 50.9947 26.7451 51.1543C26.7881 51.207 26.8487 51.2453 26.8918 51.298C27.0481 51.346 27.1725 51.3908 27.316 51.4053Z" fill="black"/>
<path d="M40.2075 49.8047C40.2472 50.0504 40.3507 50.3026 40.5085 50.4957C40.7109 50.7256 40.9884 50.8503 41.2739 50.8952C41.4015 50.908 41.5307 50.905 41.6456 50.8843C41.9073 50.8462 42.0877 50.655 42.2346 50.4764C42.3448 50.3425 42.4279 50.1575 42.4918 50.0028C42.6166 49.5642 42.6106 49.1446 42.4594 48.7266C42.3066 48.3244 41.983 48.0178 41.613 47.8516C41.2127 47.6662 40.7548 47.7329 40.3941 47.9543C40.0829 48.1646 39.8752 48.466 39.7282 48.8057C39.4948 49.3622 39.5086 50.0243 39.7762 50.5669C39.8829 50.7871 40.039 50.9962 40.2511 51.1304C40.5094 51.2854 40.8077 51.3638 41.1061 51.2811C41.5369 51.1634 41.8721 50.8749 42.1038 50.4954C42.3162 50.1462 42.4857 49.7444 42.494 49.3424C42.5119 48.8446 42.3401 48.3117 41.8824 48.056C41.6385 47.9186 41.3737 47.8275 41.0834 47.8305C40.8568 47.8398 40.6446 47.8668 40.4404 47.9751C40.2185 48.0977 40.0924 48.2301 39.9295 48.407C39.7475 48.6142 39.5909 48.8885 39.5157 49.1548C39.399 49.5137 39.362 49.8806 39.4877 50.2316C39.7344 50.9816 40.6944 51.3685 41.4268 51.1362C41.8098 51.0137 42.1849 50.8098 42.383 50.443C42.5987 50.0619 42.674 49.6345 42.5404 49.202C42.4433 48.8861 42.3303 48.5685 42.1135 48.3211C41.8968 48.0736 41.6082 47.8995 41.2716 47.8817C40.7292 47.827 40.2456 48.1488 39.9453 48.5697C39.6642 48.9603 39.5154 49.4771 39.6124 49.9542C39.6902 50.3004 39.8575 50.559 40.1254 50.7794C40.229 50.8704 40.3677 50.9327 40.5065 50.995C40.7696 51.1021 41.0583 51.1151 41.328 50.9973C41.8707 50.7297 42.1137 50.0775 42.1237 49.4984C42.1386 48.8715 41.9764 48.2428 41.4694 47.8371C41.2016 47.6168 40.822 47.5463 40.4774 47.6082C40.0497 47.694 39.7002 47.9649 39.5467 48.3684C39.3293 48.9266 39.5553 49.5617 39.7606 50.0819C39.8227 50.2654 39.9023 50.4346 39.9644 50.6181C39.9389 50.5511 39.9294 50.4857 39.9039 50.4186C39.9294 50.4857 39.9533 50.5686 39.9612 50.65C39.9516 50.5846 39.9597 50.5048 39.9502 50.4394C39.9486 50.4554 39.9486 50.4554 39.947 50.4713C39.942 50.6803 40.0008 50.8957 40.1299 51.0538C40.259 51.2118 40.4727 51.33 40.6817 51.335C41.0996 51.3449 41.5322 51.0501 41.5453 50.6003C41.5599 50.2956 41.4581 50.0275 41.3578 49.7434C41.267 49.5248 41.1763 49.3062 41.1031 49.0732C41.1286 49.1402 41.1381 49.2056 41.1636 49.2727C41.1158 49.1067 41.0681 48.9408 41.0523 48.778C41.0618 48.8434 41.0538 48.9232 41.0633 48.9886C41.0538 48.9232 41.0602 48.8594 41.0826 48.7972C41.0602 48.8594 41.0522 48.9392 41.0298 49.0013C41.0346 48.9535 41.0538 48.9232 41.0745 48.877C41.0362 48.9376 41.0138 48.9997 40.9755 49.0603C40.9947 49.03 41.0138 48.9997 41.033 48.9695C40.9803 49.0125 40.942 49.0731 40.8893 49.1161C40.9085 49.0858 40.942 49.0731 40.9595 49.0587C40.9068 49.1018 40.8398 49.1272 40.7871 49.1703C40.8223 49.1416 40.8558 49.1288 40.9052 49.1177C40.8382 49.1432 40.7728 49.1527 40.7058 49.1782C40.7553 49.167 40.8047 49.1559 40.8701 49.1464C40.8047 49.1559 40.7249 49.1479 40.6595 49.1574C40.6914 49.1606 40.7233 49.1638 40.7712 49.1686C40.709 49.1463 40.6292 49.1382 40.567 49.1158C40.5989 49.1191 40.6452 49.1398 40.6755 49.159C40.6149 49.1207 40.5527 49.0983 40.4921 49.0599C40.5224 49.0791 40.5527 49.0983 40.5814 49.1334C40.5384 49.0807 40.4778 49.0424 40.4347 48.9897C40.4794 49.0264 40.5065 49.0775 40.5495 49.1302C40.5065 49.0775 40.481 49.0105 40.438 48.9578C40.4794 49.0264 40.5192 49.111 40.543 49.194C40.5176 49.127 40.5081 49.0616 40.4826 48.9945C40.5319 49.1445 40.5494 49.2913 40.5668 49.4381C40.5573 49.3727 40.5653 49.2929 40.5558 49.2275C40.5573 49.3727 40.5571 49.5338 40.5267 49.6758C40.5491 49.6136 40.5571 49.5338 40.5795 49.4716C40.5539 49.5657 40.5283 49.6598 40.4868 49.7523C40.5251 49.6917 40.5475 49.6295 40.5858 49.5689C40.565 49.6152 40.5283 49.6598 40.4916 49.7044C40.5443 49.6614 40.5826 49.6008 40.6353 49.5578C40.6161 49.5881 40.581 49.6168 40.5475 49.6295C40.6002 49.5865 40.6672 49.561 40.7199 49.518C40.7023 49.5323 40.6688 49.5451 40.6512 49.5594C40.8618 49.5484 41.0724 49.5374 41.267 49.5248C41.1889 49.5008 41.1267 49.4784 41.0645 49.456C41.1251 49.4944 41.1873 49.5168 41.2479 49.5551C41.2016 49.5343 41.157 49.4976 41.1124 49.4609C41.1554 49.5136 41.216 49.5519 41.259 49.6046C41.2303 49.5694 41.1857 49.5327 41.1729 49.4992C41.216 49.5519 41.2414 49.6189 41.2845 49.6716C41.2558 49.6365 41.2287 49.5854 41.2176 49.5359C41.243 49.603 41.2526 49.6684 41.278 49.7354C41.2669 49.6859 41.2414 49.6189 41.2479 49.5551C41.2574 49.6205 41.2493 49.7003 41.2589 49.7657C41.251 49.6843 41.259 49.6046 41.283 49.5264C41.2606 49.5886 41.2526 49.6684 41.2302 49.7306C41.2558 49.6365 41.2814 49.5424 41.3389 49.4515C41.3006 49.5121 41.2782 49.5743 41.2398 49.6349C41.2814 49.5424 41.3548 49.4531 41.4107 49.3782C41.3581 49.4212 41.3197 49.4818 41.267 49.5248C41.3213 49.4658 41.374 49.4228 41.4442 49.3654C41.3916 49.4085 41.3245 49.4339 41.2719 49.477C41.3229 49.4499 41.374 49.4228 41.4235 49.4117C41.3565 49.4371 41.291 49.4467 41.224 49.4721C41.2735 49.461 41.307 49.4483 41.3548 49.4531C41.2894 49.4626 41.2097 49.4546 41.1442 49.4641C41.1762 49.4673 41.2081 49.4705 41.2559 49.4753C41.1937 49.453 41.114 49.4449 41.0518 49.4225C41.0837 49.4257 41.1299 49.4465 41.1602 49.4657C41.0996 49.4274 41.0374 49.405 40.9768 49.3666C41.0231 49.3874 41.0534 49.4066 41.0821 49.4417C41.039 49.389 40.9784 49.3507 40.9354 49.298C40.98 49.3347 41.0231 49.3874 41.0645 49.456C41.0215 49.4034 40.996 49.3363 40.953 49.2837C41.0231 49.3874 41.0597 49.5039 41.0963 49.6204C41.0708 49.5534 41.0613 49.4879 41.0358 49.4209C41.0724 49.5374 41.0947 49.6363 41.1153 49.7512C41.1058 49.6858 41.1138 49.606 41.1043 49.5406C41.1138 49.606 41.1074 49.6698 41.085 49.732C41.1074 49.6698 41.1154 49.5901 41.1378 49.5279C41.1314 49.5917 41.1106 49.6379 41.0723 49.6985C41.1106 49.6379 41.133 49.5757 41.1713 49.5152C41.133 49.5757 41.0963 49.6204 41.0579 49.681C41.1106 49.6379 41.1489 49.5774 41.2016 49.5343C41.1489 49.5774 41.1122 49.622 41.0436 49.6634C41.0963 49.6204 41.1633 49.5949 41.216 49.5519C41.1473 49.5933 41.0803 49.6188 41.0133 49.6442C41.0803 49.6188 41.1457 49.6093 41.2128 49.5838C41.1298 49.6077 41.0468 49.6315 40.967 49.6235C41.0325 49.614 41.1122 49.622 41.1776 49.6125C41.0963 49.6204 41.0006 49.6107 40.9224 49.5867C40.9846 49.6091 41.0644 49.6172 41.1266 49.6396C41.0484 49.6156 40.9703 49.5916 40.9097 49.5532C40.9703 49.5916 41.0325 49.6139 41.093 49.6523C41.0165 49.6123 40.9575 49.5581 40.8826 49.5022C40.9256 49.5548 40.9862 49.5932 41.0292 49.6458C41.0149 49.6283 40.9846 49.6091 40.9719 49.5756C41.0149 49.6283 41.0404 49.6953 41.0834 49.748C41.0547 49.7129 41.042 49.6794 41.0292 49.6458C41.0547 49.7129 41.0642 49.7783 41.0897 49.8453C41.0786 49.7959 41.0691 49.7304 41.0579 49.681C41.0675 49.7464 41.0594 49.8261 41.0689 49.8916C41.0626 49.7942 41.0707 49.7145 41.0963 49.6204C41.0739 49.6826 41.0658 49.7623 41.0435 49.8245C41.0739 49.6826 41.1187 49.5582 41.1794 49.4354C41.141 49.496 41.1186 49.5582 41.0803 49.6188C41.1394 49.5119 41.1985 49.4051 41.2879 49.3174C41.2353 49.3605 41.1969 49.4211 41.1442 49.4641C41.1985 49.4051 41.2512 49.3621 41.3199 49.3206C41.2672 49.3637 41.2001 49.3891 41.1475 49.4322C41.1985 49.4051 41.2337 49.3764 41.2831 49.3653C41.2161 49.3908 41.1507 49.4003 41.0837 49.4257C41.1172 49.413 41.1507 49.4003 41.1826 49.4035C41.1172 49.413 41.0374 49.405 40.972 49.4145C41.0534 49.4066 41.1491 49.4162 41.2272 49.4402C41.165 49.4178 41.0853 49.4098 41.0231 49.3874C41.0709 49.3922 41.1331 49.4146 41.1794 49.4354C41.1188 49.3971 41.0566 49.3747 40.996 49.3363C41.0422 49.3571 41.0725 49.3763 41.1012 49.4114C41.0582 49.3587 40.9976 49.3204 40.9546 49.2677C40.9833 49.3028 41.0136 49.322 41.0422 49.3571C40.9992 49.3044 40.9737 49.2374 40.9307 49.1847C40.9594 49.2199 40.9705 49.2693 40.9833 49.3028C40.9578 49.2358 40.9483 49.1704 40.9228 49.1034C40.9483 49.1704 40.9578 49.2358 40.9514 49.2996C40.9418 49.2342 40.9499 49.1544 40.9404 49.089C40.9467 49.1863 40.9354 49.298 40.9098 49.3921C40.9322 49.3299 40.9402 49.2501 40.9626 49.1879C40.9306 49.3459 40.8683 49.4846 40.8059 49.6233C40.8443 49.5627 40.8666 49.5006 40.905 49.44C40.8443 49.5628 40.7676 49.6839 40.6782 49.7716C40.7309 49.7286 40.7692 49.668 40.8219 49.6249C40.7676 49.6839 40.6973 49.7413 40.6287 49.7827C40.6814 49.7397 40.7484 49.7142 40.8011 49.6712C40.766 49.6999 40.7165 49.711 40.6654 49.7381C40.7325 49.7126 40.7979 49.7031 40.8649 49.6776C40.8314 49.6904 40.7995 49.6871 40.766 49.6999C40.8314 49.6904 40.9111 49.6984 40.9766 49.6889C40.9447 49.6857 40.9287 49.6841 40.8968 49.6808C40.959 49.7032 41.0388 49.7113 41.101 49.7337C41.0691 49.7304 41.0547 49.7129 41.0388 49.7113C41.0994 49.7496 41.1616 49.772 41.2221 49.8103C41.1918 49.7912 41.1775 49.7736 41.1472 49.7544C41.1902 49.8071 41.2508 49.8454 41.2939 49.8981C41.2652 49.863 41.2349 49.8438 41.2078 49.7928C41.2508 49.8454 41.2763 49.9125 41.3193 49.9651C41.2779 49.8965 41.2381 49.8119 41.2142 49.729C41.2397 49.796 41.2492 49.8614 41.2747 49.9284C41.2381 49.8119 41.2031 49.6795 41.2 49.5503C41.2095 49.6157 41.2015 49.6955 41.211 49.7609C41.2079 49.6316 41.2208 49.504 41.2496 49.378C41.2272 49.4402 41.2192 49.52 41.1968 49.5822C41.2256 49.4562 41.2704 49.3318 41.3311 49.209C41.2928 49.2696 41.2704 49.3318 41.2321 49.3924C41.272 49.3158 41.3295 49.2249 41.3838 49.166C41.3311 49.209 41.2928 49.2696 41.2401 49.3126C41.2768 49.268 41.3295 49.2249 41.3806 49.1979C41.3279 49.2409 41.2609 49.2664 41.2082 49.3094C41.2433 49.2807 41.2928 49.2696 41.3263 49.2569C41.2593 49.2823 41.1939 49.2918 41.1268 49.3173C41.1763 49.3062 41.2098 49.2934 41.2577 49.2983C41.1922 49.3078 41.1125 49.2997 41.0471 49.3093C41.0949 49.3141 41.1268 49.3173 41.1587 49.3205C41.0965 49.2981 41.0168 49.2901 40.9546 49.2677C41.0184 49.2741 41.0646 49.2949 41.1252 49.3333C41.0646 49.2949 41.0024 49.2725 40.9418 49.2342C40.9881 49.255 41.0327 49.2917 41.0774 49.3284C41.0343 49.2758 40.9737 49.2374 40.9307 49.1847C40.9897 49.239 41.0327 49.2917 41.0758 49.3444C41.0327 49.2917 41.0073 49.2247 40.9642 49.172C41.0056 49.2406 41.0327 49.2917 41.0566 49.3747C41.0311 49.3077 41.0216 49.2422 40.9961 49.1752C41.0343 49.2757 41.0406 49.3731 41.0469 49.4704C41.0374 49.405 41.0455 49.3252 41.0359 49.2598C41.0422 49.3571 41.0326 49.4528 41.0054 49.5629C41.0278 49.5007 41.0358 49.4209 41.0582 49.3587C41.0342 49.4369 41.0102 49.515 40.9703 49.5916C41.0086 49.531 41.031 49.4688 41.0693 49.4082C41.031 49.4688 40.9927 49.5294 40.9543 49.59C41.007 49.5469 41.0453 49.4863 41.098 49.4433C41.0804 49.4577 41.0629 49.472 41.0453 49.4863C41.1634 49.4338 41.2991 49.3669 41.4172 49.3144C41.4012 49.3127 41.3837 49.3271 41.3677 49.3255C41.4331 49.316 41.5129 49.324 41.5783 49.3145C41.5304 49.3097 41.481 49.3208 41.4347 49.3C41.4969 49.3224 41.5767 49.3304 41.6389 49.3528C41.607 49.3496 41.5767 49.3304 41.5607 49.3288C41.6213 49.3672 41.6835 49.3895 41.7441 49.4279C41.7138 49.4087 41.6995 49.3912 41.6692 49.372C41.7122 49.4247 41.7728 49.463 41.8158 49.5157C41.8015 49.4981 41.7712 49.479 41.7585 49.4454C41.8015 49.4981 41.827 49.5651 41.87 49.6178C41.8413 49.5827 41.8302 49.5332 41.8031 49.4822C41.8286 49.5492 41.8381 49.6146 41.8636 49.6816C41.8524 49.6322 41.8413 49.5827 41.8302 49.5333C41.7587 49.1232 41.3075 48.8038 40.8959 48.8912C40.4204 48.9721 40.1393 49.3628 40.2075 49.8047Z" fill="black"/>
<path d="M33.4952 56.6047C34.5548 56.3248 35.6813 56.0195 36.7868 56.0826C36.8825 56.0922 36.9782 56.1019 37.0739 56.1115C37.2813 56.1325 37.0293 56.0748 37.1218 56.1164C37.0293 56.0748 36.7041 55.7842 36.8142 55.6503C36.7791 55.679 36.7949 55.8417 36.7742 55.8879C36.6173 56.4845 36.384 57.041 36.2574 57.6567C36.1341 58.2405 35.9948 58.8226 35.9497 59.4304C35.9207 59.7175 35.9093 59.9903 35.8804 60.2775C35.8707 60.3732 35.8611 60.4689 35.8355 60.563C35.8131 60.6252 35.7891 60.7033 35.7667 60.7655C35.7635 60.7974 35.7459 60.8118 35.7427 60.8437C35.781 60.7831 35.781 60.7831 35.7443 60.8277C35.6581 60.8835 35.7794 60.799 35.7635 60.7974C35.8465 60.7736 35.9327 60.7178 36.03 60.7115C36.1432 60.7068 35.9789 60.7386 36.014 60.7099C36.03 60.7115 36.0443 60.7291 36.0443 60.7291C36.1065 60.7515 36.0906 60.7498 36.03 60.7115C36.03 60.7115 36.1176 60.8009 36.0603 60.7307C36.0316 60.6956 36.0029 60.6604 35.9583 60.6237C35.9009 60.5535 35.9583 60.6237 35.9566 60.6397C35.9152 60.571 35.8738 60.5024 35.8324 60.4338C35.6428 60.0763 35.4709 59.7044 35.2654 59.3453C34.6632 58.2855 33.9893 57.138 33.6983 56.029C33.579 55.6141 33.2076 55.3027 32.764 55.3869C32.3699 55.46 32.0186 55.908 32.1219 56.3212C32.4845 57.6791 33.1807 58.9256 33.88 60.1402C34.1556 60.6031 34.345 61.1217 34.6541 61.5718C35.0477 62.1433 35.7525 62.5044 36.4403 62.2354C37.1281 61.9663 37.3505 61.1992 37.4483 60.5484C37.4997 60.199 37.5048 59.8289 37.5401 59.478C37.5771 59.1111 37.6444 58.7634 37.7133 58.3997C37.8447 57.7362 38.0829 57.1318 38.2621 56.4731C38.4445 55.7824 38.4611 54.9784 37.6877 54.6587C37.053 54.4014 36.2234 54.4788 35.5708 54.5581C34.7555 54.6531 33.9625 54.8471 33.1679 55.057C32.7546 55.1604 32.4416 55.5478 32.5258 55.9913C32.6324 56.3727 33.066 56.7065 33.4952 56.6047Z" fill="black"/>
<path d="M49.6946 36.4199C49.9998 33.8725 50.7931 31.4387 51.3981 28.9538C51.5918 28.1515 51.6627 27.2885 51.9186 26.5086C52.0114 26.2279 52.0194 26.1481 52.2811 26.1101C52.822 26.0196 53.5094 26.2339 54.0469 26.3365C54.6482 26.4454 58.6057 26.9895 58.1501 28.1521C57.8687 28.865 57.1552 29.3892 56.6347 29.9168C55.8092 30.7521 55.1177 31.6975 54.3975 32.6079C53.9902 33.1308 53.5511 33.6505 53.1726 34.2085C52.8132 34.7363 52.4665 35.2975 51.9876 35.7326C51.7737 35.9367 51.5326 36.0896 51.2629 36.2075C51.1273 36.2743 50.6709 36.4861 50.5911 36.4781C50.3694 36.4396 50.1526 36.1922 49.9182 36.1202C49.604 36.0402 49.3088 36.091 49.0359 36.2407C48.1325 36.7297 48.8094 38.1676 49.7286 37.6802C49.5403 37.7902 49.4033 37.5507 49.6695 37.7871C49.7445 37.843 49.9135 37.9245 49.9741 37.9628C50.2532 38.0715 50.5722 38.1037 50.869 38.0369C51.5264 37.9098 52.1727 37.5722 52.7107 37.1913C53.8057 36.3994 54.4545 35.079 55.2833 34.0507C56.1312 32.9922 56.9235 31.8474 57.9053 30.899C58.6206 30.1977 59.4715 29.4294 59.7324 28.4406C60.3757 26.0561 57.0517 25.302 55.3785 24.956C54.2413 24.7286 52.6528 24.1817 51.5118 24.6306C50.5718 25.0031 50.3365 26.059 50.1826 26.9459C49.6392 30.0977 48.4833 33.0911 48.0978 36.275C47.9773 37.3103 49.5757 37.4392 49.6946 36.4199Z" fill="black"/>
<path d="M8.6829 28.6106C6.05087 26.4277 3.43479 24.2463 0.801147 22.0793C1.24444 22.3174 1.67179 22.5539 8.6829 28.6106Z" stroke="black" stroke-width="1.58" stroke-miterlimit="10" stroke-linecap="round" stroke-linejoin="round"/>
<path d="M35.9163 18.6912C35.5017 12.7356 35.4922 6.75642 35.9311 0.806329C35.7093 0.767859 35.4906 1.01974 35.5494 1.23515" stroke="black" stroke-width="1.58" stroke-miterlimit="10" stroke-linecap="round" stroke-linejoin="round"/>
<path d="M22.3298 19.9962C20.3116 16.3604 18.5503 12.5733 17.0906 8.67163C17.2309 8.87913 17.3711 9.08664 17.5097 9.3101" stroke="black" stroke-width="1.58" stroke-miterlimit="10" stroke-linecap="round" stroke-linejoin="round"/>
<path d="M54.5668 20.7007C56.9245 16.9744 59.1021 13.1172 61.109 9.19445C61.0084 9.39378 60.9061 9.60906 60.7895 9.80678" stroke="black" stroke-width="1.58" stroke-miterlimit="10" stroke-linecap="round" stroke-linejoin="round"/>
<path d="M71.017 29.0305C73.4103 26.7097 75.8052 24.373 78.1984 22.0522" stroke="black" stroke-width="1.58" stroke-miterlimit="10" stroke-linecap="round" stroke-linejoin="round"/>
</g>
<defs>
<clipPath id="clip0_1540_5563">
<rect width="79" height="110.124" fill="white"/>
</clipPath>
</defs>
</svg>
