<svg width="12" height="12" viewBox="0 0 12 12" fill="none" xmlns="http://www.w3.org/2000/svg">
<path d="M5.99991 0.500057C4.91211 0.500057 3.84874 0.822627 2.94427 1.42697C2.0398 2.03132 1.33486 2.8903 0.918573 3.8953C0.502292 4.90029 0.393373 6.00616 0.605592 7.07305C0.817811 8.13995 1.34163 9.11996 2.11082 9.88914C2.88001 10.6583 3.86002 11.1822 4.92691 11.3944C5.99381 11.6066 7.09967 11.4977 8.10467 11.0814C9.10966 10.6651 9.96864 9.96016 10.573 9.05569C11.1773 8.15122 11.4999 7.08785 11.4999 6.00006C11.5032 5.27686 11.3632 4.56017 11.088 3.89139C10.8128 3.2226 10.4078 2.61497 9.89638 2.10359C9.38499 1.59221 8.77736 1.18721 8.10858 0.911978C7.43979 0.63675 6.72311 0.496747 5.99991 0.500057ZM6.49991 8.50006C6.49991 8.63266 6.44723 8.75984 6.35346 8.85361C6.25969 8.94738 6.13252 9.00006 5.99991 9.00006C5.8673 9.00006 5.74012 8.94738 5.64636 8.85361C5.55259 8.75984 5.49991 8.63266 5.49991 8.50006V5.50006C5.49991 5.36745 5.55259 5.24027 5.64636 5.1465C5.74012 5.05274 5.8673 5.00006 5.99991 5.00006C6.13252 5.00006 6.25969 5.05274 6.35346 5.1465C6.44723 5.24027 6.49991 5.36745 6.49991 5.50006V8.50006ZM5.99991 4.00006C5.90102 4.00006 5.80435 3.97073 5.72212 3.91579C5.6399 3.86085 5.57581 3.78276 5.53797 3.6914C5.50013 3.60004 5.49022 3.4995 5.50952 3.40251C5.52881 3.30552 5.57643 3.21643 5.64636 3.1465C5.71628 3.07658 5.80537 3.02896 5.90236 3.00966C5.99935 2.99037 6.09989 3.00027 6.19125 3.03812C6.28261 3.07596 6.3607 3.14005 6.41564 3.22227C6.47058 3.3045 6.49991 3.40117 6.49991 3.50006C6.49991 3.63267 6.44723 3.75984 6.35346 3.85361C6.25969 3.94738 6.13252 4.00006 5.99991 4.00006Z" fill="#D6D6D6"/>
</svg>
