<svg width="24" height="21" viewBox="0 0 24 21" fill="none" xmlns="http://www.w3.org/2000/svg">
<path fill-rule="evenodd" clip-rule="evenodd" d="M6.43598 14.6301C6.2453 14.6066 5.98745 14.6176 5.69122 14.7106C5.39499 14.8036 5.17907 14.9414 5.03828 15.0689C5.22896 15.0923 5.48681 15.0814 5.78304 14.9884C6.07927 14.8954 6.29519 14.7576 6.43598 14.6301ZM6.73643 14.7182C6.7362 14.7184 6.73354 14.7167 6.72913 14.713C6.73445 14.7163 6.73666 14.7181 6.73643 14.7182ZM6.62431 14.3959C6.62567 14.3904 6.62687 14.3876 6.62712 14.3876C6.62737 14.3875 6.62669 14.3903 6.62431 14.3959ZM4.73783 14.9808C4.73806 14.9806 4.74072 14.9823 4.74513 14.986C4.73981 14.9827 4.7376 14.9809 4.73783 14.9808ZM4.84995 15.3031C4.84859 15.3086 4.8474 15.3114 4.84714 15.3114C4.84689 15.3115 4.84757 15.3087 4.84995 15.3031ZM5.78535 12.5904C5.54084 12.6193 5.29187 12.672 5.04315 12.7501C3.45564 13.2486 2.47942 14.5926 2.86269 15.752C3.07113 16.3826 3.63872 16.8287 4.36851 17.0243C4.09654 17.5054 4.01327 18.0325 4.17646 18.5262C4.55973 19.6856 6.15737 20.2215 7.74488 19.7231C8.32624 19.5405 8.82563 19.2446 9.20629 18.8858C9.84881 19.0966 10.6377 19.1035 11.4241 18.8566C12.4694 18.5284 13.2497 17.8335 13.5513 17.0661C14.2312 17.362 15.1216 17.4065 16.0088 17.128C17.5964 16.6295 18.5726 15.2855 18.1893 14.1261C18.1262 13.9352 18.0302 13.7611 17.9067 13.6059C18.0621 13.5765 18.2185 13.5374 18.3749 13.4883C19.9624 12.9899 20.9386 11.6459 20.5553 10.4864C20.3878 9.97951 19.9881 9.59179 19.4586 9.35759C20.7965 8.77282 21.5727 7.56548 21.2241 6.51083C20.9499 5.68123 20.0539 5.17087 18.9848 5.13023C19.4107 4.57424 19.5763 3.92501 19.378 3.32516C18.9947 2.1657 17.3971 1.62984 15.8096 2.12829C14.8394 2.4329 14.0975 3.05332 13.7547 3.75442C13.4542 3.77613 13.145 3.83395 12.8362 3.9309C11.3704 4.39113 10.4258 5.57224 10.5913 6.66335C10.5837 6.66568 10.5762 6.66803 10.5686 6.6704C9.0944 7.13327 8.14735 8.32529 8.32659 9.42158C8.19887 9.44856 8.07058 9.48207 7.94235 9.52233C6.35484 10.0208 5.37862 11.3648 5.7619 12.5242C5.76927 12.5465 5.77709 12.5686 5.78535 12.5904ZM14.2015 8.13672C14.367 9.22783 13.4224 10.4089 11.9566 10.8692C11.8283 10.9094 11.7001 10.9429 11.5723 10.9699C11.7516 12.0662 10.8045 13.2582 9.33032 13.7211C9.0816 13.7992 8.83263 13.8519 8.58812 13.8808C8.59638 13.9026 8.6042 13.9247 8.61157 13.947C8.77476 14.4407 8.69149 14.9678 8.41952 15.4489C8.47212 15.463 8.52387 15.4784 8.57471 15.495C8.95537 15.1363 9.45476 14.8404 10.0361 14.6578C10.9234 14.3792 11.8138 14.4238 12.4936 14.7196C12.7952 13.9523 13.5755 13.2574 14.6209 12.9292C14.7772 12.8801 14.9337 12.841 15.0891 12.8116C14.9656 12.6564 14.8696 12.4824 14.8064 12.2914C14.4578 11.2368 15.234 10.0295 16.5719 9.44468C16.0425 9.21047 15.6428 8.82276 15.4752 8.31585C15.3896 8.05681 15.3718 7.78856 15.4136 7.52258C15.0781 7.77758 14.6759 7.98785 14.2242 8.12967C14.2167 8.13204 14.2091 8.13439 14.2015 8.13672ZM14.0452 5.80033C14.0747 5.83008 14.1053 5.859 14.137 5.88705C14 5.99095 13.814 6.09449 13.5761 6.16917C13.2799 6.26218 13.0221 6.27314 12.8314 6.24971C12.9722 6.12221 13.1881 5.98441 13.4843 5.8914C13.6939 5.82561 13.8842 5.80087 14.0452 5.80033ZM15.9886 4.45763C16.1495 4.45708 16.3399 4.43235 16.5494 4.36655C16.8457 4.27354 17.0616 4.13575 17.2024 4.00825C17.0117 3.98482 16.7539 3.99578 16.4576 4.08879C16.2198 4.16346 16.0337 4.267 15.8968 4.37091C15.9285 4.39896 15.9591 4.42788 15.9886 4.45763ZM7.00499 17.4848C7.30122 17.3918 7.55907 17.3808 7.74975 17.4042C7.60896 17.5317 7.39304 17.6695 7.09681 17.7626C6.80058 17.8556 6.54273 17.8665 6.35205 17.8431C6.49284 17.7156 6.70876 17.5778 7.00499 17.4848ZM6.0516 17.7549C6.05183 17.7548 6.05449 17.7564 6.0589 17.7601C6.05358 17.7569 6.05137 17.755 6.0516 17.7549ZM6.16372 18.0772C6.16236 18.0827 6.16116 18.0856 6.16091 18.0856C6.16066 18.0856 6.16134 18.0829 6.16372 18.0772ZM10.6842 16.6183C10.9804 16.5253 11.2383 16.5144 11.429 16.5378C11.2882 16.6653 11.0722 16.8031 10.776 16.8961C10.4798 16.9891 10.2219 17.0001 10.0312 16.9766C10.172 16.8491 10.388 16.7113 10.6842 16.6183ZM11.7294 16.626C11.7292 16.6261 11.7265 16.6245 11.7221 16.6208C11.7274 16.624 11.7296 16.6258 11.7294 16.626ZM11.6173 16.3037C11.6186 16.2981 11.6198 16.2953 11.6201 16.2953C11.6203 16.2952 11.6197 16.298 11.6173 16.3037ZM8.59043 11.4828C8.88666 11.3898 9.14451 11.3789 9.33519 11.4023C9.1944 11.5298 8.97847 11.6676 8.68224 11.7606C8.38601 11.8536 8.12816 11.8646 7.93748 11.8411C8.07827 11.7136 8.2942 11.5758 8.59043 11.4828ZM9.63564 11.4905C9.63541 11.4906 9.63275 11.489 9.62834 11.4853C9.63366 11.4885 9.63586 11.4903 9.63564 11.4905ZM9.52351 11.1682C9.52488 11.1626 9.52607 11.1598 9.52632 11.1598C9.52658 11.1597 9.52589 11.1625 9.52351 11.1682ZM7.63704 11.753C7.63726 11.7529 7.63992 11.7545 7.64433 11.7582C7.63901 11.7549 7.63681 11.7531 7.63704 11.753ZM7.74916 12.0753C7.74779 12.0808 7.7466 12.0836 7.74635 12.0837C7.74609 12.0837 7.74678 12.0809 7.74916 12.0753ZM16.0137 14.8092C15.823 14.7857 15.5652 14.7967 15.269 14.8897C14.9727 14.9827 14.7568 15.1205 14.616 15.248C14.8067 15.2714 15.0645 15.2605 15.3608 15.1675C15.657 15.0744 15.8729 14.9367 16.0137 14.8092ZM16.3142 14.8973C16.3139 14.8974 16.3113 14.8958 16.3069 14.8921C16.3122 14.8954 16.3144 14.8972 16.3142 14.8973ZM16.202 14.575C16.2034 14.5695 16.2046 14.5667 16.2049 14.5666C16.2051 14.5666 16.2044 14.5694 16.202 14.575ZM14.3156 15.1598C14.3158 15.1597 14.3185 15.1613 14.3229 15.165C14.3175 15.1618 14.3153 15.1599 14.3156 15.1598ZM14.4277 15.4821C14.4263 15.4877 14.4251 15.4905 14.4249 15.4905C14.4246 15.4906 14.4253 15.4878 14.4277 15.4821ZM17.635 11.25C17.9312 11.157 18.1891 11.1461 18.3797 11.1695C18.2389 11.297 18.023 11.4348 17.7268 11.5278C17.4306 11.6208 17.1727 11.6318 16.982 11.6084C17.1228 11.4809 17.3387 11.3431 17.635 11.25ZM18.6802 11.2577C18.68 11.2578 18.6773 11.2562 18.6729 11.2525C18.6782 11.2557 18.6804 11.2576 18.6802 11.2577ZM18.5681 10.9354C18.5694 10.9299 18.5706 10.927 18.5709 10.927C18.5711 10.927 18.5704 10.9297 18.5681 10.9354ZM16.6816 11.5202C16.6818 11.5201 16.6845 11.5217 16.6889 11.5254C16.6836 11.5221 16.6814 11.5203 16.6816 11.5202ZM16.7937 11.8425C16.7923 11.848 16.7912 11.8508 16.7909 11.8509C16.7906 11.8509 16.7913 11.8481 16.7937 11.8425ZM19.0485 7.19392C18.8578 7.17049 18.6 7.18145 18.3038 7.27446C18.0075 7.36747 17.7916 7.50527 17.6508 7.63277C17.8415 7.65619 18.0994 7.64523 18.3956 7.55222C18.6918 7.45921 18.9077 7.32142 19.0485 7.19392ZM19.349 7.28209C19.3487 7.2822 19.3461 7.28059 19.3417 7.27689C19.347 7.28012 19.3492 7.28197 19.349 7.28209ZM19.2368 6.95978C19.2382 6.95426 19.2394 6.95144 19.2397 6.9514C19.2399 6.95137 19.2392 6.95413 19.2368 6.95978ZM17.3504 7.5446C17.3506 7.54448 17.3533 7.5461 17.3577 7.5498C17.3524 7.54656 17.3501 7.54471 17.3504 7.5446ZM17.4625 7.86691C17.4611 7.87242 17.4599 7.87525 17.4597 7.87528C17.4594 7.87532 17.4601 7.87256 17.4625 7.86691ZM17.5028 4.09642C17.5026 4.09653 17.4999 4.09492 17.4955 4.09122C17.5009 4.09445 17.5031 4.0963 17.5028 4.09642ZM17.3907 3.77411C17.3921 3.7686 17.3933 3.76577 17.3935 3.76573C17.3938 3.7657 17.3931 3.76846 17.3907 3.77411ZM11.9614 8.55036C11.7708 8.52694 11.5129 8.5379 11.2167 8.63091C10.9204 8.72392 10.7045 8.86171 10.5637 8.98921C10.7544 9.01264 11.0123 9.00168 11.3085 8.90867C11.6047 8.81566 11.8206 8.67786 11.9614 8.55036ZM12.2619 8.63853C12.2617 8.63865 12.259 8.63703 12.2546 8.63333C12.2599 8.63657 12.2621 8.63842 12.2619 8.63853ZM12.1498 8.31622C12.1511 8.31071 12.1523 8.30788 12.1526 8.30785C12.1528 8.30781 12.1521 8.31057 12.1498 8.31622ZM10.2633 8.90104C10.2635 8.90093 10.2662 8.90254 10.2706 8.90624C10.2653 8.90301 10.2631 8.90116 10.2633 8.90104ZM10.3754 9.22335C10.374 9.22886 10.3729 9.23169 10.3726 9.23173C10.3723 9.23176 10.373 9.229 10.3754 9.22335ZM12.5309 6.16154C12.5312 6.16142 12.5338 6.16304 12.5382 6.16674C12.5329 6.16351 12.5307 6.16166 12.5309 6.16154ZM12.6414 6.48959C12.6419 6.48821 12.6424 6.48629 12.6431 6.48385C12.6407 6.4895 12.64 6.49226 12.6402 6.49222C12.6404 6.4922 12.6408 6.49132 12.6414 6.48959Z" fill="white"/>
<path d="M7.60936 14.9313C7.74665 14.9128 7.88395 14.8948 8.02122 14.8762C8.17687 14.5012 8.50711 14.1506 8.91018 13.8485C8.85517 13.8457 8.84328 13.8274 8.9539 13.7746C9.01363 13.746 9.07377 13.7179 9.13427 13.6903C9.2318 13.6253 9.33218 13.5631 9.43419 13.5039C8.47656 13.6297 7.42961 13.238 7.17212 12.5716C7.1027 12.3919 7.1492 12.227 7.2641 12.081C7.26762 11.7441 7.54466 11.4348 7.93688 11.1905C7.92174 11.1437 7.91625 11.0951 7.92249 11.0451C7.96497 10.7047 8.81146 10.5962 9.08934 10.6198C9.31326 10.6387 9.52916 10.7053 9.71871 10.8052C9.96537 10.8528 10.1497 10.9552 10.148 11.1389C10.2244 11.2265 10.2858 11.3214 10.3281 11.4204C10.4659 11.409 10.5917 11.4122 10.7058 11.4282C10.6268 11.1892 10.5465 10.9506 10.4675 10.7116C10.3106 10.2368 10.0954 9.84781 10.2867 9.42171C10.1935 9.35841 10.126 9.26694 10.0988 9.14454C10.0737 9.03159 10.1169 8.9223 10.2019 8.8192C10.2396 8.54526 10.4033 8.26999 10.6548 7.99442C10.8385 7.7932 11.4016 7.39971 11.8778 7.25379C11.862 7.22818 11.8486 7.19907 11.8378 7.16618C11.7815 6.99597 11.8629 6.81841 12.0192 6.66122C11.9319 6.461 12.191 6.18066 12.5372 5.95086C12.3665 5.70405 12.6372 5.53161 12.9217 5.36696C13.1483 5.2358 13.8299 4.84139 14.1104 4.94659C14.3311 5.02939 14.3708 5.30212 14.225 5.47647C14.072 5.65938 13.8683 5.77702 13.6434 5.86896C13.5009 5.97105 13.278 6.06311 13.0651 6.09551C13.0398 6.1217 13.0243 6.15196 13.0148 6.18484C13.1751 6.16223 13.3266 6.16749 13.4502 6.20897C13.9267 6.36879 13.4349 6.65095 12.9269 6.78574C12.8817 6.95855 12.8286 7.1254 12.758 7.28902C12.985 7.20591 13.2148 7.10008 13.3996 7.03241C13.7915 6.8889 14.2413 6.72317 14.6903 6.5293C14.6654 6.28479 14.7359 6.01632 14.8735 5.82693C15.0315 5.60937 15.3231 5.55136 15.525 5.66597C15.6718 5.49573 15.8772 5.33017 15.9395 5.29182C15.958 5.28045 15.9787 5.2676 16.0012 5.2537C16.0238 5.16306 16.0907 5.05934 16.1738 4.96053C15.7884 5.01589 15.4112 4.80574 15.5655 4.52081C15.5221 4.51095 15.484 4.49681 15.4526 4.47801C15.3224 4.4002 15.1597 4.07003 15.2889 3.93405C15.5459 3.66358 15.791 3.56421 16.1832 3.44106C16.5706 3.31942 16.959 3.23747 17.1791 3.49971C17.3242 3.67256 17.7162 3.89957 17.6537 4.16162C17.7345 4.1615 17.7964 4.18404 17.8271 4.23937C17.9502 4.46105 17.4023 4.70039 16.9893 4.83498C16.9621 4.88803 16.9318 4.94009 16.8986 4.9912C16.9181 5.00841 16.9347 5.03041 16.9476 5.05781C17.0362 5.24493 16.7275 5.43202 16.4581 5.49161C16.2286 5.69577 15.9559 5.88147 15.661 6.0508C15.6487 6.06343 15.6325 6.07316 15.6116 6.07892C15.3183 6.24418 15.0045 6.39363 14.6903 6.5293C14.7225 6.84512 14.9139 7.12098 15.326 7.13489C15.5107 7.14112 15.7081 7.09757 15.9038 7.03883C16.0353 6.98641 16.1897 6.9306 16.3219 6.90023C16.3752 6.88227 16.4276 6.86513 16.4787 6.84962C16.5759 6.82009 16.5341 6.84252 16.4521 6.8788C16.6096 6.86644 16.6891 6.92655 16.5594 7.14259C16.3038 7.56804 15.1068 8.0673 14.5644 8.00474C14.4088 7.98679 14.7401 7.76514 14.8703 7.6729C15.2547 7.40063 15.6991 7.20178 16.1436 7.00788C16.1511 7.00461 16.3394 6.92864 16.4521 6.8788C16.4128 6.88188 16.3688 6.88945 16.3219 6.90023C16.187 6.94561 16.0458 6.99622 15.9038 7.03883C15.7987 7.08077 15.7082 7.12054 15.6557 7.14338C15.3892 7.25929 13.6343 8.00977 14.0033 8.34596C14.287 8.60445 15.3081 7.70697 15.4889 8.10352C15.5103 8.15052 15.6641 8.11134 15.8646 8.03565C15.7721 7.97899 15.6516 7.9478 15.5016 7.93448C15.4268 7.92783 15.3067 7.93724 15.1788 7.95367C15.0068 8.00661 14.8329 8.0512 14.6694 8.06608C14.4699 8.08424 14.8504 7.99584 15.1788 7.95367C15.3507 7.90076 15.5206 7.83951 15.6762 7.79124C16.23 7.61938 16.7827 7.44382 17.3359 7.27011L17.8514 7.10826C18.1729 7.00733 17.2453 7.38912 16.9487 7.53907L16.9455 7.54068C16.8561 7.58588 16.2665 7.88402 15.8646 8.03565C15.9249 8.07254 15.9733 8.12023 16.0102 8.18082C16.4743 8.03343 16.9395 7.89611 17.4043 7.7821C17.5047 7.75746 17.0379 8.02471 17.0199 8.03541C16.8375 8.14425 16.4264 8.49673 16.2004 8.52261C16.0879 8.53549 16.0678 8.30703 16.0484 8.25794C16.0374 8.23018 16.0247 8.20451 16.0102 8.18082C15.2175 8.43256 14.4279 8.71369 13.6488 8.95829C13.5548 8.98781 13.4161 9.03277 13.2649 9.08201C13.2243 9.10621 13.1838 9.13051 13.1435 9.15493C13.0609 9.35974 12.9076 9.55095 12.7118 9.71863C12.8685 9.67816 13.0154 9.63284 13.0387 9.6273C13.8755 9.4286 14.7095 9.21923 15.5474 9.02531C16.1201 8.89277 16.7525 8.68455 17.3344 8.62044C17.4078 8.61236 16.975 8.86165 16.9399 8.87986C16.4228 9.14887 15.8605 9.3517 15.3024 9.54138C15.1188 9.60378 14.884 9.68117 14.619 9.76717C14.7859 9.71494 14.9528 9.66294 15.1195 9.61061C15.5203 9.48475 15.9972 9.27936 16.4145 9.20693C16.6641 9.16361 15.9599 9.42716 15.7217 9.51583C15.4521 9.61618 15.1834 9.71674 14.9155 9.81921C15.1161 9.76936 15.3174 9.72389 15.5195 9.68542C15.9377 9.60582 15.6463 9.7721 15.473 9.87105L15.4619 9.8774C15.0975 10.0855 14.7093 10.2757 14.3172 10.4431C14.2056 10.4908 14.0467 10.5511 13.8686 10.616C13.6829 10.7028 13.496 10.7875 13.308 10.8703C13.4941 10.8492 13.6812 10.8243 13.8675 10.7949C13.8817 10.792 13.8958 10.789 13.91 10.7861L13.9221 10.7836C14.3483 10.6954 14.7752 10.6071 15.1958 10.4885C15.2573 10.4712 15.0743 10.5281 15.013 10.5459C14.6465 10.6519 14.2589 10.7332 13.8675 10.7949C13.5975 10.8513 13.3308 10.9122 13.0642 10.9764C12.4785 11.2283 11.8836 11.4638 11.2852 11.6917C11.4133 11.8132 11.5025 11.9685 11.5565 12.1456C12.1133 12.0306 12.6687 11.9052 13.2237 11.7738C13.6887 11.6637 14.1833 11.4899 14.654 11.4131C14.7959 11.39 14.3902 11.5953 14.3842 11.598C13.6425 11.9325 12.89 12.2393 12.1279 12.5363C11.9418 12.6089 11.7531 12.6796 11.5631 12.7496C11.5623 12.7524 11.5615 12.7551 11.5607 12.7579C12.1169 12.6838 12.6681 12.7035 13.1519 12.8342C13.579 12.7064 13.9738 12.5903 14.3036 12.4954C15.2078 12.2353 15.6233 12.1348 14.8759 12.3897C14.6594 12.4636 14.4415 12.5363 14.2226 12.6076C14.2174 12.6158 14.2124 12.624 14.2075 12.6322C14.2724 12.6173 14.33 12.6101 14.3735 12.6152C14.513 12.6317 14.3619 12.6876 14.1466 12.7495C14.0707 12.9205 14.0436 13.1004 14.0493 13.2791C14.1104 13.3294 14.1683 13.3832 14.2226 13.4407C14.2502 13.4698 14.2919 13.5447 14.3422 13.6369C14.8876 13.5832 15.4313 13.5202 15.9662 13.4296C16.5367 13.333 15.3316 13.6111 14.4299 13.7956C14.4724 13.8704 14.5178 13.9463 14.5642 14.0121C15.1612 13.8011 15.8159 13.7268 16.1251 13.9102C16.1535 13.9271 16.1796 13.9458 16.2036 13.9661C16.455 13.9357 16.6799 13.9732 16.7911 14.155C16.9141 14.3558 16.774 14.5361 16.5575 14.6706C16.6037 14.7776 16.6163 14.8931 16.5845 15.0068C16.4742 15.4007 15.9428 15.6112 15.4868 15.6904C15.4427 15.698 15.4006 15.7002 15.3603 15.6978C14.6595 16.1006 13.4902 15.7799 13.3487 15.1062C13.272 14.7412 13.719 14.3728 14.2873 14.1218C14.2589 14.0743 14.2347 14.0266 14.2151 13.9794C14.1974 13.9369 14.1805 13.8933 14.1648 13.8488C14.0203 13.8772 13.892 13.9011 13.7912 13.918C13.4486 13.9755 12.955 14.0437 12.41 14.1126C12.4466 14.1184 12.4827 14.1249 12.5182 14.132C13.2355 14.2763 11.6898 14.7196 11.5999 14.7475C11.5708 14.7565 11.5418 14.7655 11.5127 14.7744C11.7357 15.1248 12.0019 15.5253 11.9608 15.9476C11.985 15.9642 12.0081 15.9818 12.0302 16.0006C12.4959 16.3955 13.0534 17.0391 12.0952 17.4302C11.6616 17.6072 11.1919 17.7706 10.7491 17.6672C10.5665 17.6245 10.3815 17.5435 10.2059 17.441C9.8982 17.474 9.62064 17.3911 9.33032 17.2815C9.09061 17.191 8.88158 17.0647 8.70305 16.913C8.67129 16.95 8.63968 16.9871 8.60821 17.0242C8.68196 17.2107 8.64417 17.4276 8.45026 17.6344C8.29028 17.8051 8.05273 17.935 7.79977 18.0087C7.78246 18.0301 7.76516 18.0516 7.74785 18.0731C7.6564 18.1866 7.47754 18.3761 7.31231 18.4279C6.43987 18.7019 5.90489 18.4429 5.69911 17.8204C5.52953 17.3074 6.11218 16.8301 6.72413 16.6024C6.39386 16.2809 6.02161 15.9739 5.69824 15.6474C5.63967 15.8436 5.93626 15.7912 5.49148 15.9227C5.06117 16.05 4.69022 15.9476 4.49932 15.6801C3.76395 14.6497 5.82398 13.545 7.05582 13.5748C7.65153 13.5892 8.2834 13.9533 8.18401 14.3725C8.19304 14.5161 8.11044 14.6638 7.88643 14.7935C7.80093 14.843 7.70747 14.8898 7.60936 14.9313Z" fill="white"/>
<path d="M8.91212 14.7957C8.69276 14.8645 9.35082 14.6579 9.57017 14.589C9.69569 14.5496 9.82121 14.5102 9.94673 14.4708C10.1748 14.3992 9.48861 14.6103 9.25602 14.6641C8.41562 14.8586 7.56549 14.9118 6.72209 15.0677C6.44292 15.1193 6.62286 15.3549 6.67119 15.4875C6.76958 15.7574 6.9889 15.7056 7.34339 15.6654C8.79138 15.5012 10.1923 15.1844 11.5999 14.7475C11.6898 14.7196 13.2355 14.2763 12.5182 14.132C11.5343 13.9341 10.1556 14.2684 9.11279 14.4261C7.5533 14.6621 12.2331 14.1796 13.7912 13.918C14.5209 13.7955 16.6958 13.3061 15.9662 13.4296C14.6951 13.6449 13.3743 13.7041 12.0994 13.8539C11.5753 13.9154 11.0514 13.9581 10.5271 14.0292C10.3154 14.0579 9.96462 14.1647 9.76101 14.1165C9.70158 14.1024 9.88167 14.0599 9.94405 14.0355C10.5503 13.798 11.1736 13.6081 11.7962 13.4127C12.3787 13.2298 12.9612 13.0469 13.5437 12.864C13.7236 12.8075 14.1829 12.5928 14.3735 12.6152C14.641 12.6468 13.8402 12.8232 13.5669 12.9097C12.4969 13.2487 11.4267 13.5901 10.3525 13.9161C9.80823 14.0812 9.16773 14.3236 8.59969 14.3632C8.45936 14.373 8.83971 14.2149 8.97435 14.166C10.9026 13.4667 16.8189 11.727 14.8759 12.3897C13.0323 13.0185 11.0965 13.5672 9.17931 13.8217C9.14519 13.8262 8.68347 13.9038 8.9539 13.7746C9.96102 13.2932 11.083 12.9436 12.1279 12.5363C12.89 12.2393 13.6425 11.9325 14.3842 11.598C14.3902 11.5953 14.7959 11.39 14.654 11.4131C14.1833 11.4899 13.6887 11.6637 13.2237 11.7738C12.2251 12.0103 11.2253 12.2273 10.2183 12.3991C9.8803 12.4568 9.51839 12.5412 9.17898 12.5633C8.88746 12.5823 9.69731 12.2834 9.97646 12.1803C11.4628 11.6316 12.9531 11.0767 14.3607 10.3793C15.0305 10.0475 13.5802 10.5055 13.4098 10.5423C13.2483 10.5772 12.823 10.7295 12.9225 10.6187C13.1012 10.4198 13.9373 10.2051 14.196 10.1009C14.7018 9.89745 15.2101 9.70624 15.7217 9.51583C15.9599 9.42716 16.6641 9.16361 16.4145 9.20693C15.9972 9.27936 15.5203 9.48475 15.1195 9.61061C14.2726 9.87651 13.4197 10.1338 12.5945 10.4564C12.1552 10.6282 11.3064 10.9983 12.2978 10.9504C13.1682 10.9084 14.1495 10.7957 15.013 10.5459C15.0743 10.5281 15.2573 10.4712 15.1958 10.4885C14.7713 10.6082 14.3403 10.6971 13.91 10.7861C13.4697 10.8772 13.0384 10.9802 12.6024 11.0906C12.009 11.2407 13.7572 10.6822 14.3172 10.4431C14.7093 10.2757 15.0975 10.0855 15.4619 9.8774C15.6333 9.77944 15.9467 9.60409 15.5195 9.68542C14.7439 9.83307 13.9806 10.0837 13.2175 10.2903C12.5645 10.4671 11.9085 10.6188 11.2625 10.8216C9.9147 11.2448 13.9656 9.99569 15.3024 9.54138C15.8605 9.3517 16.4228 9.14887 16.9399 8.87986C16.975 8.86165 17.4078 8.61236 17.3344 8.62044C16.7525 8.68455 16.1201 8.89277 15.5474 9.02531C14.7095 9.21923 13.8755 9.4286 13.0387 9.6273C12.9766 9.64204 12.0366 9.93939 12.3723 9.67444C12.8516 9.29616 13.4936 8.95817 14.0313 8.626C14.4998 8.33652 13.2541 8.95364 13.1555 9.00412C12.9322 9.11847 12.7118 9.23256 12.4744 9.32408C12.0929 9.47119 13.2577 9.08111 13.6488 8.95829C14.884 8.57048 16.1457 8.09084 17.4043 7.7821C17.5047 7.75746 17.0379 8.02471 17.0199 8.03541C16.8375 8.14425 16.4264 8.49673 16.2004 8.52261C16.0879 8.53549 16.0678 8.30703 16.0484 8.25794C15.9661 8.05011 15.7874 7.95987 15.5016 7.93448C15.2348 7.91078 14.3922 8.09132 14.6694 8.06608C14.9962 8.03632 15.365 7.88781 15.6762 7.79124C16.23 7.61938 16.7827 7.44382 17.3359 7.27011C17.5078 7.21616 17.6796 7.16221 17.8514 7.10826C18.1729 7.00733 17.2453 7.38912 16.9487 7.53907C16.8332 7.59745 15.5537 8.24589 15.4889 8.10352C15.3081 7.70697 14.287 8.60445 14.0033 8.34596C13.6343 8.00977 15.3892 7.25929 15.6557 7.14338C15.8907 7.04118 16.8853 6.59988 16.5594 7.14259C16.3038 7.56805 15.1068 8.0673 14.5644 8.00474C14.4088 7.98679 14.7401 7.76514 14.8703 7.6729C15.2547 7.40063 15.6991 7.20178 16.1436 7.00788C16.1565 7.00223 16.7095 6.77951 16.4787 6.84962C16.1209 6.95828 15.6978 7.14744 15.326 7.13489C14.5949 7.11021 14.5582 6.26095 14.8735 5.82693C15.0586 5.57213 15.4269 5.53618 15.6196 5.74005C15.6777 5.8016 15.7923 6.12203 15.5185 6.08125C15.0498 6.01143 15.8088 5.37221 15.9395 5.29182C16.1805 5.14354 16.7984 4.74259 16.9476 5.05781C17.0618 5.29892 16.5163 5.53998 16.2451 5.50828C15.6174 5.43491 16.3282 4.74668 16.5818 4.59797C16.7663 4.48975 17.6759 3.96687 17.8272 4.23937C17.997 4.54541 16.8881 4.88512 16.621 4.93638C16.3035 4.99731 15.9344 4.71474 16.2288 4.47008C16.3873 4.33831 16.9227 4.00988 17.0955 4.17438C17.41 4.47383 16.6011 4.8581 16.2602 4.94356C15.7808 5.06374 15.253 4.74703 15.6979 4.36562C15.8017 4.27663 17.1846 3.41473 17.0672 3.918C16.9735 4.31952 15.8022 4.68699 15.4526 4.47801C15.3224 4.4002 15.1597 4.07003 15.2889 3.93405C15.5459 3.66358 15.791 3.56421 16.1832 3.44106C16.5706 3.31942 16.959 3.23747 17.1791 3.49971C17.3376 3.68857 17.7909 3.9421 17.6241 4.23535C17.5758 4.32021 17.2607 4.37585 17.1605 4.39562C16.7812 4.47046 16.3599 4.50523 16.0985 4.29582C15.8836 4.1236 16.3927 3.89062 16.5929 3.80166C17.0939 3.57907 17.1416 4.44502 17.077 4.63112C16.662 5.82625 14.7084 6.5532 13.3996 7.03241C12.8835 7.22137 12.0169 7.70799 11.8378 7.16618C11.6594 6.62647 12.8655 6.01285 13.4502 6.20897C14.1753 6.45217 12.6582 6.97868 12.2539 6.83805C11.288 6.50211 13.3869 5.28185 13.7555 5.5944C14.0222 5.82051 12.8459 6.36777 12.5456 5.96251C12.358 5.70945 12.6328 5.53419 12.9217 5.36696C13.1483 5.2358 13.8299 4.84139 14.1104 4.94659C14.3311 5.02939 14.3708 5.30212 14.225 5.47647C13.9722 5.7788 13.5806 5.9028 13.1843 6.0272C12.9232 6.10918 13.0302 6.34204 12.9896 6.52454C12.8688 7.06735 12.7203 7.54321 12.2759 8.02773C12.1233 8.19407 11.8948 8.3396 11.6347 8.35872C11.5025 8.36844 11.2994 8.27659 11.412 8.14867C11.6381 7.89179 12.0896 7.95887 12.2822 8.12006C12.891 8.62942 12.6765 9.35037 11.7261 9.70934C11.1524 9.92605 10.7101 9.81925 10.6816 9.3329C10.6574 8.91942 11.2684 8.48264 11.7283 8.29987C12.2121 8.10758 12.7748 8.13183 12.8595 8.57246C12.952 9.05355 12.1942 9.36196 11.6953 9.51859C11.1929 9.67635 10.6783 9.67778 10.4202 9.33542C10.214 9.06193 10.2178 8.79227 10.5546 8.50923C10.7052 8.38269 11.1818 8.01663 11.4215 8.01894C11.7027 8.02163 11.7665 8.82299 11.6974 8.97564C11.4196 9.58951 10.237 9.76705 10.0988 9.14454C10.0024 8.71028 10.9156 8.3301 11.3309 8.1476C11.9452 7.87764 12.4851 7.71875 12.9084 8.17102C13.8283 9.15378 11.5419 10.495 10.8561 9.45789C10.5264 8.95934 10.5961 8.61456 11.2396 8.16447C11.5992 7.91297 12.0037 7.69258 12.4449 7.80666C12.8931 7.92254 13.1906 8.40875 13.2099 8.77781C13.2456 9.4623 12.4148 10.0706 11.596 10.2925C11.0327 10.4451 10.5358 9.71998 10.357 9.44956C10.0394 8.96923 10.2095 8.48231 10.6548 7.99442C10.9554 7.66503 12.2728 6.82049 12.5614 7.3899C12.6622 7.58882 12.4289 7.78688 12.2204 7.93315C11.6964 8.30081 11.1044 8.55147 10.6326 8.97695C9.94488 9.59708 10.258 10.078 10.4675 10.7116C10.587 11.073 10.7093 11.4335 10.8259 11.7957C10.9174 12.0801 11.0621 12.3825 10.8528 12.695C9.98189 13.9956 7.58112 13.6301 7.17212 12.5716C6.99734 12.1192 7.55739 11.7602 8.09373 11.5631C8.69011 11.3439 9.1565 11.5018 9.42678 11.8725C9.96209 12.6067 7.82188 13.1127 7.40155 12.4966C6.93987 11.8199 7.71598 11.1898 8.61484 10.8689C9.05463 10.712 10.4102 10.6748 10.1032 11.3064C9.98118 11.5576 9.17315 11.8195 8.88217 11.7753C8.48863 11.7154 7.87568 11.4201 7.92249 11.0451C7.96497 10.7047 8.81146 10.5962 9.08934 10.6198C9.72609 10.6736 10.2981 11.1133 10.3834 11.6046C10.4762 12.1395 8.90361 12.7921 8.75108 12.1112C8.65387 11.6772 10.2928 10.8685 10.3816 11.5992C10.4398 12.0782 9.28105 12.3013 8.83607 12.4293C8.61807 12.492 8.26903 12.6118 8.04841 12.5735C7.9764 12.561 8.48524 12.3833 8.53338 12.3681C8.64316 12.3337 9.08949 12.1945 9.07079 12.1994C8.91329 12.2405 9.05579 12.0016 9.09889 11.9548C9.14247 11.9075 8.61527 12.1302 8.44424 12.1839C8.24421 12.2467 7.86113 12.4112 8.25564 12.1871C8.90902 11.8161 9.53333 11.4939 10.307 11.4222C11.0791 11.3507 11.4778 11.7308 11.5879 12.2697C11.7627 13.1256 10.6628 14.0552 9.74717 14.5629C9.1941 14.8696 8.3673 15.2251 7.71073 15.2996C7.36384 15.3389 6.96938 15.2349 6.6452 15.1891C6.29682 15.1399 5.95083 15.2561 5.75796 15.5325C5.52601 15.865 6.0073 15.7701 5.49148 15.9227C5.06117 16.05 4.69022 15.9476 4.49932 15.6801C3.76395 14.6497 5.82398 13.545 7.05582 13.5748C7.87383 13.5945 8.76005 14.2739 7.72734 14.8493C7.20393 15.141 6.31937 15.5214 5.72089 15.4204C5.35396 15.3585 4.63872 15.0423 4.83635 14.6489C5.11704 14.0901 6.76598 13.6207 7.38033 13.7263C7.91967 13.8191 8.5791 14.3926 7.88643 14.7935C7.4602 15.0402 6.83623 15.2203 6.42482 15.0107C5.97718 14.7827 6.16966 14.5947 6.6222 14.3505C6.748 14.2826 7.7405 13.8879 7.23941 14.1302C7.12139 14.1872 6.45763 14.3939 6.57833 14.3642C6.77451 14.3161 7.45935 14.1788 7.45751 14.1796C6.99731 14.3833 6.46064 14.5044 5.97676 14.6563C5.77954 14.7182 5.378 14.7797 5.27231 14.9423C5.20388 15.0476 5.40847 15.3312 5.46157 15.3928C5.86526 15.8604 6.40631 16.2742 6.84575 16.7236C7.20767 17.0937 8.21737 16.6584 8.72098 16.5002C9.2146 16.3452 9.08373 16.4747 8.82929 16.7668C8.45401 17.1977 8.10185 17.6338 7.74785 18.0731C7.6564 18.1866 7.47754 18.3761 7.31231 18.4279C6.43987 18.7019 5.90489 18.4429 5.69911 17.8204C5.5238 17.29 6.15241 16.7979 6.78623 16.5801C7.37951 16.3763 7.83248 16.4244 8.28367 16.6788C8.65346 16.8873 8.78633 17.276 8.45026 17.6344C7.99904 18.1157 6.93094 18.2725 6.63982 17.7608C6.42004 17.3745 7.17637 17.0147 7.60796 16.9175C7.90343 16.851 8.72346 16.9074 8.59257 17.2715C8.4685 17.6165 7.62594 17.7529 7.29537 17.7053C6.95382 17.6561 6.47754 17.4628 6.93049 17.1508C7.05477 17.0652 7.53432 16.7801 7.59473 16.9629C7.6327 17.0778 7.57604 17.178 7.71589 17.1341C8.64365 16.8428 9.51192 16.5679 10.4752 16.5212C10.6088 16.5147 11.0822 16.6548 11.1682 16.6278C11.3539 16.5695 11.716 16.2995 11.8511 16.4841C12.3307 17.1398 10.8751 17.5325 10.2678 17.3585C9.59057 17.1646 9.24698 16.4717 9.46171 15.8845C9.58266 15.5538 10.0672 15.0592 10.5245 14.9614C11.1494 14.8277 11.4915 15.2764 11.7183 15.6063C12.0434 16.0793 12.0424 16.5526 11.2843 16.9303C10.676 17.2334 9.05036 17.5789 9.22274 16.6875C9.29954 16.2904 10.0358 15.9813 10.4623 15.8474C11.0124 15.6747 11.6694 15.6946 12.0302 16.0006C12.4959 16.3955 13.0534 17.0391 12.0952 17.4302C11.6616 17.6072 11.1919 17.7706 10.7491 17.6672C10.1955 17.5378 9.61924 17.0561 9.35297 16.6908C8.81008 15.9462 9.3128 15.1429 10.2714 14.5251C10.86 14.1457 11.2148 14.3045 11.4942 14.7453C11.7833 15.2015 12.1638 15.7452 11.8429 16.3128C11.6043 16.735 11.1689 17.0781 10.649 17.3155C10.1483 17.544 9.75283 17.441 9.33032 17.2815C8.49453 16.966 8.03178 16.2142 7.93388 15.4742C7.795 14.4244 9.27046 13.4597 10.4329 13.0361C11.797 12.539 13.408 12.5788 14.2226 13.4407C14.3211 13.5449 14.601 14.2347 14.8103 14.2052C15.1822 14.1528 15.5986 13.9598 15.8633 14.2047C16.6655 14.947 14.2412 15.6134 14.2193 14.7002C14.2085 14.25 15.1523 13.9252 15.521 14.1824C15.7607 14.3496 15.9118 14.8548 15.8272 15.1208C15.464 16.2627 13.5332 15.9844 13.3487 15.1062C13.1832 14.3183 15.4582 13.5145 16.1251 13.9102C16.5963 14.1898 16.4598 14.9934 15.9351 15.3374C15.3554 15.7176 14.0779 15.6379 14.179 14.9811C14.2371 14.6034 15.204 14.2454 15.6166 14.1907C16.1818 14.1159 16.7058 14.5736 16.5845 15.0068C16.4742 15.4007 15.9428 15.6112 15.4868 15.6904C15.1184 15.7543 14.883 15.4374 14.7958 15.2236C14.6242 14.8027 14.7632 14.4869 15.3511 14.2299C15.773 14.0455 16.5497 13.7605 16.7911 14.155C17.0035 14.502 16.4308 14.7878 16.0347 14.8818C15.2043 15.0788 14.4311 14.4992 14.2151 13.9794C13.9844 13.4244 13.8889 12.6842 14.6402 12.2014C15.2106 11.8349 15.5077 11.9182 15.9079 12.2278" stroke="white" stroke-width="1.54863" stroke-linecap="round"/>
<path d="M16.0091 12.3093C15.5169 12.2508 15.1944 11.9381 15.0274 11.5307C14.9164 11.2599 15.131 10.8754 15.4828 10.6744C15.7747 10.5077 16.2298 10.4281 16.5578 10.3251C16.797 10.25 17.0096 10.2204 17.203 10.2366C16.9911 9.66783 16.736 9.11115 16.5731 8.52837C16.3933 7.88491 16.7513 7.22472 17.4895 6.8731C17.6467 6.72628 17.8199 6.60385 17.9495 6.55185C18.5648 6.30511 19.2394 6.27021 19.5253 6.74087C19.7058 7.03802 19.5392 7.3046 19.1583 7.48032C19.2345 8.22179 17.5542 9.17575 16.9969 8.37107C16.512 8.33758 16.4819 7.72063 16.8305 7.45139C16.8998 7.3979 16.9735 7.34616 17.0507 7.29721C17.1552 7.14502 17.2984 7.00427 17.4751 6.88659C17.4799 6.88207 17.4847 6.87757 17.4895 6.8731C16.7513 7.22472 16.3933 7.88491 16.5731 8.52837C16.736 9.11115 16.9911 9.66783 17.203 10.2366C17.4213 10.2549 17.6151 10.3316 17.7951 10.4671C17.9514 10.5848 18.1153 10.7054 18.252 10.8334C18.5941 11.1534 18.7669 11.5193 18.2289 11.9991C17.8018 12.38 16.7579 12.5346 16.2552 12.4007C16.1617 12.3758 16.0799 12.345 16.0091 12.3093Z" fill="white"/>
<path d="M18.1241 10.3638C18.2166 10.6436 18.3175 10.8767 18.2111 11.1883C18.017 11.7563 17.3925 12.0375 16.7398 12.2308C15.8232 12.5023 15.2662 12.1134 15.0274 11.5307C14.9164 11.2599 15.131 10.8754 15.4828 10.6744C15.7747 10.5077 16.2298 10.4281 16.5578 10.3251C17.067 10.1652 17.4556 10.2116 17.7951 10.4671C18.3421 10.8789 18.982 11.3274 18.2289 11.9991C17.8018 12.38 16.7579 12.5346 16.2552 12.4007C15.1256 12.0997 15.6979 10.9353 16.8713 10.7366C17.3732 10.6516 18.0803 10.8244 18.0506 11.2888C18.0352 11.5291 17.5108 11.6236 17.2866 11.6878C16.9341 11.7888 16.6195 11.7005 16.471 11.4664C16.3748 11.3149 16.4569 10.7115 16.8638 10.848C17.389 11.0242 16.9397 11.671 16.3994 11.6893C16.0833 11.7 16.3389 11.3798 16.4418 11.2929C16.7301 11.0495 17.2473 10.8428 17.6457 10.8088C18.2158 10.7601 17.7017 11.2253 17.5273 11.0729C17.393 10.9556 17.3705 10.7208 17.3204 10.569C17.0935 9.88266 16.7676 9.22412 16.5731 8.52837C16.3598 7.76482 16.9037 6.97769 17.9415 6.71058C18.4421 6.58175 19.1525 6.8524 19.042 7.30523C18.9249 7.78486 17.6447 8.31439 17.1096 8.36879C16.5184 8.42889 16.4567 7.74016 16.8305 7.45139C17.365 7.03856 18.1678 6.73012 18.7491 7.0052C20.1564 7.67122 17.5535 9.46681 16.9438 8.28232C16.6439 7.69965 17.0896 6.92795 17.9777 6.64912C18.2879 6.5517 18.7949 6.84638 18.7709 7.09561C18.7352 7.46627 17.9025 7.69509 17.5064 7.71369C16.5273 7.75968 17.4998 6.7322 17.9495 6.55185C18.5648 6.30511 19.2394 6.27021 19.5253 6.74087C19.7184 7.05879 19.5143 7.34172 19.0753 7.51582C18.7967 7.62628 18.3401 7.61672 18.4336 7.29584C18.5321 6.9578 18.9444 7.57151 18.9727 7.65709" stroke="white" stroke-width="1.54863" stroke-linecap="round"/>
<path d="M18.6536 11.5247C18.983 11.3909 18.567 10.3838 18.5038 10.1924" stroke="white" stroke-width="1.54863" stroke-linecap="round"/>
<path d="M15.4446 12.585L16.169 12.3575" stroke="white" stroke-width="1.54863" stroke-linecap="round"/>
<path d="M15.9555 11.4814C15.7776 11.6653 15.5957 11.8471 15.4116 12.0276C15.4118 12.0301 15.412 12.0326 15.4121 12.0351C15.4225 12.172 16.0858 11.508 16.1407 11.4557C16.5021 11.1106 16.8577 10.7556 17.1713 10.3864C17.1818 10.374 17.5688 9.88233 17.4854 9.88399C17.4184 9.88533 17.2046 10.1538 17.1826 10.1765C16.7657 10.6076 16.3723 11.0502 15.9555 11.4814Z" fill="white"/>
<path d="M13.8925 13.6027C14.3635 13.4548 14.8364 13.2622 15.1133 12.9011C15.2711 12.6953 15.4045 12.4765 15.024 12.7287C14.5267 13.0584 14.1105 13.4633 13.6063 13.7869C13.5044 13.8523 13.7625 13.622 13.844 13.5413C14.5415 12.8511 15.2778 12.1823 15.9555 11.4814C16.3723 11.0502 16.7657 10.6076 17.1826 10.1765C17.2046 10.1538 17.4184 9.88533 17.4854 9.88399C17.5688 9.88233 17.1818 10.374 17.1713 10.3864C16.8577 10.7556 16.5021 11.1106 16.1407 11.4557C16.0858 11.508 15.4225 12.172 15.4121 12.0351C15.3845 11.6698 15.2958 11.3134 15.2652 10.9436" stroke="white" stroke-width="1.54863" stroke-linecap="round"/>
<path d="M15.9434 5.63149C15.7072 5.70565 15.4782 5.79162 15.2491 5.8795C15.5014 5.93494 15.7535 5.99075 16.0053 6.04744C16.0759 6.06332 16.6477 6.21948 16.7265 6.0983C16.7891 6.00203 16.0927 5.58461 15.9434 5.63149Z" fill="white"/>
<path d="M13.8272 6.3185C13.8968 6.29667 13.9663 6.27485 14.0358 6.25302C14.0896 6.23612 13.8844 6.33605 13.8532 6.35551C13.7932 6.39303 13.7922 6.40981 13.8824 6.38148C14.22 6.27549 14.5543 6.14369 14.8845 6.01918C15.2377 5.88593 15.5822 5.7449 15.9434 5.63149C16.0927 5.58461 16.7891 6.00203 16.7265 6.0983C16.6477 6.21948 16.0759 6.06332 16.0053 6.04744C15.5797 5.95163 15.1534 5.85833 14.7266 5.7651" stroke="white" stroke-width="1.54863" stroke-linecap="round"/>
<path d="M19.7744 7.65853C19.7922 7.71233 19.7475 7.5476 19.7195 7.4976C19.6834 7.43331 19.5783 7.70461 19.5748 7.71491C19.5191 7.88013 19.4611 8.05126 19.4214 8.2173C19.4187 8.22863 19.4184 8.28758 19.4138 8.23598C19.3975 8.05299 19.3884 7.86867 19.3809 7.68421C19.3684 7.37731 19.383 7.06272 19.3177 6.76552C19.2724 6.55907 19.1795 6.55368 18.8897 6.60378C18.2538 6.71375 17.6276 6.79532 16.9979 6.83642" stroke="white" stroke-width="1.54863" stroke-linecap="round"/>
<path d="M22.8788 1.17004C21.9311 1.17004 21.1716 1.27992 20.2964 1.67597C19.9543 1.83076 19.2122 1.98971 19.2122 2.43805C19.2122 3.20338 18.8668 3.87497 18.7391 4.62184C18.6663 5.04718 18.3842 5.46741 18.3842 5.89624" stroke="white" stroke-width="2" stroke-linecap="round"/>
</svg>
