<svg width="24" height="24" viewBox="0 0 24 24" fill="none" xmlns="http://www.w3.org/2000/svg">
<circle cx="12" cy="12" r="12" fill="#B1B1BB"/>
<path d="M11.5771 14.1426C11.5908 12.3105 12.1514 11.75 13.0947 11.1758C13.6553 10.834 14.0928 10.2871 14.0928 9.52148C14.0928 8.5918 13.3682 8.00391 12.4658 8.00391C11.6865 8.00391 10.9072 8.46875 10.8252 9.58984H9.58105C9.64941 7.93555 10.9072 6.96484 12.4658 6.96484C14.1748 6.96484 15.2959 8.07227 15.2959 9.57617C15.2959 10.6426 14.79 11.3945 13.9424 11.9141C13.0947 12.4336 12.7803 12.9531 12.7529 14.1426V14.2109H11.5771V14.1426ZM12.2061 17.082C11.7275 17.082 11.3174 16.6855 11.3311 16.1934C11.3174 15.7148 11.7275 15.3184 12.2061 15.3184C12.6846 15.3184 13.0811 15.7148 13.0811 16.1934C13.0811 16.6855 12.6846 17.082 12.2061 17.082Z" fill="white"/>
</svg>
