<svg width="150" height="150" viewBox="0 0 150 150" fill="none" xmlns="http://www.w3.org/2000/svg">
<rect width="150" height="150" rx="35" fill="#5C47AE"/>
<rect x="24.7258" y="90.1409" width="50.2742" height="6.16547" fill="white"/>
<path d="M38.6013 71.3052C34.0998 72.1995 29.5333 81.3947 36.6264 90.2103C40.3323 90.338 47.2543 90.4058 45.5083 90.0992C43.3258 89.716 35.9415 80.1208 40.3066 78.3321C44.6717 76.5434 44.1943 73.8605 43.9214 73.3494C43.6486 72.8384 43.1029 70.4109 38.6013 71.3052Z" fill="white"/>
<path d="M36.48 60.533C32.0773 63.2411 33.583 70.7692 36.48 72.4787C35.0109 75.3532 38.5241 79.3141 41.3349 79.8251C42.6764 82.8275 48.3618 84.2329 52.4501 82.572C59.0938 82.7636 63.7571 80.1445 64.9708 77.9726C67.1427 77.5893 73.1476 75.7367 73.5308 70.5624C84.0712 67.8155 77.4915 54.4005 73.5308 55.1671C72.1893 51.8453 69.5702 51.7175 68.101 51.7175C67.5899 50.6954 61.2657 48.8428 57.0496 52.1646C50.5337 49.4816 46.3176 51.7175 43.1874 53.8255C39.8656 54.656 37.3748 55.4343 36.48 60.533Z" fill="#B8A7FF"/>
<path d="M42.4848 71.776C43.0597 71.0734 42.7403 67.8793 40.1851 66.921C40.036 67.1766 39.8273 67.4321 40.1851 66.41C41.846 65.899 43.6346 62.8327 43.1875 60.2135C45.3594 60.7885 47.9785 58.7443 48.4896 58.0416C49.0006 57.3389 51.5559 57.0834 53.8556 57.5944C55.261 59.0637 59.4132 58.4249 59.7326 57.5944C60.052 56.764 64.3959 56.4446 64.9709 57.0834C65.5458 57.7222 66.504 58.361 68.101 58.0416C68.101 60.533 71.1034 61.1079 71.9978 61.1079C71.9978 61.6829 73.9781 62.641 72.5088 64.3658C67.8072 64.928 67.228 68.0922 67.5261 69.604C67.1641 70.328 66.2357 71.661 65.418 71.2011C64.3959 70.6261 61.5852 71.2011 61.4574 72.4785C61.3297 73.756 55.5804 77.2059 54.5583 76.1199C53.5362 75.0339 51.1087 75.545 49.7672 76.7587C49.1284 76.3115 47.9785 76.3754 46.9564 76.7587C47.0203 75.545 44.5929 73.6924 43.1875 73.6924C42.8042 73.2453 43.6985 72.4785 42.4848 71.776Z" fill="#5C47AE"/>
<path d="M83.3003 89.6324V52.1853H110.007V58.6656H91.1547V82.9888C92.3496 82.977 95.7267 83.1024 99.8154 82.9888C103.904 82.8753 110.92 81.8785 113.779 81.4501C113.994 82.4903 114.465 85.3001 114.465 87.9687C110.588 89.9929 92.4468 89.7041 83.3003 89.6324Z" fill="white"/>
<path d="M126.044 47.2207H118.054V103.003H126.044V47.2207Z" fill="white"/>
</svg>
