<svg width="150" height="165" viewBox="0 0 150 165" fill="none" xmlns="http://www.w3.org/2000/svg">
<g clip-path="url(#clip0_1201_2766)">
<path d="M108.712 73.5828C109.322 74.3223 110.382 73.2291 110.639 72.3288C112.405 66.1873 111.185 59.242 107.428 54.0652C105.726 51.7501 102.964 49.5958 100.202 50.4318C102.932 45.1264 101.262 38.2133 97.0233 34.0011C92.7845 29.7889 86.4906 28.1169 80.5498 28.567C76.3753 23.4867 69.6638 20.625 63.1451 21.1073C56.5942 21.5896 50.3966 25.4481 47.0248 31.0751L37.2628 30.8821L37.5197 30.9143C32.3175 30.5606 26.9869 32.6184 23.3582 36.3483C19.7296 40.0782 17.835 45.4801 18.3487 50.6891C15.7156 49.0171 12.3117 51.2035 10.4171 53.7115C4.82956 61.1391 4.54056 72.168 9.77483 79.885C5.53603 81.5248 2.32483 85.6084 1.74681 90.11C1.13668 94.6115 3.19184 99.4025 6.85262 102.071L7.23797 107.666C3.19185 109.274 2.03583 114.418 1.90738 118.759C1.77893 122.521 2.19638 126.733 4.99014 129.242C6.59574 130.688 8.74725 131.332 10.8345 131.91C12.2154 132.296 13.9494 132.618 14.8806 131.524C12.8255 136.894 15.7798 143.518 20.9498 146.026C26.1199 148.534 32.7671 147.087 36.8453 143.068L43.9421 138.663C43.7815 138.502 43.4925 138.695 43.4925 138.92C43.4925 139.145 43.6852 139.338 43.8457 139.467C45.5477 141.01 47.2817 142.618 49.4011 143.454C51.2957 144.193 53.3509 144.322 55.4061 144.29C58.0072 144.225 60.6403 143.936 63.0809 142.939C65.5214 141.942 67.6729 140.238 68.861 137.923L76.3753 139.049C81.8022 141.203 88.3852 140.238 92.9451 136.54C97.505 132.843 99.8813 126.669 98.95 120.881C103.157 120.689 107.235 118.502 109.74 115.094C112.244 111.685 113.111 107.152 112.052 103.068C116.419 102.2 118.217 97.216 118.41 92.7466C118.667 86.7338 115.327 81.7178 110.125 79.3705" fill="#B8A7FF"/>
<g opacity="0.8588">
<path d="M78.013 23.776C76.857 18.76 76.1826 14.0012 76.8248 8.85652C77.0175 7.21667 77.5313 5.19095 78.88 4.09771C80.3251 2.94016 82.316 2.71509 84.0822 2.39355C85.3024 2.16847 86.5548 2.16846 87.8072 2.03985C88.4815 1.97554 89.9266 1.68615 90.5688 2.26493C92.1102 3.64755 90.344 7.18452 89.7981 8.53499C87.8714 13.1652 85.2382 17.3773 83.0867 21.8789C82.5087 23.1329 81.9949 25.7053 80.7746 26.5734C79.8113 27.2487 79.5223 26.1233 78.4947 26.059C78.4626 25.9625 78.4626 25.8339 78.4304 25.7374L78.013 23.776Z" fill="#6FB9A6"/>
</g>
<g opacity="0.8588">
<path d="M47.0248 31.0748C50.3966 25.4478 56.5943 21.5894 63.1451 21.107C69.696 20.6247 76.4074 23.4864 80.5499 28.5668C86.4906 28.1166 92.7845 29.7887 97.0233 34.0008C101.262 38.213 102.932 45.1262 100.202 50.4316C102.964 49.5956 105.726 51.7177 107.428 54.065C111.185 59.2418 113.433 69.4025 109.676 74.5793" stroke="black" stroke-width="2.99804" stroke-miterlimit="10" stroke-linecap="round" stroke-linejoin="round"/>
<path d="M45.5156 31.718C38.3867 27.9881 26.9548 32.6183 23.3261 36.3481C19.6975 40.078 17.8028 45.4799 18.3166 50.6889C15.6834 49.0169 12.2796 51.2033 10.385 53.7114C4.79746 61.1389 4.50844 72.1678 9.74271 79.8848C5.50391 81.5246 2.29271 85.6082 1.71469 90.1098C1.10456 94.6114 3.15974 99.4023 6.82052 102.071" stroke="black" stroke-width="2.99804" stroke-miterlimit="10" stroke-linecap="round" stroke-linejoin="round"/>
<path d="M70.274 137.987C68.6684 140.624 66.0031 142.489 63.0809 143.454C60.1587 144.418 57.0117 144.547 53.961 144.225C52.0985 144.032 50.2039 143.679 48.4699 142.971C46.7358 142.264 45.1302 141.171 43.8136 139.82" stroke="black" stroke-width="2.99804" stroke-miterlimit="10" stroke-linecap="round" stroke-linejoin="round"/>
<path d="M7.23797 107.666C3.19185 109.274 2.03583 114.418 1.90738 118.759C1.77893 122.521 2.19639 126.733 4.99014 129.241C6.59574 130.688 8.74725 131.331 10.8345 131.91C12.2154 132.296 13.9494 132.618 14.8806 131.524C12.8255 136.894 15.7798 143.518 20.9498 146.026C26.1199 148.534 32.7671 147.087 36.8453 143.068" stroke="black" stroke-width="2.99804" stroke-miterlimit="10" stroke-linecap="round" stroke-linejoin="round"/>
<path d="M76.3753 139.048C81.8022 141.203 88.3852 140.238 92.9451 136.54C97.505 132.843 99.8813 126.669 98.9501 120.881C103.157 120.688 107.235 118.502 109.74 115.094C112.244 111.685 113.111 107.152 112.052 103.068C116.419 102.2 117.928 97.1839 118.41 92.7466C118.924 88.1486 115.52 80.3673 110.446 79.2097" stroke="black" stroke-width="2.99804" stroke-miterlimit="10" stroke-linecap="round" stroke-linejoin="round"/>
<path d="M31.3863 99.0486C31.1615 99.4987 30.8725 99.9167 30.744 100.431C30.6156 100.978 30.6798 101.557 30.9367 102.039C31.0972 102.328 31.3862 102.553 31.6753 102.714C32.1248 102.939 32.5744 102.971 33.0561 102.875C33.7947 102.682 34.2763 102.071 34.7259 101.492C34.8222 101.332 34.9186 101.203 34.9828 101.042C35.1434 100.721 35.2718 100.367 35.336 100.013C35.3681 99.756 35.4003 99.5309 35.4003 99.2737C35.3682 98.92 35.3039 98.6627 35.1755 98.3734C34.9507 97.8267 34.5332 97.4087 34.0195 97.1193C33.5378 96.83 32.8955 96.8621 32.4138 97.1515C31.7074 97.6017 31.1294 98.3412 30.8725 99.1451C30.6798 99.7238 30.7761 100.367 31.0651 100.881C31.4505 101.524 32.2212 101.878 32.9597 101.91C33.8268 101.942 34.5653 101.428 35.1755 100.914C35.4645 100.656 35.7214 100.367 35.9462 100.045C36.1388 99.756 36.2994 99.4023 36.3636 99.0486C36.46 98.4698 36.3957 97.8267 36.0425 97.3444C35.625 96.7657 35.0149 96.3477 34.2763 96.3477C33.4735 96.3477 32.735 96.83 32.2533 97.4409C31.8037 98.0197 31.4505 98.5984 31.2257 99.3058C31.1294 99.6274 31.0651 99.9811 31.1294 100.335C31.1615 100.721 31.2257 101.01 31.4184 101.364C31.5789 101.685 31.8679 101.942 32.1569 102.135C32.9597 102.618 34.0516 102.489 34.8223 101.975C35.6251 101.428 36.3315 100.496 36.3315 99.4987C36.3315 98.309 35.1434 97.5052 34.0195 97.666C33.2166 97.7624 32.4459 98.0197 31.8679 98.5984C31.611 98.8557 31.3541 99.2094 31.1936 99.5631C30.9367 100.142 30.744 100.817 30.9367 101.46C31.1615 102.135 31.7074 102.714 32.4138 102.843C32.9919 102.971 33.602 102.843 34.0837 102.521C34.6938 102.103 35.1434 101.524 35.5608 100.914C35.914 100.431 36.2031 99.9168 36.3957 99.3701C36.4921 99.1129 36.5242 98.8557 36.5242 98.5984C36.5242 98.0518 36.2673 97.5695 35.9141 97.1837C35.4645 96.6692 34.7901 96.4763 34.1479 96.4441C33.313 96.3798 32.4138 96.7657 31.8679 97.4087C31.3541 98.0518 31.0009 98.8235 31.033 99.6917C31.0651 100.624 31.5147 101.492 32.3496 101.975C32.7671 102.232 33.2809 102.328 33.7625 102.328C34.18 102.328 34.5975 102.135 34.8865 101.846C35.1755 101.557 35.3681 101.106 35.336 100.688C35.2718 99.8203 34.5974 99.1129 33.6983 99.1129C33.6341 99.1129 33.5699 99.1129 33.4735 99.1129C33.602 99.1451 33.7626 99.1451 33.891 99.1772C33.7947 99.1772 33.6983 99.1451 33.6341 99.1129C33.7625 99.1772 33.891 99.2094 34.0195 99.2737C33.9552 99.2415 33.8589 99.2094 33.7947 99.1451C33.891 99.2415 34.0194 99.3058 34.1158 99.4023C34.0516 99.3701 34.0194 99.3058 33.9552 99.2415C34.0515 99.338 34.1158 99.4666 34.2121 99.5631C34.1479 99.4988 34.1158 99.4023 34.0837 99.338C34.1479 99.4666 34.18 99.5952 34.2442 99.7238C34.2121 99.6274 34.18 99.5309 34.1479 99.4344C34.18 99.5631 34.18 99.7238 34.2121 99.8524C34.18 99.7238 34.18 99.5952 34.2121 99.4666C34.18 99.5952 34.18 99.756 34.1479 99.8846C34.18 99.7238 34.2121 99.5631 34.2763 99.4344C34.2121 99.5631 34.18 99.6917 34.1158 99.8203C34.18 99.6917 34.2442 99.5631 34.3084 99.4666C34.2121 99.5631 34.1479 99.6917 34.0515 99.7881C34.1158 99.6917 34.2121 99.5952 34.3084 99.4987C34.2121 99.5952 34.0837 99.6595 33.9873 99.756C34.0837 99.6917 34.18 99.6274 34.2763 99.5952C34.1479 99.6595 34.0194 99.6917 33.891 99.756C33.9873 99.7238 34.0837 99.6917 34.18 99.6595C34.0515 99.6917 33.891 99.6917 33.7625 99.7238C33.891 99.6917 34.0194 99.6917 34.1479 99.7238C34.0194 99.6917 33.8589 99.6917 33.7304 99.6595C33.8268 99.6595 33.9231 99.6917 34.0195 99.7238C33.891 99.6595 33.7625 99.6274 33.6341 99.5631C33.6983 99.5952 33.7625 99.6274 33.8268 99.6595C33.7304 99.5631 33.602 99.4987 33.5056 99.4023C33.5699 99.4344 33.602 99.4666 33.6341 99.5309C33.5378 99.4344 33.4735 99.3058 33.3772 99.2094C33.4093 99.2415 33.4414 99.3058 33.4414 99.338C33.3772 99.2094 33.3451 99.0807 33.2809 98.9521C33.2809 98.9843 33.313 99.0164 33.313 99.0486C33.2809 98.92 33.2809 98.7592 33.2487 98.6306C33.2487 98.6949 33.2487 98.7271 33.2487 98.7592C33.2809 98.6306 33.2809 98.4698 33.313 98.3412C33.313 98.4377 33.2809 98.5663 33.2166 98.6628C33.2809 98.5341 33.313 98.4055 33.3772 98.2769C33.1845 98.7592 32.8634 99.2094 32.5423 99.6274C32.6386 99.5309 32.7028 99.4023 32.7992 99.3058C32.6065 99.5631 32.3817 99.8203 32.1248 100.045C32.2212 99.9489 32.3496 99.8846 32.4459 99.7881C32.3496 99.8525 32.2854 99.9168 32.1891 99.9489C32.3175 99.8846 32.4459 99.8525 32.5744 99.7881C32.5102 99.8203 32.4781 99.8203 32.4138 99.8524C32.5423 99.8203 32.7028 99.8203 32.8313 99.7881C32.7992 99.7881 32.7671 99.7881 32.735 99.7881C32.8634 99.8203 33.024 99.8203 33.1524 99.8524C33.1203 99.8524 33.0882 99.8525 33.0561 99.8203C33.1845 99.8846 33.313 99.9168 33.4414 99.9811C33.4093 99.9811 33.3772 99.9489 33.3451 99.9168C33.4414 100.013 33.5699 100.078 33.6662 100.174C33.6341 100.142 33.602 100.142 33.602 100.11C33.6983 100.206 33.7625 100.335 33.8589 100.431C33.8268 100.399 33.8268 100.367 33.8268 100.367C33.891 100.496 33.9231 100.624 33.9873 100.753C33.9552 100.721 33.9552 100.688 33.9552 100.624C33.9873 100.753 33.9873 100.914 34.0195 101.042C34.0195 100.978 34.0195 100.914 34.0195 100.849C33.9873 100.978 33.9873 101.139 33.9552 101.267C33.9552 101.171 33.9873 101.042 34.0515 100.946C33.9873 101.074 33.9552 101.203 33.891 101.332C33.9552 101.139 34.0837 100.946 34.18 100.785C34.0837 100.881 34.0194 101.01 33.9231 101.106C33.9873 101.01 34.0515 100.946 34.1479 100.881C34.0515 100.978 33.9231 101.042 33.8268 101.139C33.9231 101.042 34.0515 100.978 34.18 100.946C34.0515 101.01 33.9231 101.042 33.7947 101.106C33.9873 101.01 34.18 100.946 34.3727 100.914C34.2442 100.946 34.0837 100.946 33.9552 100.978C34.0515 100.946 34.18 100.946 34.2763 100.978C34.1479 100.946 33.9873 100.946 33.8589 100.914C33.9231 100.914 33.9552 100.946 34.0195 100.946C33.891 100.881 33.7625 100.849 33.6341 100.785C33.6662 100.785 33.6983 100.817 33.7304 100.817C33.6341 100.721 33.5056 100.656 33.4093 100.56C33.4414 100.56 33.4414 100.592 33.4735 100.592C33.3772 100.496 33.313 100.367 33.2166 100.27C33.2166 100.303 33.2487 100.303 33.2487 100.335C33.1845 100.206 33.1524 100.078 33.0882 99.9489C33.0882 99.9811 33.0882 99.9811 33.1203 100.013C33.0882 99.8846 33.0882 99.7238 33.0561 99.5952C33.0561 99.6274 33.0561 99.6595 33.0561 99.6917C33.0882 99.5631 33.0882 99.4023 33.1203 99.2737C33.1203 99.338 33.0882 99.4023 33.0561 99.4666C33.1203 99.338 33.1524 99.2094 33.2166 99.0807C33.1524 99.2415 33.0561 99.3701 32.9919 99.4987C33.0882 99.4023 33.1524 99.2737 33.2487 99.1772C33.1524 99.2737 33.0561 99.4023 32.9597 99.4666C33.0561 99.3701 33.1845 99.3058 33.2809 99.2094C33.1524 99.3058 33.0561 99.3701 32.9276 99.4344C33.0561 99.3701 33.1845 99.338 33.313 99.2737C33.2166 99.3058 33.1203 99.338 32.9919 99.3701C33.1203 99.338 33.2809 99.338 33.4093 99.3058C33.3451 99.3058 33.2488 99.3058 33.1845 99.3058C33.313 99.338 33.4735 99.338 33.602 99.3701C33.5378 99.3701 33.5056 99.338 33.4735 99.338C33.602 99.4023 33.7304 99.4344 33.8589 99.4987C33.8268 99.4987 33.7947 99.4666 33.7625 99.4344C33.8589 99.5309 33.9873 99.5952 34.0837 99.6917C34.0516 99.6595 34.0194 99.6274 33.9873 99.5952C34.0837 99.6917 34.1479 99.8203 34.2442 99.9168C34.2121 99.8846 34.18 99.8525 34.18 99.7881C34.2442 99.9168 34.2763 100.045 34.3406 100.174C34.3085 100.11 34.3084 100.045 34.2763 99.9811C34.3084 100.11 34.3085 100.27 34.3406 100.399C34.3406 100.27 34.3406 100.174 34.3406 100.045C34.3085 100.174 34.3084 100.335 34.2763 100.463C34.3084 100.335 34.3405 100.206 34.3727 100.078C34.3084 100.206 34.2763 100.335 34.2121 100.463C34.3406 100.11 34.5332 99.7881 34.758 99.4987C34.6617 99.5952 34.5974 99.7238 34.5011 99.8203C34.6296 99.6595 34.758 99.4988 34.9186 99.3701C34.8222 99.4666 34.6938 99.5309 34.5975 99.6274C34.6617 99.5631 34.758 99.5309 34.8223 99.4666C34.6938 99.5309 34.5653 99.5631 34.4369 99.6274C34.5011 99.5952 34.5332 99.5952 34.5975 99.5631C34.469 99.5952 34.3084 99.5952 34.18 99.6274C34.2121 99.6274 34.2763 99.6274 34.3084 99.6274C34.18 99.5952 34.0194 99.5952 33.891 99.5631C33.9231 99.5631 33.9552 99.5631 33.9873 99.5952C33.8589 99.5309 33.7304 99.4988 33.602 99.4344C33.6341 99.4666 33.6983 99.4666 33.7304 99.4987C33.6341 99.4023 33.5056 99.338 33.4093 99.2415C33.4414 99.2737 33.5057 99.3058 33.5378 99.3701C33.4414 99.2737 33.3772 99.1451 33.2809 99.0486C33.313 99.0807 33.3451 99.1451 33.3772 99.1772C33.313 99.0486 33.2809 98.92 33.2166 98.7914C33.2488 98.8557 33.2487 98.8878 33.2487 98.9521C33.2166 98.8235 33.2166 98.6628 33.1845 98.5341C33.1845 98.5984 33.1845 98.6627 33.1845 98.7271C33.2166 98.5984 33.2166 98.4377 33.2487 98.3091C33.2487 98.4055 33.2166 98.4698 33.1845 98.5663C33.2488 98.4377 33.2809 98.3091 33.3451 98.1804C33.2809 98.3091 33.2166 98.4377 33.1203 98.5663C33.2166 98.4698 33.2809 98.3412 33.3772 98.2447C33.2166 98.4377 33.0561 98.5984 32.8634 98.7592C32.9598 98.6628 33.0882 98.5984 33.1845 98.502C32.9919 98.6306 32.7992 98.7592 32.6065 98.8557C32.735 98.7914 32.8634 98.7592 32.9919 98.6949C32.8634 98.7592 32.7671 98.7914 32.6386 98.7914C32.7671 98.7592 32.9276 98.7592 33.0561 98.7271C32.9919 98.7271 32.9597 98.7271 32.8955 98.7271C33.024 98.7592 33.1845 98.7592 33.313 98.7914C33.2488 98.7914 33.1524 98.7592 33.0882 98.7271C33.2166 98.7914 33.3451 98.8235 33.4735 98.8878C33.4093 98.8557 33.3772 98.8557 33.3451 98.8235C33.4414 98.92 33.5699 98.9843 33.6662 99.0807C33.6341 99.0486 33.602 99.0165 33.602 99.0165C33.6983 99.1129 33.7625 99.2415 33.8589 99.338C33.8268 99.3058 33.8268 99.2737 33.7947 99.2415C33.8589 99.3701 33.891 99.4987 33.9552 99.6274C33.9552 99.5952 33.9231 99.5631 33.9231 99.5309C33.9552 99.6595 33.9552 99.8203 33.9873 99.9489C33.9873 99.9168 33.9873 99.8525 33.9873 99.8203C33.9552 99.9489 33.9552 100.11 33.9231 100.238C33.9231 100.142 33.9552 100.078 33.9873 99.9811C33.9231 100.11 33.891 100.238 33.8268 100.367C33.891 100.206 33.9873 100.078 34.0515 99.9489C33.9552 100.045 33.891 100.174 33.7947 100.27C33.9231 100.11 34.0516 99.9489 34.2121 99.8203C34.1158 99.9168 33.9873 99.9811 33.891 100.078C33.9231 100.045 33.9873 100.013 34.0195 99.9811C33.4735 99.9811 32.9276 100.013 32.4138 100.013C32.4781 100.045 32.5102 100.078 32.5744 100.11C32.4781 100.013 32.3496 99.9489 32.2533 99.8524C32.3175 99.9167 32.3817 99.9489 32.4459 100.013C32.3496 99.9168 32.2854 99.7881 32.1891 99.6917C32.2533 99.756 32.2854 99.8525 32.3175 99.9168C32.2533 99.7881 32.2212 99.6595 32.1569 99.5309C32.1891 99.6274 32.2212 99.6917 32.2212 99.7881C32.189 99.6595 32.1891 99.4988 32.1569 99.3701C32.1891 99.4988 32.1891 99.5952 32.1569 99.7238C32.1891 99.5952 32.189 99.4344 32.2212 99.3058C32.189 99.4988 32.1569 99.6595 32.0927 99.8203C32.1569 99.6917 32.1891 99.5631 32.2533 99.4344C32.1569 99.6595 32.0285 99.8846 31.8679 100.078C31.9643 99.9811 32.0285 99.8524 32.1248 99.756C31.9964 99.9168 31.9 100.045 31.7395 100.174C31.8358 100.078 31.9643 100.013 32.0606 99.9168C31.9964 99.9489 31.9321 100.013 31.8679 100.045C31.9964 99.9811 32.1248 99.9489 32.2533 99.8846C32.2212 99.8846 32.1891 99.9168 32.1569 99.9168C32.2854 99.8846 32.4459 99.8846 32.5744 99.8524C32.5423 99.8524 32.5102 99.8524 32.5102 99.8524C32.6386 99.8846 32.7992 99.8846 32.9276 99.9168C32.8955 99.9168 32.8955 99.9168 32.8634 99.9168C32.9919 99.9811 33.1203 100.013 33.2487 100.078C33.2166 100.078 33.2166 100.045 33.1845 100.045C33.2809 100.142 33.4093 100.206 33.5056 100.303C33.4735 100.27 33.4735 100.27 33.4414 100.238C33.5378 100.335 33.602 100.463 33.6983 100.56L33.6662 100.528C33.7304 100.656 33.7625 100.785 33.8268 100.914C33.8268 100.881 33.7947 100.849 33.7947 100.817C33.8268 100.946 33.8268 101.106 33.8589 101.235C33.8589 101.203 33.8589 101.171 33.8589 101.106C33.8268 101.235 33.8268 101.396 33.7947 101.524C33.7947 101.396 33.8589 101.299 33.891 101.203C33.8268 101.332 33.7947 101.46 33.7304 101.589C33.8589 101.299 34.0194 101.074 34.1479 100.785C34.3405 100.399 34.4048 99.9489 34.2763 99.5309C34.18 99.1451 33.8589 98.7592 33.5378 98.5984C33.1524 98.4055 32.7029 98.309 32.2854 98.4698C31.9322 98.4377 31.5789 98.6949 31.3863 99.0486Z" fill="black"/>
<path d="M62.4708 93.7754C62.0854 93.1645 61.668 92.5214 61.0257 92.1356C60.6404 91.9105 60.2229 91.8462 59.7734 91.9105C59.1953 92.007 58.7779 92.3285 58.4567 92.8108C58.1677 93.2288 58.1356 93.7433 58.2641 94.2256C58.3283 94.4506 58.4247 94.6436 58.521 94.8365C58.6494 95.0937 58.8421 95.3188 59.0027 95.5439C59.2596 95.8654 59.5486 96.2191 59.8376 96.5407C59.9981 96.7014 60.1266 96.8622 60.2872 97.023C60.6083 97.3445 60.9936 97.6339 61.4432 97.7625C62.0212 97.9233 62.6313 97.8268 63.1451 97.5375C63.4984 97.3445 63.8837 96.9908 64.0443 96.605C64.3012 96.0905 64.3333 95.5439 64.2048 94.9973C64.0443 94.4185 63.6268 93.8719 63.2093 93.486C62.9846 93.261 62.7598 93.1002 62.5029 92.9073C62.3744 92.8108 62.246 92.7465 62.1175 92.6822C61.7322 92.5214 61.4432 92.4249 61.0257 92.4249C60.6725 92.4249 60.3193 92.5214 59.9981 92.7143C59.4843 92.9716 59.1632 93.486 59.0027 94.0327C58.9384 94.2577 58.9063 94.4828 58.9063 94.7079C58.9063 94.933 58.9384 95.1902 59.0027 95.4153C59.0348 95.6404 59.1632 95.8654 59.2596 96.0584C59.3559 96.2513 59.5165 96.4442 59.677 96.605C59.8376 96.7658 60.0303 96.9265 60.2229 97.023C60.4156 97.1516 60.6725 97.2481 60.8973 97.2802C61.3147 97.3445 61.7001 97.3767 62.1175 97.2481C62.7277 97.0551 63.1772 96.605 63.3378 95.9619C63.4984 95.351 63.3057 94.6757 62.9524 94.1613C62.7277 93.8719 62.5029 93.5504 62.1818 93.2931C61.8606 93.0359 61.5395 92.843 61.1542 92.6822C60.7367 92.5214 60.3835 92.4571 59.9339 92.4249C59.5807 92.3928 59.2275 92.4571 58.8742 92.5536C58.3283 92.6822 57.943 93.1967 57.7824 93.7111C57.6218 94.2256 57.6219 94.7722 57.7503 95.2545C57.8788 95.7047 58.1677 96.1548 58.4889 96.4764C58.7458 96.7336 59.0669 96.9587 59.388 97.0873C59.7412 97.2481 60.0945 97.3767 60.4477 97.4088C60.9615 97.4732 61.5395 97.5375 62.0533 97.5053C62.6313 97.4731 63.1772 97.3445 63.5947 96.8944C63.9479 96.5085 64.1085 96.0584 64.1406 95.5439C64.1727 95.1581 64.0121 94.7722 63.8516 94.4506C63.5947 94.0005 63.1772 93.6147 62.7919 93.261C62.4066 92.9073 61.9891 92.5214 61.5395 92.2963C61.1542 92.1034 60.7688 91.9748 60.3193 91.9748C59.6449 92.0069 59.0348 92.3928 58.7137 92.9716C58.2641 93.7754 58.4247 94.7722 58.9063 95.5439C59.2917 96.187 59.9018 96.7657 60.5762 97.1194C61.0257 97.3445 61.4753 97.4731 61.957 97.5053C62.1818 97.5053 62.4387 97.4732 62.6313 97.4088C63.0167 97.2802 63.2736 97.1194 63.5626 96.8622C64.0122 96.4764 64.0764 95.8011 63.9479 95.2867C63.8516 94.933 63.7231 94.6114 63.5626 94.3221C63.4662 94.097 63.3378 93.8719 63.1772 93.679C62.9524 93.3896 62.7277 93.068 62.4387 92.8429C62.0212 92.5214 61.668 92.2963 61.1863 92.1356C60.9615 92.0713 60.6725 92.0391 60.4477 92.007C59.9981 91.9748 59.5486 92.1034 59.1953 92.3607C58.8742 92.6179 58.6816 92.9394 58.5531 93.3253C58.5531 93.3574 58.521 93.3896 58.521 93.3896C58.4889 93.5504 58.4567 93.7433 58.4567 93.904C58.4889 94.6436 58.8421 95.2867 59.3559 95.769C60.3514 96.7336 62.1175 97.4088 63.2736 96.2513C63.6268 95.8976 63.8195 95.4153 63.7874 94.9008C63.7553 94.4828 63.6589 94.1613 63.4662 93.8076C63.2415 93.3896 62.9203 93.0359 62.5671 92.7143C62.1818 92.3285 61.7322 91.9748 61.2505 91.7176C60.9936 91.5889 60.7046 91.4603 60.4477 91.3639C60.255 91.2995 60.0624 91.2996 59.8376 91.2996C59.4522 91.2996 59.2596 91.396 58.9063 91.5568C58.6816 91.7176 58.4889 91.9105 58.3283 92.1356C58.1999 92.3928 58.1035 92.65 58.1356 92.9394C58.1356 93.1002 58.1678 93.2609 58.1999 93.4217C58.232 93.5825 58.232 93.7433 58.2962 93.904C58.3925 94.2256 58.5531 94.5471 58.7458 94.8365C59.099 95.3831 59.6128 95.8976 60.1908 96.187C60.6404 96.3799 60.9936 96.4764 61.4753 96.5085C61.8927 96.5085 62.3423 96.4121 62.7277 96.187C63.3057 95.8333 63.6268 95.2545 63.6589 94.5793C63.691 94.0005 63.3378 93.4217 62.9203 93.068C62.5992 92.7786 62.2139 92.6179 61.7643 92.6179C61.379 92.6179 60.8973 92.8108 60.6404 93.1002C60.3514 93.4217 60.1587 93.8076 60.1908 94.2577C60.2229 94.6757 60.3514 95.0937 60.6725 95.3831C60.7367 95.4153 60.7688 95.4796 60.8331 95.5439C60.7367 95.4474 60.6725 95.3188 60.5762 95.2224C60.6083 95.2545 60.6083 95.2867 60.6404 95.3188C60.5761 95.1902 60.544 95.0616 60.4798 94.933C60.4798 94.9651 60.5119 94.9973 60.5119 95.0294C60.4798 94.9008 60.4798 94.74 60.4477 94.6114C60.4477 94.6436 60.4477 94.6436 60.4477 94.6757C60.4798 94.5471 60.4798 94.3863 60.5119 94.2577C60.5119 94.2899 60.5119 94.2899 60.5119 94.3221C60.5762 94.1934 60.6083 94.0648 60.6725 93.9362C60.6725 93.9683 60.6404 93.9683 60.6404 94.0005C60.7367 93.904 60.8009 93.7754 60.8973 93.679L60.8652 93.7111C60.9615 93.6147 61.09 93.5503 61.1863 93.4539C61.1542 93.486 61.1221 93.486 61.09 93.5182C61.2184 93.4539 61.3468 93.4217 61.4753 93.3574C61.4111 93.3896 61.3469 93.3896 61.2826 93.4217C61.4111 93.3896 61.5716 93.3896 61.7001 93.3574C61.6037 93.3574 61.5074 93.3574 61.4111 93.3574C61.5395 93.3896 61.7001 93.3896 61.8285 93.4217C61.7322 93.4217 61.6359 93.3896 61.5074 93.3574C61.6359 93.4217 61.7643 93.4539 61.8928 93.5182C61.7643 93.4539 61.6359 93.3896 61.5395 93.3253C61.6359 93.4217 61.7643 93.486 61.8606 93.5825C61.7001 93.4539 61.5716 93.3253 61.4432 93.1645C61.5395 93.261 61.6037 93.3896 61.7001 93.486C61.5716 93.3253 61.4432 93.1324 61.3468 92.9394C61.4111 93.068 61.4432 93.1966 61.5074 93.3253C61.4432 93.1645 61.379 93.0359 61.379 92.8751C61.4111 93.0037 61.4111 93.1645 61.4432 93.2931C61.4432 93.1967 61.4111 93.1002 61.4432 93.0037C61.1863 93.486 60.9294 93.9362 60.6725 94.4185C60.544 94.4828 60.4156 94.515 60.2872 94.5793C60.3193 94.5793 60.3193 94.5793 60.3514 94.5471C60.2229 94.5793 60.0624 94.5793 59.9339 94.6114C59.966 94.6114 59.9981 94.6114 60.0624 94.6114C59.9339 94.5793 59.7734 94.5793 59.6449 94.5471C59.7412 94.5471 59.8055 94.5793 59.9018 94.6114C59.7734 94.5471 59.6449 94.515 59.5165 94.4506C59.7734 94.5471 59.9981 94.7079 60.2229 94.8687C60.1266 94.7722 59.9981 94.7079 59.9018 94.6114C60.255 94.8687 60.5761 95.158 60.8652 95.5117C60.7688 95.4153 60.7046 95.2867 60.6083 95.1902C60.7046 95.3188 60.8009 95.4474 60.8652 95.6082C60.8009 95.4796 60.7688 95.351 60.7046 95.2224C60.7367 95.2867 60.7367 95.351 60.7688 95.3831C60.7367 95.2545 60.7367 95.0937 60.7046 94.9651C60.7046 94.9973 60.7046 95.0294 60.7046 95.0616C60.7367 94.933 60.7367 94.7722 60.7688 94.6436C60.7688 94.6757 60.7688 94.6757 60.7688 94.7079C60.833 94.5793 60.8652 94.4507 60.9294 94.3221C60.9294 94.3542 60.9294 94.3542 60.8973 94.3542C60.9936 94.2577 61.0578 94.1291 61.1542 94.0327C61.1542 94.0648 61.1221 94.0648 61.1221 94.097C61.2184 94.0005 61.3468 93.9362 61.4432 93.8397C61.4111 93.8719 61.379 93.8719 61.3468 93.904C61.4753 93.8397 61.6037 93.8076 61.7322 93.7433C61.7001 93.7433 61.6359 93.7754 61.6037 93.7754C61.7322 93.7433 61.8927 93.7433 62.0212 93.7111C61.957 93.7111 61.8927 93.7111 61.7964 93.7111C61.9249 93.7433 62.0854 93.7433 62.2139 93.7754C62.0854 93.7433 61.9891 93.7111 61.8606 93.679C61.9891 93.7433 62.1175 93.7754 62.246 93.8397C62.0533 93.7433 61.8606 93.6468 61.668 93.5182C61.7643 93.6147 61.8928 93.679 61.9891 93.7754C61.8285 93.6468 61.7001 93.5182 61.5716 93.3574C61.668 93.4539 61.7322 93.5825 61.8285 93.679C61.7643 93.5825 61.7001 93.486 61.6359 93.3896C61.7001 93.5182 61.7322 93.6468 61.7964 93.7754C61.7643 93.7111 61.7643 93.6468 61.7322 93.5825C61.7643 93.7111 61.7643 93.8719 61.7964 94.0005C61.7964 93.9683 61.7964 93.904 61.7964 93.8719C61.7643 94.0005 61.7643 94.1613 61.7322 94.2899C61.7322 94.2577 61.7322 94.1934 61.7643 94.1613C61.7001 94.2899 61.668 94.4185 61.6037 94.5471C61.6037 94.515 61.6358 94.4828 61.668 94.4506C61.5716 94.5471 61.5074 94.6757 61.4111 94.7722C61.4111 94.7722 61.4111 94.7722 61.4111 94.74C61.0257 94.9008 60.6725 95.0616 60.2872 95.2224C60.3835 95.2224 60.4798 95.2224 60.5762 95.2224C60.4477 95.1902 60.2872 95.1902 60.1587 95.158C60.2872 95.158 60.4156 95.1902 60.544 95.2545C60.4156 95.1902 60.2872 95.1581 60.1587 95.0937C60.3193 95.1581 60.4477 95.2224 60.5762 95.3188C60.4798 95.2224 60.3514 95.158 60.255 95.0616C60.4477 95.1902 60.5762 95.351 60.7367 95.5439C60.6404 95.4474 60.5762 95.3188 60.4798 95.2224C60.6725 95.4796 60.8331 95.7368 60.9615 96.0584C60.8973 95.9297 60.8652 95.8011 60.8009 95.6725C60.8652 95.8333 60.9294 96.0262 60.9615 96.187C61.09 95.6725 61.2184 95.1259 61.3468 94.6114C61.3468 94.6114 61.3469 94.6114 61.3147 94.6436C61.4111 94.5471 61.5395 94.4828 61.6359 94.3864C61.5716 94.4185 61.5395 94.4507 61.4753 94.4828C61.6037 94.4185 61.7322 94.3864 61.8606 94.3221C61.7964 94.3542 61.7643 94.3542 61.7001 94.3542C61.8285 94.322 61.9891 94.322 62.1175 94.2899C62.0212 94.2899 61.957 94.2899 61.8606 94.2899C61.9891 94.322 62.1496 94.322 62.2781 94.3542C62.1818 94.3542 62.0533 94.322 61.957 94.2577C62.0854 94.322 62.2139 94.3542 62.3423 94.4185C62.1497 94.3542 61.9891 94.2256 61.8285 94.1291C61.9249 94.2256 62.0533 94.2899 62.1496 94.3864C61.957 94.2256 61.7643 94.0327 61.6037 93.8397C61.7001 93.9362 61.7643 94.0648 61.8606 94.1613C61.7322 94.0005 61.6358 93.8397 61.5716 93.679C61.6358 93.8076 61.668 93.9362 61.7322 94.0648C61.7001 93.9684 61.668 93.8719 61.6359 93.7754C61.668 93.904 61.668 94.0648 61.7001 94.1934C61.7001 94.1291 61.7001 94.097 61.7001 94.0327C61.668 94.1613 61.668 94.322 61.6359 94.4506C61.6359 94.3863 61.668 94.322 61.668 94.2577C61.6037 94.3863 61.5716 94.515 61.5074 94.6436C61.5074 94.6114 61.5395 94.5793 61.5716 94.5471C61.4753 94.6436 61.4111 94.7722 61.3147 94.8687C61.3469 94.8365 61.3468 94.8365 61.379 94.8043C61.2826 94.9008 61.1542 94.9651 61.0578 95.0616C61.09 95.0616 61.0899 95.0294 61.1221 95.0294C60.9936 95.0937 60.8652 95.1259 60.7367 95.1902C60.7688 95.1902 60.7688 95.1902 60.8009 95.158C60.6725 95.1902 60.5119 95.1902 60.3835 95.2224C60.4156 95.2224 60.4477 95.2224 60.4798 95.2224C60.3514 95.1902 60.1908 95.1902 60.0624 95.158C60.1266 95.158 60.1908 95.1902 60.255 95.2224C60.1266 95.1581 59.9981 95.1259 59.8697 95.0616C60.0302 95.1259 60.1908 95.2224 60.3193 95.3188C60.2229 95.2224 60.0945 95.158 59.9981 95.0616C60.2229 95.2545 60.4477 95.4474 60.6725 95.6404C60.8652 95.8333 61.09 96.0262 61.2826 96.2513C61.1863 96.1548 61.1221 96.0262 61.0257 95.9298C61.0899 95.9941 61.1221 96.0584 61.1542 96.1548C61.09 96.0262 61.0578 95.8976 60.9936 95.769C61.0257 95.8011 61.0257 95.8654 61.0257 95.8976C60.9936 95.769 60.9936 95.6082 60.9615 95.4796C60.9615 95.5117 60.9615 95.5439 60.9615 95.5761C60.9936 95.4474 60.9936 95.2867 61.0257 95.158C61.0257 95.1902 61.0257 95.2223 60.9936 95.2545C61.0578 95.1259 61.09 94.9973 61.1542 94.8687C61.1542 94.9008 61.1221 94.9008 61.1221 94.933C61.2184 94.8365 61.2826 94.7079 61.379 94.6114C61.3468 94.6436 61.3469 94.6757 61.3147 94.6757C61.4111 94.5793 61.5395 94.515 61.6359 94.4185L61.6037 94.4506C61.7322 94.3863 61.8606 94.3542 61.9891 94.2899C61.957 94.322 61.8928 94.3221 61.8606 94.3221C61.9891 94.2899 62.1496 94.2899 62.2781 94.2577C61.8606 94.322 61.379 94.2577 60.9615 94.2256C61.09 94.2577 61.2505 94.2577 61.379 94.2899C61.1542 94.2577 60.9294 94.1934 60.7046 94.1291C60.8331 94.1934 60.9615 94.2256 61.09 94.2899C60.9294 94.2256 60.7688 94.1291 60.6404 94.0327C60.7367 94.1291 60.8652 94.1934 60.9615 94.2899C60.8652 94.2256 60.7688 94.1291 60.7046 94.0648C60.8009 94.1613 60.8652 94.2899 60.9615 94.3864C60.8973 94.2899 60.8331 94.2256 60.8009 94.1291C60.8652 94.2577 60.8973 94.3864 60.9615 94.515C60.9294 94.4185 60.8973 94.3542 60.8973 94.2577C60.9294 94.3863 60.9294 94.5471 60.9615 94.6757C60.9615 94.5793 60.9615 94.4828 60.9615 94.3864C60.9294 94.515 60.9294 94.6757 60.8973 94.8043C60.8973 94.7079 60.9294 94.6114 60.9615 94.515C60.6083 94.9008 60.2229 95.2867 59.8697 95.6725C59.9339 95.6725 59.966 95.6404 60.0303 95.6404C59.9018 95.6725 59.7412 95.6725 59.6128 95.7047C59.8055 95.6725 59.9981 95.6725 60.2229 95.7047C60.0945 95.6725 59.9339 95.6725 59.8055 95.6404C59.966 95.6725 60.1266 95.7047 60.2872 95.769C60.1587 95.7047 60.0303 95.6725 59.9018 95.6082C60.0624 95.6725 60.2229 95.769 60.3835 95.8654C60.2872 95.769 60.1587 95.7047 60.0624 95.6082C60.2229 95.7368 60.3835 95.8976 60.5119 96.0584C60.4156 95.9619 60.3514 95.8333 60.255 95.7368C60.3514 95.8654 60.4477 95.9941 60.5119 96.1548C60.4477 96.0262 60.4156 95.8976 60.3514 95.769C60.3835 95.8333 60.3835 95.8654 60.4156 95.9298C60.3835 95.8011 60.3835 95.6404 60.3514 95.5117C60.3514 95.5439 60.3514 95.576 60.3514 95.6082C60.3835 95.4796 60.3835 95.3188 60.4156 95.1902C60.4156 95.2224 60.4156 95.2223 60.4156 95.2545C60.4798 95.1259 60.5119 94.9973 60.5762 94.8687C60.5762 94.9008 60.544 94.9008 60.544 94.9008C60.6404 94.8044 60.7046 94.6757 60.8009 94.5793L60.7688 94.6114C60.8652 94.515 60.9936 94.4507 61.09 94.3542C61.0579 94.3542 61.0578 94.3864 61.0257 94.3864C61.1542 94.322 61.2826 94.2899 61.4111 94.2256C61.379 94.2256 61.3469 94.2577 61.3147 94.2577C61.4432 94.2256 61.6037 94.2256 61.7322 94.1934C61.6359 94.1934 61.5395 94.1934 61.4753 94.1934C61.6037 94.2256 61.7643 94.2256 61.8928 94.2577C61.8285 94.2577 61.7643 94.2256 61.668 94.1934C61.7964 94.2577 61.9249 94.2899 62.0533 94.3542C61.9891 94.322 61.9249 94.2899 61.8606 94.2577C61.957 94.3542 62.0854 94.4185 62.1818 94.515C62.1175 94.4828 62.0854 94.4185 62.0212 94.3542C62.1175 94.4507 62.1818 94.5793 62.2781 94.6757C62.2139 94.6114 62.1818 94.515 62.1496 94.4506C62.2139 94.5793 62.246 94.7079 62.3102 94.8365C62.2781 94.74 62.246 94.6436 62.2139 94.5471C62.246 94.6757 62.246 94.8365 62.2781 94.9651C62.2781 94.8687 62.2781 94.7722 62.2781 94.6757C62.246 94.8043 62.246 94.9651 62.2139 95.0937C62.2139 95.0294 62.246 94.933 62.2781 94.8687C62.2139 94.9973 62.1818 95.1259 62.1175 95.2545C62.1497 95.2223 62.1496 95.1581 62.1818 95.1259C62.0854 95.2224 62.0212 95.351 61.9249 95.4474C61.957 95.4153 61.9891 95.3831 62.0212 95.351C61.9249 95.4474 61.7964 95.5117 61.7001 95.6082C61.7322 95.576 61.7643 95.5761 61.7964 95.5439C61.668 95.6082 61.5395 95.6404 61.4111 95.7047C61.4432 95.7047 61.4753 95.6725 61.5074 95.6725C61.379 95.7047 61.2184 95.7047 61.09 95.7368C61.1542 95.7368 61.1863 95.7368 61.2505 95.7368C61.1221 95.7047 60.9615 95.7047 60.8331 95.6725C60.8973 95.6725 60.9936 95.7047 61.0578 95.7368C60.9294 95.6725 60.8009 95.6404 60.6725 95.5761C60.8331 95.6404 60.9615 95.7047 61.09 95.8011C60.9936 95.7047 60.8652 95.6404 60.7688 95.5439C60.9936 95.7047 61.2184 95.9298 61.4111 96.1548C61.3147 96.0584 61.2505 95.9297 61.1542 95.8333C61.2505 95.9619 61.3469 96.0584 61.4111 96.2191C61.3469 96.0905 61.3147 95.9619 61.2505 95.8333C61.2826 95.9297 61.3147 95.9941 61.3147 96.0905C61.2826 95.9619 61.2826 95.8011 61.2505 95.6725C61.2505 95.7047 61.2505 95.769 61.2505 95.8011C61.2826 95.6725 61.2826 95.5117 61.3147 95.3831C61.3147 95.4153 61.3147 95.4796 61.2826 95.5117C61.3469 95.3831 61.3789 95.2545 61.4432 95.1259C61.4111 95.1581 61.4111 95.2223 61.379 95.2545C61.4753 95.158 61.5395 95.0294 61.6359 94.933C61.6037 94.9973 61.5395 95.0294 61.4753 95.0937C61.5716 94.9973 61.7001 94.933 61.7964 94.8365C61.7322 94.8687 61.668 94.9008 61.6037 94.933C61.7322 94.8687 61.8606 94.8365 61.9891 94.7722C61.9249 94.8044 61.8606 94.8044 61.7964 94.8365C61.9249 94.8044 62.0854 94.8044 62.2139 94.7722C62.1818 94.7722 62.1175 94.7722 62.0854 94.7722C62.2139 94.8044 62.3744 94.8044 62.5029 94.8365C62.4708 94.8365 62.4387 94.8043 62.3744 94.8043C62.5029 94.8687 62.6313 94.9008 62.7598 94.9651C62.6956 94.933 62.6313 94.9008 62.5671 94.8687C62.6635 94.9651 62.7919 95.0294 62.8882 95.1259C62.6634 94.9651 62.4708 94.74 62.2781 94.515C62.0533 94.2899 61.8606 94.0326 61.668 93.7754C61.7643 93.8719 61.8285 94.0005 61.9249 94.097C61.7322 93.8397 61.5074 93.5825 61.379 93.2931C61.4432 93.4217 61.4753 93.5503 61.5395 93.679C61.5074 93.6468 61.5074 93.5825 61.5074 93.5503C61.5395 93.679 61.5395 93.8397 61.5716 93.9684C61.5716 93.9362 61.5716 93.9362 61.5716 93.904C61.5395 94.0327 61.5395 94.1934 61.5074 94.3221C61.5074 94.3221 61.5074 94.322 61.5074 94.2899C61.4432 94.4185 61.4111 94.5471 61.3468 94.6757C61.3468 94.6436 61.379 94.6114 61.4111 94.5793C61.3147 94.6757 61.2505 94.8044 61.1542 94.9008C61.1542 94.8687 61.1863 94.8687 61.1863 94.8365C61.09 94.933 60.9615 94.9973 60.8652 95.0937C60.8973 95.0937 60.8973 95.0616 60.9294 95.0616C60.8009 95.1259 60.6725 95.1581 60.544 95.2224C60.5762 95.2224 60.5762 95.1902 60.6083 95.1902C60.4798 95.2224 60.3193 95.2223 60.1908 95.2545C60.2229 95.2545 60.2229 95.2545 60.255 95.2545C60.1266 95.2223 59.966 95.2224 59.8376 95.1902C59.8697 95.1902 59.9018 95.1902 59.9018 95.2224C59.7734 95.1581 59.6449 95.1259 59.5165 95.0616C59.5807 95.0937 59.6128 95.1259 59.6449 95.158C59.5486 95.0616 59.4201 94.9973 59.3238 94.9008C59.4522 94.9973 59.5486 95.0937 59.6449 95.2224C59.5486 95.1259 59.4843 94.9973 59.388 94.9008C59.5807 95.1259 59.7091 95.3831 59.8697 95.6082C60.0624 95.9619 60.4477 96.2191 60.8331 96.3156C61.2184 96.4121 61.7322 96.3478 62.0533 96.1227C62.4065 95.8976 62.6956 95.576 62.7598 95.158C62.7277 94.5793 62.6955 94.1291 62.4708 93.7754Z" fill="black"/>
<path d="M49.0158 117.988C49.5938 117.827 50.1718 117.698 50.7498 117.602C50.8783 117.57 51.0067 117.57 51.1352 117.537C51.2315 117.537 51.2957 117.505 51.3921 117.505C51.3278 117.505 51.2636 117.537 51.2315 117.537C51.5205 117.473 51.8095 117.473 52.1307 117.441C52.6766 117.377 53.2224 117.344 53.7684 117.377C53.8968 117.377 54.0253 117.377 54.1537 117.377C54.2822 117.377 54.2179 117.377 53.9931 117.344C54.0574 117.344 54.1216 117.377 54.2179 117.377C54.3143 117.409 54.4106 117.441 54.5391 117.441C54.6996 117.505 54.6675 117.473 54.4748 117.409C54.539 117.441 54.6033 117.473 54.6996 117.505C54.9565 116.508 55.2134 115.512 55.4703 114.483C55.4382 114.483 55.4061 114.483 55.3419 114.483C54.5069 114.418 53.7041 115.319 53.7684 116.123C53.8326 117.055 54.5069 117.634 55.4061 117.698C55.4382 117.698 55.4703 117.698 55.5345 117.698C56.2089 117.762 56.9154 117.119 57.0759 116.476C57.2044 115.801 56.9475 114.997 56.3052 114.676C55.0528 114.033 53.6399 114.033 52.2591 114.161C50.8783 114.29 49.5296 114.547 48.213 114.869C47.4102 115.062 46.8643 116.058 47.1212 116.862C47.3138 117.73 48.1488 118.213 49.0158 117.988Z" fill="black"/>
<path d="M26.1841 148.662C25.3171 149.595 24.4822 150.527 23.8078 151.621C23.1335 152.714 22.5875 153.936 22.1059 155.125C21.5921 156.347 21.0783 157.633 20.8856 158.952C20.7893 159.659 20.7572 160.334 20.6608 161.042C20.5966 161.685 20.3718 162.328 20.4039 163.003C20.5003 165.061 23.6151 165.029 23.6151 162.939C23.6151 162.875 23.6151 162.842 23.6151 162.778C23.6151 160.72 20.4039 160.752 20.4039 162.842C20.4039 162.907 20.4039 162.939 20.4039 163.003C21.4636 162.971 22.5554 162.971 23.6151 162.939C23.583 162.392 23.7757 161.749 23.8399 161.203C23.9041 160.72 23.9041 160.238 23.9684 159.756C24.1289 158.63 24.5464 157.537 24.996 156.476C25.4455 155.415 25.9593 154.289 26.5695 153.293C27.1154 152.424 27.7897 151.653 28.4962 150.913C29.9091 149.402 27.597 147.151 26.1841 148.662Z" fill="black"/>
<path d="M13.4998 160.881C14.7522 161.524 16.0045 162.167 17.289 162.778C17.867 163.035 18.413 163.293 18.991 163.55C19.2479 163.646 19.5048 163.775 19.7617 163.936C19.8259 163.968 19.8901 164 19.9543 164.064C19.7617 163.936 19.7617 163.904 19.8901 164.032C19.9865 164.129 20.1149 164.225 20.2112 164.354C20.9498 163.582 21.6884 162.81 22.427 162.039C22.3949 162.006 22.3306 161.942 22.2985 161.91C21.7205 161.299 20.5966 161.299 20.0186 161.942C19.4406 162.617 19.4405 163.582 20.0507 164.225C20.0828 164.257 20.147 164.322 20.1791 164.354C20.7571 164.965 21.8811 164.965 22.4591 164.322C23.0692 163.646 23.0371 162.714 22.427 162.039C21.4957 161.042 20.1791 160.656 18.991 160.077C17.6744 159.434 16.3899 158.759 15.0733 158.116C14.3347 157.73 13.275 157.923 12.8897 158.727C12.5043 159.434 12.697 160.495 13.4998 160.881Z" fill="black"/>
<path d="M71.141 138.47C68.6041 142.65 66.549 147.183 64.7186 151.717C63.8516 153.871 63.0488 156.058 62.4065 158.276C61.9891 159.691 60.4798 164.547 63.5947 164.225C64.4938 164.129 65.1039 163.518 65.1682 162.585C65.2003 162.264 65.136 162.006 65.0397 161.685C65.0076 162.103 64.9434 162.521 64.9113 162.939C64.9434 162.875 64.9755 162.778 65.0076 162.714C65.3287 161.91 65.2003 161.01 64.3975 160.527C63.7231 160.141 62.535 160.334 62.2138 161.138C61.9891 161.717 62.0212 162.071 61.9891 162.649C62.5029 162.103 63.0488 161.556 63.5625 161.01C63.98 161.363 64.4296 161.685 64.847 162.039C64.847 161.813 64.847 161.781 64.847 161.942C64.7507 162.071 64.9434 161.363 64.9755 161.235C65.1039 160.624 65.2645 160.045 65.4251 159.466C65.682 158.566 65.9388 157.666 66.2279 156.797C66.9022 154.836 67.6408 152.939 68.4757 151.042C70.0813 147.28 71.8475 143.55 73.9669 140.045C75.0266 138.277 72.2007 136.701 71.141 138.47Z" fill="black"/>
<path d="M62.246 160.656C61.9569 160.559 61.668 160.463 61.4111 160.334C61.2826 160.27 61.122 160.238 60.9936 160.174C60.833 160.109 60.8651 160.109 61.0578 160.206C60.9936 160.174 60.9294 160.141 60.833 160.109C60.2871 159.884 59.7733 159.659 59.2274 159.37C58.7136 159.112 58.1998 158.823 57.686 158.534C57.4934 158.405 57.3007 158.309 57.0759 158.18C56.8511 158.019 57.3971 158.437 57.0759 158.148C56.9796 158.019 57.0117 158.051 57.1723 158.276C57.1402 158.244 57.108 158.18 57.108 158.116C57.0438 158.759 56.9475 159.402 56.8832 160.077C56.9154 160.045 56.9475 159.981 56.9796 159.948C57.2365 159.595 57.4291 159.273 57.4291 158.791C57.4291 158.405 57.2365 157.923 56.9475 157.666C56.3373 157.151 55.2455 156.99 54.6675 157.698C54.6354 157.73 54.6033 157.794 54.5712 157.826C54.3464 158.116 54.1858 158.373 54.1537 158.759C54.1216 159.145 54.1858 159.434 54.3464 159.788C54.6354 160.431 55.2776 160.849 55.8557 161.202C56.4016 161.524 56.9475 161.846 57.5255 162.135C58.7779 162.778 60.0945 163.293 61.4111 163.743C62.2139 164.032 63.2093 163.389 63.3699 162.585C63.5947 161.685 63.113 160.945 62.246 160.656Z" fill="black"/>
<path d="M120.272 91.2995C123.58 92.5213 126.727 94.6113 129.617 96.6049C131.062 97.6017 132.443 98.6949 133.76 99.8524C134.305 100.335 134.883 100.753 135.205 101.171C135.75 101.846 136.361 102.296 137.26 102.328C138.223 102.36 139.186 101.203 138.769 100.27C138.673 100.013 138.544 99.756 138.416 99.5309C137.452 97.6981 134.691 99.3701 135.686 101.203C136.2 100.528 136.682 99.8203 137.196 99.1451C137.163 99.1451 137.099 99.1451 137.067 99.1451C137.324 99.2094 137.613 99.2737 137.87 99.338C137.741 99.2737 137.741 99.2737 137.645 99.1451C137.452 98.8878 137.26 98.6628 137.035 98.4377C136.361 97.8267 135.654 97.248 134.948 96.6692C133.535 95.5116 132.058 94.4184 130.548 93.3895C127.562 91.3959 124.447 89.4667 121.075 88.2127C120.272 87.9233 119.309 88.5985 119.116 89.3702C118.892 90.2384 119.47 90.9779 120.272 91.2995Z" fill="black"/>
<path d="M139.315 102.264C140.921 102.007 142.077 101.75 143.682 101.621C144.421 101.557 145.159 101.525 145.93 101.557C146.315 101.589 146.701 101.621 147.086 101.653C147.118 101.653 147.6 101.718 147.279 101.653C147.343 101.653 147.889 101.814 147.632 101.718C148.403 102.039 149.398 101.943 149.816 101.107C150.169 100.399 150.04 99.2417 149.205 98.9201C148.274 98.5343 147.343 98.47 146.347 98.4057C145.48 98.3413 144.646 98.3413 143.779 98.4057C141.98 98.5343 140.182 98.888 138.384 99.1773C137.549 99.306 137.035 100.431 137.292 101.171C137.613 102.103 138.416 102.425 139.315 102.264Z" fill="black"/>
<path d="M79.3617 22.8756C78.3983 18.6313 77.7561 14.3548 78.0772 10.014C78.2056 8.4063 78.3341 6.18766 79.5865 5.03011C80.7746 3.93687 82.8298 3.74394 84.3391 3.51886C85.4309 3.32594 86.5227 3.3581 87.6145 3.22949C87.9356 3.19733 88.2246 3.16518 88.5457 3.13303C88.7063 3.13303 88.8669 3.10087 89.0274 3.10087C89.3164 3.10087 89.5091 3.19733 89.4128 3.10087C89.2843 2.9401 89.3807 3.3581 89.3807 3.45457C89.3485 3.74395 89.3486 4.00117 89.2843 4.32272C89.1559 4.99795 88.899 5.6732 88.6421 6.31628C87.1649 9.94969 85.2703 13.3902 83.4399 16.8628C82.4766 18.6956 81.5132 20.5605 80.8067 22.5219C80.582 23.1972 80.036 24.001 79.8755 24.6763C79.8755 24.7406 79.6507 24.9014 79.6507 24.9335C80.2929 24.9657 80.4535 24.9013 80.1966 24.7406C80.1324 24.7084 80.0682 24.6441 80.0039 24.612C79.7149 24.3226 79.1369 24.194 78.7516 24.0975C79.1369 24.4512 79.5222 24.837 79.9076 25.1907C79.8755 25.0943 79.8755 24.9656 79.8434 24.8692C79.4259 22.8435 76.3432 23.776 76.7606 25.7695C76.7927 25.866 76.7927 25.9946 76.8248 26.0911C76.9212 26.6055 77.4671 27.12 77.9809 27.1843C78.7837 27.3129 79.2975 28.0203 80.1966 27.9881C81.2884 27.9238 82.1233 27.1521 82.7013 26.284C83.7932 24.6441 84.1785 22.5862 85.0776 20.8499C87.3255 16.3483 89.8623 12.0397 91.7569 7.37737C92.4313 5.73751 93.1056 3.74394 92.4313 2.00762C91.5964 -0.211015 89.4128 -0.0823941 87.4539 0.0783764C85.0134 0.271301 82.4444 0.399919 80.1324 1.23593C77.8203 2.07193 76.3432 3.67965 75.6367 5.99474C74.8018 8.63138 74.8339 11.686 74.9623 14.4191C75.1229 17.6024 75.7009 20.7213 76.4074 23.8081C76.7285 25.8017 79.8113 24.8692 79.3617 22.8756Z" fill="black"/>
</g>
</g>
<defs>
<clipPath id="clip0_1201_2766">
<rect width="150" height="164.808" fill="white"/>
</clipPath>
</defs>
</svg>
