<svg width="280" height="180" viewBox="0 0 280 180" fill="none" xmlns="http://www.w3.org/2000/svg">
<g clip-path="url(#clip0_747_1983)">
<path d="M97.8926 144.351C100.234 144.906 102.517 143.122 103.893 141.134C106.118 137.859 106.967 133.677 105.357 128.502C106.762 127.917 107.493 126.396 108.108 124.993C109.484 121.747 110.742 118.355 110.889 114.816C111.035 111.278 109.864 107.535 105.093 103.997C107.903 101.599 109.542 97.8854 109.396 94.201C109.25 90.5165 107.318 86.949 104.332 84.7851L102.488 80.0772C100.439 74.1119 96.0778 68.9654 90.4871 66.0119C84.8964 63.0585 78.1934 62.2982 72.105 63.9358C68.6511 60.1051 63.4116 57.9705 58.2892 58.3214C53.1668 58.643 48.2201 61.4502 45.3223 65.6903L39.7608 67.6202C37.6826 67.3863 35.6922 68.4098 33.9067 69.4917C30.8332 71.334 27.8769 73.4978 25.6816 76.3051C23.4863 79.1123 22.052 82.6797 22.374 86.2472L22.052 93.4407C19.564 93.6161 17.4272 95.5461 16.4027 97.827C15.3783 100.108 15.2612 102.681 15.4661 105.167C15.5832 106.892 15.8466 108.646 16.7833 110.109C17.7199 111.571 19.4176 112.653 21.1153 112.36C18.0712 116.249 16.6076 121.337 17.1345 126.25C17.6614 131.163 19.7689 136.338 23.9253 138.999C27.672 141.397 30.804 140.9 31.7406 140.871L32.1797 141.222C31.0381 144.818 32.2675 149.088 35.1653 151.515C38.0631 153.942 42.483 154.41 45.8199 152.626C48.5128 156.164 52.8449 158.416 57.294 158.591C61.7432 158.767 66.2509 156.866 69.2365 153.562C72.3392 155.17 75.7054 156.808 79.1593 156.398C81.2375 156.135 83.1694 155.141 84.9549 154.03C87.3551 152.538 89.609 150.871 91.7165 149" fill="#B8A7FF"/>
<path d="M17.3098 76.8022C12.5386 74.2874 8.20655 70.9831 4.57697 67.0062C2.38166 64.5792 5.39655 61.8012 6.80155 59.725C7.44551 58.76 8.00165 57.0055 9.49446 57.1225C10.4019 57.181 10.8409 58.2045 11.3093 58.8478C12.1581 60.0759 12.8899 61.3918 13.6509 62.6492C15.6121 66.012 17.5439 69.521 19.1538 73.03C19.4758 73.7318 20.8515 75.3694 19.8271 75.9542" fill="#A8D5CA"/>
<path d="M32.1208 141.222C30.9793 144.818 32.2086 149.088 35.1065 151.515C38.0043 153.942 42.4241 154.41 45.761 152.626C48.4539 156.164 52.786 158.416 57.2352 158.591C61.6843 158.767 66.192 156.866 69.1777 153.562C72.2804 155.17 75.6465 156.808 79.1004 156.398C81.1787 156.135 83.1106 155.141 84.8961 154.03C87.2963 152.538 89.5501 150.871 91.6576 149" stroke="black" stroke-width="2.99851" stroke-miterlimit="10" stroke-linecap="round" stroke-linejoin="round"/>
<path d="M45.2637 65.6611C48.1908 61.421 53.1082 58.6431 58.2306 58.2922C63.353 57.9705 68.6218 60.0759 72.0465 63.9066C78.1348 62.2691 84.8671 63.0293 90.4285 65.9828C95.99 68.9362 100.381 74.0827 102.43 80.0481" stroke="black" stroke-width="2.99851" stroke-miterlimit="10" stroke-linecap="round" stroke-linejoin="round"/>
<path d="M22.3446 86.2181C22.0226 82.6506 23.4276 79.0831 25.6522 76.2759C27.8475 73.4686 30.8039 71.3048 33.8773 69.4625C35.6628 68.3806 37.6532 67.3571 39.7315 67.5911" stroke="black" stroke-width="2.99851" stroke-miterlimit="10" stroke-linecap="round" stroke-linejoin="round"/>
<path d="M22.0227 93.4116C19.5347 93.5871 17.3979 95.517 16.3734 97.7979C15.349 100.079 15.2319 102.652 15.4368 105.138C15.5539 106.863 15.8173 108.617 16.754 110.079C17.6906 111.541 19.3883 112.623 21.086 112.331C18.0419 116.22 16.5783 121.308 17.1052 126.221C17.6321 131.133 19.7396 136.309 23.896 138.97C27.6427 141.368 30.7747 140.871 31.7113 140.842" stroke="black" stroke-width="2.99851" stroke-miterlimit="10" stroke-linecap="round" stroke-linejoin="round"/>
<path d="M18.0125 75.5155C15.1439 73.9949 12.4218 72.2112 9.93374 70.135C8.67509 69.0823 7.50426 67.9711 6.3627 66.8014C5.42603 65.8365 4.89917 65.2224 5.57239 63.9357C6.18708 62.7661 7.06519 61.7718 7.82623 60.7191C8.11894 60.2805 8.38238 59.8419 8.61655 59.4033C8.73363 59.2278 8.96781 58.643 9.23124 58.5552C9.31906 58.526 9.34832 58.5845 9.4654 58.76C9.61176 58.9646 9.75811 59.1986 9.87519 59.4033C10.3728 60.1343 10.8411 60.8653 11.3095 61.6256C12.2461 63.1754 13.1535 64.7837 14.0317 66.3628C15.0269 68.1465 15.9635 69.9303 16.8709 71.7433C17.2807 72.5328 17.6027 73.3808 18.0417 74.1703C18.1881 74.4335 18.3345 74.6675 18.4808 74.9014C18.5394 74.9891 18.5686 75.1061 18.6272 75.1938C18.9784 75.6617 17.8076 75.5447 19.0077 74.6967C17.4856 75.7786 18.9784 78.2934 20.5298 77.1822C22.1104 76.0711 21.5835 74.4043 20.7639 72.9714C19.7395 71.2169 18.9491 69.287 17.9832 67.5032C16.9002 65.4271 15.7294 63.4094 14.5585 61.3917C14.0317 60.4852 13.5048 59.5495 12.9194 58.6722C12.4218 57.9119 11.9534 57.0347 11.2802 56.4206C9.963 55.1632 8.00187 55.5141 6.8603 56.8007C6.3627 57.3563 6.06999 57.9997 5.68947 58.643C5.33822 59.3155 4.84062 59.8711 4.40156 60.4852C3.37708 61.8596 2.29406 63.3801 2.32333 65.1639C2.35261 67.1231 3.87469 68.4682 5.19187 69.7548C8.55801 73.0592 12.4218 75.8664 16.6075 78.0595C18.2466 78.966 19.6809 76.3927 18.0125 75.5155Z" fill="black"/>
<path d="M101.405 148.269C102.898 149.819 104.361 151.369 105.766 152.977C106.937 154.293 108.196 155.638 109.074 157.188C109.425 157.802 109.747 158.445 110.245 158.971C111.006 159.761 112.089 159.79 113.026 159.322C113.757 158.972 114.518 159.001 115.28 158.708C116.011 158.416 116.714 157.773 117.504 157.773C117.475 156.808 117.475 155.813 117.446 154.848C117.241 154.848 117.006 154.848 116.802 154.848C114.928 154.819 114.958 157.743 116.86 157.773C117.065 157.773 117.299 157.773 117.504 157.773C119.377 157.685 119.348 154.848 117.446 154.848C116.48 154.848 115.689 155.199 114.87 155.667C114.167 156.047 113.611 156.047 112.85 156.223C112.557 156.31 111.884 156.457 111.679 156.72C111.474 156.837 111.679 156.895 112.323 156.895C112.294 156.866 112.265 156.837 112.235 156.808C112.235 156.925 112.148 156.661 112.089 156.574C111.767 156.047 111.504 155.492 111.182 154.965C110.157 153.386 108.781 151.953 107.552 150.55C106.206 149.059 104.83 147.596 103.454 146.164C102.108 144.789 100.088 146.895 101.405 148.269Z" fill="black"/>
<path d="M63.9971 157.977C63.2653 163.299 62.0067 168.475 62.0652 173.885C62.0652 174.879 61.8311 176.107 62.1238 177.072C62.4165 178.008 63.2653 178.564 64.1435 178.856C64.9338 179.148 65.8119 179.236 66.6315 179.295C67.3633 179.353 68.5048 178.973 69.178 179.265C70.0562 179.645 71.0221 179.324 71.3148 178.359C71.3441 178.3 71.3441 178.242 71.3733 178.213C71.9002 176.4 69.0902 175.698 68.5341 177.482C68.5048 177.54 68.5048 177.599 68.4755 177.628C69.178 177.335 69.9098 177.014 70.6123 176.721C69.0902 176.078 67.5682 176.546 65.9875 176.312C65.607 176.253 65.285 176.136 64.9338 176.049C64.846 176.019 64.6703 175.815 64.7874 175.99C64.963 176.253 64.8752 176.078 64.9338 175.873C65.1679 174.879 64.9631 173.739 64.9631 172.715C64.9923 167.978 66.1632 163.358 66.8071 158.708C66.9242 157.919 66.5729 157.159 65.7534 156.925C65.0801 156.749 64.0849 157.188 63.9971 157.977Z" fill="black"/>
<path d="M14.4415 122.829C10.8704 123.618 7.56281 125.11 4.37229 126.864C2.87948 127.683 1.5623 128.677 0.537826 130.052C0.010952 130.753 -0.223215 131.718 0.274389 132.508C0.976888 133.619 2.35261 133.385 3.17219 132.566C4.48938 131.221 2.38189 129.174 1.0647 130.549C1.15251 130.519 1.21105 130.461 1.29886 130.432C1.5623 130.432 1.82574 130.432 2.08917 130.432C2.0599 130.432 2.03064 130.432 2.00137 130.402C2.20626 130.519 2.44043 130.636 2.64533 130.753C2.73314 131.104 2.82094 131.426 2.90875 131.777C2.93802 131.718 2.9673 131.689 2.99657 131.631C3.02584 131.601 3.08438 131.514 3.14292 131.455C3.31855 131.25 3.49417 131.046 3.6698 130.87C4.02105 130.519 4.43084 130.227 4.84064 129.964C5.86511 129.32 6.94812 128.794 8.03114 128.239C10.3143 127.04 12.7437 126.192 15.261 125.636C16.0221 125.461 16.4611 124.554 16.2562 123.823C16.0221 123.004 15.2025 122.653 14.4415 122.829Z" fill="black"/>
<path d="M110.449 50.5431C110.713 51.5081 111.006 52.5023 111.269 53.4673C111.474 54.2568 111.854 54.9294 112.118 55.6897C112.235 55.2218 112.352 54.7247 112.469 54.2568C111.357 55.3388 110.069 56.1868 109.044 57.3564C108.079 58.4676 107.23 59.725 106.41 60.9532C104.654 63.5557 102.956 66.1582 101.961 69.1701C102.927 69.2871 103.893 69.404 104.829 69.521C104.829 69.4333 104.829 69.3456 104.859 69.2578C105.005 67.3864 102.078 67.4448 101.932 69.3163C101.932 69.404 101.932 69.4918 101.902 69.5795C101.785 71.3048 104.303 71.3925 104.771 69.9304C105.678 67.1817 107.347 64.7839 108.927 62.4153C109.659 61.3041 110.42 60.1929 111.328 59.1987C112.294 58.1167 113.494 57.3272 114.547 56.333C114.899 55.9821 115.045 55.368 114.899 54.9001C114.664 54.1398 114.284 53.4673 114.05 52.6778C113.786 51.7128 113.494 50.7186 113.23 49.7536C112.762 47.8821 109.952 48.7301 110.449 50.5431Z" fill="black"/>
<path d="M85.2183 113.121C85.8915 113.793 86.6232 114.407 87.2965 115.08C87.8819 115.665 88.2332 116.162 88.7015 116.834C88.9942 117.214 89.3162 117.565 89.6674 117.916C89.9308 118.179 90.1065 118.501 90.3992 118.823C91.1602 119.671 92.4189 119.817 93.2092 118.91C93.619 118.443 93.7653 117.799 93.736 117.185C93.736 117.01 93.7068 116.834 93.6775 116.688C93.6775 116.63 93.6775 116.162 93.6775 116.337C93.7361 115.869 93.8531 115.401 93.9117 114.934C93.9702 114.436 94.0288 113.881 94.0873 113.413C94.2044 112.448 94.1166 111.454 94.2629 110.518C94.4385 109.436 94.4386 108.383 94.4386 107.301C94.4386 106.512 93.7361 105.839 92.9457 105.869C92.1262 105.869 91.5115 106.57 91.5115 107.36C91.5115 108.266 91.5115 109.114 91.3944 109.992C91.3066 110.489 91.248 111.015 91.248 111.542C91.248 111.922 91.2773 112.331 91.248 112.711C91.1602 113.618 91.0431 114.436 90.8968 115.284C90.809 115.752 90.7504 116.22 90.7504 116.688C90.7504 116.864 90.7504 117.068 90.809 117.273C90.809 117.448 90.809 117.478 90.8382 117.302C91.0724 117.01 91.1017 116.951 90.926 117.068C91.1309 116.951 91.3651 116.805 91.57 116.688C92.3896 116.396 92.8579 117.244 92.4189 116.747C92.6238 116.98 92.331 116.6 92.3018 116.571C92.0676 116.249 91.8042 115.957 91.5115 115.665C91.3944 115.548 91.248 115.401 91.1309 115.284C91.3066 115.46 91.0724 115.226 91.0431 115.167C90.8675 114.904 90.6919 114.641 90.487 114.407C89.521 113.179 88.321 112.214 87.2379 111.103C85.9208 109.699 83.8718 111.805 85.2183 113.121Z" fill="black"/>
<path d="M86.2722 112.185C87.7357 111.571 89.17 110.898 90.5165 110.079C91.0433 109.758 91.5702 109.465 92.0971 109.202C92.7703 108.851 93.385 108.383 93.7655 107.711C94.3509 106.687 93.5313 105.576 92.4776 105.547C91.7165 105.518 91.1311 105.956 90.7213 106.57C90.2823 107.214 90.6335 108.237 91.2775 108.559C92.0385 108.939 92.7996 108.676 93.2679 108.003C93.1508 108.237 92.9459 108.383 92.6825 108.412C92.3898 108.471 92.3312 108.5 92.5069 108.5C92.0678 107.769 91.6287 107.038 91.2189 106.336C91.1311 106.512 91.2775 106.249 91.3068 106.249C91.2775 106.278 91.1897 106.366 91.1604 106.395C91.1311 106.424 90.9555 106.57 91.1311 106.424C91.3068 106.278 91.1312 106.424 91.1019 106.424C90.8677 106.57 90.6335 106.716 90.3994 106.833C89.8725 107.097 89.3749 107.389 88.8773 107.681C88.2919 108.003 87.7065 108.325 87.1211 108.617C86.7991 108.763 86.4771 108.91 86.1844 109.085C86.038 109.144 85.8917 109.231 85.7453 109.29C85.9502 109.202 85.8331 109.26 85.716 109.319C85.6282 109.348 85.5404 109.407 85.4233 109.436C85.0721 109.582 84.7501 109.758 84.5745 110.108C84.3989 110.43 84.3403 110.898 84.4574 111.249C84.6623 111.863 85.5112 112.506 86.2722 112.185Z" fill="black"/>
<path d="M84.1061 90.6335C84.1354 91.1599 84.1646 91.6862 84.2525 92.2126C84.2817 92.4465 84.3403 92.6804 84.4281 92.8851C84.5159 93.0898 84.6037 93.2945 84.7208 93.4992C84.7793 93.5869 84.8379 93.6746 84.9257 93.7624C84.9842 93.8501 85.0721 93.9378 85.1306 94.0256C85.5697 94.4057 86.1258 94.6689 86.7112 94.6104C86.9747 94.6104 87.2088 94.5227 87.443 94.4057C87.6479 94.2595 87.8235 94.084 87.9699 93.8793C88.1455 93.4407 88.3796 93.0021 88.4382 92.5635C88.4675 92.3588 88.4967 92.1833 88.4967 91.9786C88.4967 91.7739 88.4674 91.5692 88.4089 91.3645C88.3796 91.2768 88.3504 91.2184 88.3211 91.1306C88.2333 90.9259 88.1747 90.7505 88.0284 90.575C87.7064 90.1364 87.3552 89.8147 86.8868 89.5223C86.4478 89.2299 85.9209 89.0837 85.394 89.0544C85.3355 89.0544 85.2769 89.0544 85.1891 89.0544C85.0135 89.0837 84.8086 89.0837 84.633 89.1714C84.4573 89.2299 84.2817 89.2884 84.1354 89.4054C83.989 89.5223 83.8427 89.6101 83.7256 89.7563C83.4914 90.0487 83.3451 90.2534 83.2573 90.6335C83.2573 90.692 83.228 90.7212 83.228 90.7797C83.1987 90.9552 83.1694 91.1306 83.1694 91.3061C83.1694 91.8032 83.3451 92.2126 83.55 92.6512C83.6963 92.9728 83.9305 93.2653 84.1939 93.5285C84.2817 93.6454 84.3988 93.7331 84.5159 93.8209C84.6915 93.9671 84.8964 94.1425 85.1306 94.2302C85.3355 94.318 85.5696 94.4349 85.8038 94.4642C86.2136 94.5519 86.477 94.5227 86.8576 94.4642C87.2088 94.4057 87.5601 94.0548 87.7064 93.7916C87.882 93.47 87.9406 93.0021 87.8235 92.6512C87.7064 92.3003 87.4722 91.9494 87.1503 91.8032C87.0332 91.7447 86.9161 91.7155 86.799 91.657C86.5356 91.5985 86.2721 91.5985 86.0087 91.657H85.9794C86.0965 91.6277 86.2429 91.6277 86.36 91.5985C86.3014 91.5985 86.2429 91.5985 86.1551 91.5985C86.2721 91.6277 86.4185 91.6277 86.5356 91.657C86.4478 91.657 86.36 91.6277 86.2722 91.5985C86.3892 91.657 86.5063 91.6862 86.6234 91.7447C86.477 91.6862 86.36 91.6277 86.2429 91.54C86.3307 91.6277 86.4478 91.6862 86.5356 91.7739C86.36 91.657 86.2429 91.5108 86.0965 91.3645C86.1843 91.4523 86.2429 91.5693 86.3307 91.657C86.1843 91.4815 86.0965 91.3061 86.0087 91.1306C86.0672 91.2476 86.0965 91.3645 86.1551 91.4815C86.0965 91.3645 86.0673 91.2183 86.038 91.1014C86.0673 91.2183 86.0672 91.3645 86.0965 91.4815C86.0965 91.3938 86.0672 91.3061 86.0965 91.2183C86.0672 91.3353 86.0673 91.4815 86.038 91.5985C86.038 91.54 86.0672 91.4523 86.0965 91.3938C86.038 91.5108 86.0087 91.6277 85.9502 91.7447C85.9794 91.6862 86.0087 91.657 86.0087 91.6277C85.9209 91.7155 85.8624 91.8324 85.7746 91.9201C85.8038 91.8617 85.8624 91.8324 85.9209 91.7739C85.8331 91.8617 85.716 91.9201 85.6282 92.0079C85.6867 91.9786 85.716 91.9494 85.7746 91.9201C85.6575 91.9786 85.5404 92.0079 85.4233 92.0664C85.4818 92.0371 85.5404 92.0371 85.5989 92.0079C85.4818 92.0371 85.3355 92.0371 85.2184 92.0664C85.3062 92.0664 85.3648 92.0664 85.4526 92.0664C85.3355 92.0371 85.1891 92.0371 85.072 92.0079C85.1891 92.0371 85.3355 92.0663 85.4526 92.0956C85.3355 92.0371 85.2184 92.0079 85.1013 91.9494C85.2769 92.0079 85.4233 92.0956 85.5697 92.2126C85.4818 92.1248 85.3647 92.0663 85.2769 91.9786C85.4233 92.0956 85.5696 92.2126 85.6867 92.3588C85.5989 92.2711 85.5404 92.1541 85.4526 92.0664C85.5111 92.1541 85.5989 92.2418 85.6282 92.3588C85.5696 92.2418 85.5404 92.1248 85.4818 92.0079C85.5111 92.0956 85.5404 92.1833 85.5697 92.3003C85.5404 92.1833 85.5404 92.0371 85.5111 91.9201C85.5404 92.0371 85.5404 92.1248 85.5111 92.2418C85.5404 92.1248 85.5404 91.9786 85.5697 91.8617C85.5404 92.1248 85.4526 92.3588 85.3647 92.5927C85.4233 92.4757 85.4526 92.3588 85.5111 92.2418C85.4818 92.3295 85.4233 92.4172 85.394 92.505C85.8038 92.2418 86.2136 92.0079 86.6527 91.7447C86.5941 91.7447 86.5356 91.7447 86.477 91.7447C86.5941 91.7739 86.7405 91.7739 86.8576 91.8032C86.799 91.8032 86.7405 91.7739 86.7112 91.7739C86.8283 91.8324 86.9454 91.8617 87.0625 91.9201C87.0039 91.8909 86.9454 91.8617 86.9161 91.8324C87.0039 91.9201 87.121 91.9786 87.2088 92.0664C87.1503 92.0371 87.121 91.9786 87.0625 91.9201C87.1503 92.0079 87.2088 92.1248 87.2966 92.2126C87.2088 92.1248 87.1795 92.0079 87.121 91.9201C87.1795 92.0371 87.2088 92.1541 87.2673 92.2711C87.1503 92.0371 87.0917 91.7739 87.0625 91.4815C87.0917 91.5985 87.0917 91.7447 87.121 91.8617C87.0625 91.4815 87.0625 91.1014 87.0332 90.7212C87.0039 90.3411 86.8576 89.9609 86.5941 89.6978C86.3307 89.4346 85.9209 89.2591 85.5404 89.2884C85.1599 89.3176 84.7793 89.4346 84.5159 89.727C84.2525 89.8732 84.0768 90.2534 84.1061 90.6335Z" fill="black"/>
<path d="M97.8926 144.351C100.234 144.906 102.517 143.122 103.893 141.134C106.118 137.859 106.967 133.677 105.357 128.502C106.762 127.917 107.493 126.396 108.108 124.993C109.484 121.747 110.742 118.355 110.889 114.816C111.035 111.278 109.864 107.535 105.093 103.997C107.903 101.599 109.542 97.8855 109.396 94.201C109.25 90.5165 107.318 86.949 104.332 84.7852" stroke="black" stroke-width="2.99851" stroke-miterlimit="10" stroke-linecap="round" stroke-linejoin="round"/>
<path d="M200.692 30.6587C204.028 23.1728 222.381 21.9446 228.469 29.6937C239.329 28.0561 251.681 38.5247 246.383 49.5781C254.989 48.2622 260.345 67.1231 254.111 70.6321L256.16 78.4104C259.497 80.7205 262.394 84.0541 262.98 88.0895C263.565 92.0956 261.165 96.6865 257.184 97.4761C258.15 101.19 257.36 105.342 255.077 108.412C252.794 111.483 249.076 113.501 245.242 113.676C246.091 118.94 243.924 124.583 239.768 127.917C235.612 131.25 229.611 132.157 224.664 130.198L217.815 129.174C216.732 131.28 214.741 132.859 212.546 133.736C210.351 134.642 207.951 134.906 205.55 134.964C203.706 134.993 201.804 134.905 200.077 134.204C198.145 133.443 196.535 131.981 195.013 130.578C194.867 130.432 194.691 130.285 194.691 130.081C194.691 129.876 194.954 129.7 195.101 129.847L188.632 133.853C184.885 137.508 178.855 138.824 174.143 136.543C169.43 134.262 166.708 128.238 168.611 123.355C167.762 124.349 166.181 124.057 164.923 123.706C163.02 123.18 161.088 122.595 159.595 121.279C157.049 118.998 156.668 115.167 156.785 111.746C156.902 107.798 157.956 103.12 161.644 101.658L161.293 96.5695C157.956 94.1132 156.083 89.7855 156.639 85.6916C157.195 81.5978 160.093 77.8841 163.957 76.3928C159.186 69.3747 159.449 59.3448 164.542 52.59C166.24 50.3384 169.372 48.3207 171.772 49.8412C171.333 45.1041 173.031 40.2207 176.338 36.7994C179.646 33.3781 184.505 31.5359 189.247 31.8576L194.603 31.9453C196.711 31.9745 199.843 32.5594 200.692 30.6587Z" fill="#B8A7FF"/>
<path opacity="0.702" d="M216.322 20.3072C214.244 16.418 213.161 12.0317 213.19 7.61622C213.19 6.53428 213.278 5.42309 213.834 4.48736C214.829 2.76209 217.054 2.23574 219.015 1.97256C222.557 1.5047 226.128 1.35848 229.669 1.53393C230.489 2.79133 229.933 4.45812 229.318 5.86172C227.181 10.8621 225.045 15.8916 222.908 20.892C222.703 21.3891 222.527 22.0617 222.937 22.3833C223.084 22.5003 223.288 22.5588 223.376 22.7342C223.493 22.9389 223.259 23.2021 216.322 20.3072Z" fill="#83C3B3"/>
<path opacity="0.702" d="M189.247 31.8284C184.505 31.5067 179.646 33.3782 176.338 36.7702C173.031 40.1623 171.304 45.0749 171.772 49.8121C169.372 48.2915 166.269 50.2799 164.542 52.5608C159.449 59.3156 159.186 69.3456 163.957 76.3636C160.093 77.8549 157.166 81.5686 156.639 85.6625C156.083 89.7563 157.956 94.1133 161.293 96.5404" stroke="black" stroke-width="2.99851" stroke-miterlimit="10" stroke-linecap="round" stroke-linejoin="round"/>
<path opacity="0.702" d="M161.644 101.658C157.956 103.12 156.902 107.798 156.785 111.746C156.668 115.167 157.049 118.998 159.595 121.279C161.059 122.595 163.02 123.18 164.922 123.706C166.181 124.057 167.762 124.349 168.611 123.355C166.737 128.238 169.43 134.262 174.143 136.543C178.855 138.824 184.914 137.508 188.632 133.853" stroke="black" stroke-width="2.99851" stroke-miterlimit="10" stroke-linecap="round" stroke-linejoin="round"/>
<path opacity="0.702" d="M217.844 129.145C216.761 131.25 214.771 132.829 212.575 133.707C210.38 134.613 207.98 134.876 205.58 134.935C203.736 134.964 201.833 134.876 200.106 134.175C198.174 133.414 196.564 131.952 195.042 130.549C194.896 130.402 194.72 130.256 194.72 130.052C194.72 129.847 194.984 129.671 195.13 129.818" stroke="black" stroke-width="2.99851" stroke-miterlimit="10" stroke-linecap="round" stroke-linejoin="round"/>
<path opacity="0.702" d="M224.693 130.168C229.64 132.128 235.641 131.25 239.797 127.888C243.954 124.554 246.12 118.91 245.271 113.647C249.105 113.471 252.823 111.483 255.106 108.383C257.389 105.284 258.179 101.161 257.213 97.447C261.194 96.6574 263.594 92.0665 263.009 88.0604C262.423 84.0542 259.526 80.7207 256.189 78.3813" stroke="black" stroke-width="2.99851" stroke-miterlimit="10" stroke-linecap="round" stroke-linejoin="round"/>
<path opacity="0.702" d="M197.94 31.9746C201.013 26.8573 206.663 23.3483 212.634 22.9097C218.605 22.471 224.723 25.0735 228.499 29.6937C233.914 29.2844 239.651 30.8049 243.515 34.6356C247.378 38.4663 248.9 44.7532 246.412 49.5781C248.93 48.8178 251.447 50.7478 252.998 52.8825C256.423 57.5904 257.535 63.9066 255.925 69.4918C255.691 70.3105 254.725 71.3048 254.169 70.6322" stroke="black" stroke-width="2.99851" stroke-miterlimit="10" stroke-linecap="round" stroke-linejoin="round"/>
<path opacity="0.702" d="M216.322 20.3072C214.244 16.418 213.161 12.0317 213.19 7.61622C213.19 6.53428 213.278 5.42309 213.834 4.48736C214.829 2.76209 217.054 2.23574 219.015 1.97256C222.557 1.5047 226.128 1.35848 229.669 1.53393C230.489 2.79133 229.933 4.45812 229.318 5.86172C227.181 10.8621 225.045 15.8916 222.908 20.892C222.703 21.3891 222.527 22.0617 222.937 22.3833C223.084 22.5003 223.288 22.5588 223.376 22.7342C223.493 22.9389 223.259 23.2021 216.322 20.3072Z" stroke="black" stroke-width="2.99851" stroke-miterlimit="10" stroke-linecap="round" stroke-linejoin="round"/>
<g opacity="0.702">
<path d="M178.914 138.941C178.124 139.789 177.363 140.637 176.748 141.631C176.133 142.625 175.636 143.737 175.197 144.818C174.728 145.93 174.26 147.099 174.084 148.298C173.997 148.942 173.967 149.556 173.88 150.199C173.821 150.784 173.616 151.369 173.645 151.983C173.733 153.854 176.573 153.825 176.573 151.924C176.573 151.866 176.573 151.836 176.573 151.778C176.573 149.907 173.645 149.936 173.645 151.836C173.645 151.895 173.645 151.924 173.645 151.983C174.611 151.953 175.607 151.953 176.573 151.924C176.543 151.427 176.719 150.842 176.777 150.345C176.836 149.907 176.836 149.468 176.894 149.029C177.041 148.006 177.421 147.012 177.831 146.047C178.241 145.082 178.709 144.058 179.265 143.152C179.763 142.362 180.378 141.66 181.022 140.988C182.31 139.584 180.202 137.567 178.914 138.941Z" fill="black"/>
</g>
<g opacity="0.702">
<path d="M167.352 150.053C168.494 150.638 169.635 151.222 170.806 151.778C171.333 152.012 171.831 152.246 172.358 152.48C172.592 152.567 172.826 152.684 173.06 152.831C173.119 152.86 173.177 152.889 173.236 152.948C173.06 152.831 173.06 152.801 173.177 152.918C173.265 153.006 173.382 153.094 173.47 153.211C174.143 152.509 174.816 151.807 175.49 151.105C175.46 151.076 175.402 151.018 175.372 150.988C174.846 150.433 173.821 150.433 173.294 151.018C172.767 151.632 172.767 152.509 173.324 153.094C173.353 153.123 173.411 153.182 173.441 153.211C173.967 153.766 174.992 153.766 175.519 153.182C176.075 152.567 176.046 151.719 175.49 151.105C174.641 150.199 173.441 149.848 172.358 149.322C171.157 148.737 169.987 148.123 168.787 147.538C168.113 147.187 167.147 147.362 166.796 148.094C166.445 148.737 166.621 149.673 167.352 150.053Z" fill="black"/>
</g>
<g opacity="0.702">
<path d="M218.459 133.59C216.469 136.894 214.625 140.257 213.22 143.883C212.517 145.666 211.932 147.509 211.522 149.38C211.375 150.082 211.171 150.871 211.317 151.573C211.463 152.421 212.137 153.211 213.073 153.065C213.659 152.977 214.361 152.655 214.478 151.953C214.566 151.486 214.507 151.135 214.39 150.696C214.361 151.076 214.303 151.456 214.273 151.836C214.303 151.778 214.332 151.72 214.361 151.69C215.269 150.053 212.722 148.62 211.815 150.257C211.522 150.784 211.493 151.281 211.697 151.836C211.697 151.573 211.697 151.31 211.697 151.047C211.697 151.105 211.668 151.164 211.668 151.222C212.137 150.842 212.605 150.491 213.073 150.111C213.044 150.111 212.985 150.111 212.956 150.14C213.19 150.199 213.454 150.257 213.688 150.316C213.659 150.287 213.629 150.287 213.6 150.257C213.776 150.433 213.951 150.608 214.127 150.784C214.215 151.193 214.244 151.252 214.244 150.988C214.273 150.784 214.244 150.813 214.244 151.047C214.303 150.608 214.39 150.17 214.507 149.731C214.683 148.971 214.888 148.24 215.122 147.509C215.561 146.047 216.088 144.585 216.703 143.181C217.961 140.344 219.483 137.625 221.093 134.964C221.972 133.414 219.425 131.981 218.459 133.59Z" fill="black"/>
</g>
<g opacity="0.702">
<path d="M211.814 149.819C211.551 149.731 211.287 149.643 211.053 149.526C210.936 149.468 210.79 149.439 210.673 149.38C210.526 149.322 210.556 149.322 210.731 149.409C210.673 149.38 210.614 149.351 210.526 149.322C210.029 149.117 209.56 148.912 209.063 148.649C208.594 148.415 208.126 148.152 207.658 147.889C207.482 147.772 207.307 147.684 207.102 147.567C206.897 147.421 207.394 147.801 207.102 147.538C207.014 147.421 207.043 147.45 207.189 147.655C207.16 147.626 207.131 147.567 207.131 147.509C207.072 148.093 206.985 148.678 206.926 149.292C206.955 149.263 206.985 149.205 207.014 149.175C207.248 148.854 207.424 148.561 207.424 148.123C207.424 147.772 207.248 147.333 206.985 147.099C206.428 146.631 205.433 146.485 204.906 147.128C204.877 147.158 204.848 147.216 204.819 147.245C204.614 147.509 204.467 147.743 204.438 148.093C204.409 148.444 204.467 148.708 204.614 149.029C204.877 149.614 205.462 149.994 205.989 150.316C206.487 150.608 206.985 150.901 207.511 151.164C208.653 151.749 209.853 152.217 211.053 152.626C211.785 152.889 212.692 152.304 212.839 151.573C213.044 150.784 212.575 150.082 211.814 149.819Z" fill="black"/>
</g>
<g opacity="0.702">
<path d="M181.665 93.2652C181.724 92.9436 181.753 92.6219 181.724 92.3002C181.665 91.7446 181.49 91.2768 181.109 90.8674C180.963 90.7212 180.787 90.575 180.612 90.4873C180.114 90.1948 179.529 90.2533 179.031 90.5165C178.797 90.6335 178.592 90.8089 178.416 91.0136C177.743 91.8031 177.392 92.8851 177.421 93.9378C177.421 94.2302 177.48 94.5519 177.538 94.8443C177.567 94.9905 177.626 95.1074 177.685 95.2537C177.743 95.3706 177.802 95.5168 177.889 95.6338C178.065 95.897 178.299 96.1017 178.592 96.2186C178.885 96.3356 179.207 96.3648 179.558 96.2771C179.968 96.1601 180.377 95.9847 180.699 95.7215C181.139 95.3999 181.548 95.0197 181.782 94.5226C181.9 94.2594 182.046 93.9378 182.017 93.6454C181.987 93.3237 181.9 93.0313 181.724 92.7681C181.519 92.4757 181.256 92.2125 180.904 92.0371C180.524 91.8616 180.231 91.8031 179.821 91.7739C179.558 91.7739 179.265 91.8324 179.002 91.8616C178.68 91.9201 178.299 92.271 178.153 92.5342C177.977 92.8558 177.919 93.3237 178.036 93.6746C178.153 94.0255 178.387 94.3764 178.709 94.5226C178.826 94.5811 178.943 94.6103 179.06 94.6688C179.324 94.7273 179.587 94.7273 179.851 94.6688H179.88C179.763 94.6981 179.616 94.6981 179.499 94.7273C179.675 94.6981 179.821 94.6981 179.997 94.6981C179.88 94.6688 179.734 94.6688 179.616 94.6396C179.704 94.6396 179.763 94.6688 179.851 94.6981C179.734 94.6396 179.616 94.6103 179.499 94.5519C179.558 94.5811 179.616 94.6103 179.675 94.6396C179.587 94.5519 179.47 94.4934 179.382 94.4056C179.412 94.4349 179.47 94.4641 179.499 94.5226C179.412 94.4349 179.353 94.3179 179.265 94.2302C179.294 94.2887 179.324 94.3179 179.353 94.3764C179.294 93.9963 179.236 93.6161 179.177 93.2652C179.177 93.2945 179.148 93.3529 179.148 93.3822C179.207 93.2652 179.236 93.1482 179.294 93.0313C179.265 93.1482 179.207 93.236 179.119 93.3237C179.207 93.236 179.265 93.119 179.353 93.0313C179.265 93.1482 179.148 93.2652 179.002 93.3822C179.09 93.2945 179.207 93.236 179.294 93.1482C179.119 93.2945 178.943 93.4114 178.738 93.4992C178.855 93.4407 178.972 93.4114 179.09 93.3529C179.002 93.3822 178.885 93.4407 178.797 93.4699C179.353 93.6746 179.909 93.9085 180.465 94.1132C180.407 94.0547 180.377 93.967 180.348 93.9085C180.407 94.0255 180.436 94.1425 180.495 94.2594C180.436 94.1132 180.407 93.967 180.377 93.8208C180.407 93.9378 180.407 94.084 180.436 94.201C180.407 93.967 180.407 93.7038 180.436 93.4699C180.407 93.5869 180.407 93.7331 180.377 93.8501C180.407 93.5576 180.465 93.2652 180.582 93.0021C180.524 93.119 180.495 93.236 180.436 93.3529C180.524 93.1482 180.612 92.9728 180.729 92.7974C180.641 92.8851 180.582 93.002 180.495 93.0898C180.553 93.002 180.641 92.9143 180.729 92.8266C180.641 92.9143 180.524 92.9728 180.436 93.0605C180.495 93.002 180.553 92.9728 180.641 92.9436C180.143 92.9436 179.646 92.9728 179.177 92.9728C179.207 93.002 179.265 93.002 179.294 93.0313C179.207 92.9436 179.09 92.8851 179.002 92.7974C179.06 92.8266 179.119 92.8851 179.148 92.9436C179.06 92.8558 179.002 92.7389 178.914 92.6511C178.943 92.6804 178.972 92.7389 179.002 92.7974C178.943 92.6804 178.914 92.5634 178.855 92.4465C178.885 92.5342 178.914 92.5927 178.914 92.6804C178.885 92.5634 178.885 92.4172 178.855 92.3002C178.885 92.4464 178.885 92.5927 178.855 92.7681C178.885 92.6511 178.885 92.5049 178.914 92.388C178.914 92.4172 178.914 92.4757 178.885 92.5049C178.826 92.9143 178.826 93.2652 179.06 93.6161C179.236 93.9085 179.587 94.201 179.938 94.2594C180.319 94.3472 180.729 94.3179 181.051 94.084C181.285 93.967 181.607 93.6454 181.665 93.2652Z" fill="black"/>
</g>
<g opacity="0.702">
<path d="M198.642 90.5751C198.847 90.6043 199.052 90.6335 199.257 90.6335C199.403 90.6335 199.579 90.6043 199.725 90.5751C199.755 90.5751 199.784 90.5458 199.842 90.5458C200.311 90.3704 200.691 90.078 200.955 89.6393C200.984 89.6101 200.984 89.5809 201.013 89.5224C201.072 89.4054 201.13 89.2592 201.16 89.1422C201.189 89.0545 201.189 89.0253 201.189 88.9083C201.189 88.8498 201.218 88.7913 201.218 88.7036C201.189 88.5866 201.189 88.4404 201.16 88.3234C201.16 88.2942 201.16 88.2942 201.16 88.265C201.16 88.2357 201.16 88.2065 201.13 88.1773C201.072 87.9726 200.984 87.7679 200.896 87.5924C200.808 87.417 200.662 87.2708 200.545 87.1245C200.486 87.0661 200.399 87.0076 200.34 86.9491C200.252 86.8906 200.194 86.8321 200.106 86.8029C199.638 86.569 199.169 86.5397 198.672 86.6567C198.145 86.7736 197.647 87.1538 197.296 87.5632C196.886 88.031 196.593 88.5574 196.389 89.1422C196.301 89.4347 196.271 89.7271 196.242 90.0195C196.242 90.4289 196.359 90.809 196.535 91.1599C196.623 91.3353 196.74 91.4816 196.886 91.6278C196.915 91.657 196.945 91.6863 196.974 91.7155C197.091 91.8032 197.237 91.9202 197.354 92.0079C197.442 92.0664 197.53 92.0956 197.647 92.1249C197.735 92.1541 197.823 92.2126 197.94 92.2419C198.145 92.3003 198.32 92.3296 198.525 92.3003C199.052 92.2711 199.491 92.0664 199.872 91.7155C200.018 91.5985 200.106 91.4231 200.223 91.2769C200.252 91.2184 200.311 91.1599 200.34 91.0722C200.457 90.809 200.574 90.5458 200.604 90.2534C200.633 89.961 200.691 89.6393 200.662 89.3469C200.633 89.0545 200.604 88.7328 200.486 88.4697C200.34 88.0603 200.164 87.7679 199.901 87.4462C199.784 87.3 199.608 87.183 199.462 87.0953C199.316 86.9783 199.111 86.9198 198.935 86.8614C198.759 86.8029 198.555 86.7736 198.35 86.7736C198.262 86.7736 198.145 86.8029 198.057 86.8029C197.94 86.8321 197.852 86.8321 197.735 86.8614C197.53 86.9198 197.325 87.0076 197.15 87.1245C196.711 87.3877 196.447 87.8848 196.447 88.4112C196.447 88.6744 196.506 88.9668 196.593 89.23C196.681 89.4931 196.798 89.7271 196.915 89.961C196.857 89.844 196.828 89.7271 196.769 89.6101C196.828 89.7271 196.857 89.8733 196.886 90.0195C196.945 90.1949 197.032 90.3704 197.15 90.5166C197.267 90.6628 197.384 90.809 197.559 90.8967C197.881 91.0722 198.35 91.1307 198.701 91.0137C199.052 90.8967 199.403 90.6628 199.55 90.3411C199.608 90.2242 199.638 90.1072 199.696 89.9902C199.755 89.727 199.755 89.4639 199.696 89.2007C199.638 88.8498 199.462 88.5281 199.316 88.2357C199.374 88.3527 199.403 88.4697 199.462 88.5866C199.403 88.4404 199.345 88.3235 199.316 88.1773C199.345 88.2942 199.345 88.4404 199.374 88.5574C199.374 88.4989 199.374 88.4697 199.374 88.4112C199.14 88.8498 198.906 89.2592 198.672 89.6978C198.701 89.6686 198.759 89.6393 198.789 89.6393C198.672 89.6978 198.555 89.727 198.437 89.7855C198.525 89.7563 198.584 89.7271 198.672 89.7271C198.555 89.7563 198.408 89.7563 198.291 89.7855C198.35 89.7855 198.408 89.7855 198.467 89.7855C198.35 89.7563 198.203 89.7563 198.086 89.7271C198.145 89.7271 198.203 89.7563 198.262 89.7563C198.145 89.6978 198.028 89.6686 197.911 89.6101C197.969 89.6393 197.998 89.6686 198.057 89.6978C197.969 89.6101 197.852 89.5516 197.764 89.4639C197.823 89.4931 197.852 89.5516 197.911 89.6101C197.823 89.5224 197.764 89.4054 197.676 89.3177C197.735 89.4054 197.794 89.4931 197.823 89.5808C197.764 89.4639 197.735 89.3469 197.676 89.23C197.735 89.3762 197.794 89.5516 197.823 89.6978C197.794 89.5808 197.794 89.4346 197.764 89.3177C197.794 89.5224 197.794 89.7271 197.764 89.9318C197.794 89.8148 197.794 89.6686 197.823 89.5516C197.794 89.7271 197.764 89.8733 197.706 90.0195C197.764 89.9025 197.794 89.7856 197.852 89.6686C197.823 89.7563 197.764 89.844 197.706 89.9025C197.794 89.8148 197.852 89.6978 197.94 89.6101C197.911 89.6686 197.852 89.6978 197.823 89.7271C197.911 89.6393 198.028 89.5808 198.116 89.4931C198.086 89.5224 198.028 89.5516 197.998 89.5808C198.116 89.5224 198.233 89.4931 198.35 89.4346C198.32 89.4639 198.262 89.4639 198.233 89.4639C198.35 89.4347 198.496 89.4346 198.613 89.4054C198.555 89.4054 198.525 89.4054 198.467 89.4054C198.584 89.4346 198.73 89.4347 198.847 89.4639C198.789 89.4639 198.701 89.4346 198.642 89.4054C198.759 89.4639 198.877 89.4931 198.994 89.5516C198.935 89.5224 198.877 89.4931 198.818 89.4346C198.906 89.5224 199.023 89.5809 199.111 89.6686C199.052 89.6393 199.023 89.5809 198.994 89.5516C199.081 89.6393 199.14 89.7563 199.228 89.844C199.199 89.7855 199.169 89.7563 199.14 89.6978C199.199 89.8148 199.228 89.9318 199.286 90.0487C199.257 89.9902 199.228 89.9318 199.228 89.844C199.257 89.961 199.257 90.1072 199.286 90.2242C199.257 90.1072 199.257 90.0195 199.286 89.9025C199.257 90.0195 199.257 90.1657 199.228 90.2827C199.257 90.1072 199.286 89.961 199.374 89.7855C199.316 89.9025 199.286 90.0195 199.228 90.1364C199.316 89.9025 199.433 89.6978 199.579 89.5224C199.491 89.6101 199.433 89.7271 199.345 89.8148C199.462 89.6393 199.608 89.4931 199.784 89.3469C199.696 89.4347 199.579 89.4931 199.491 89.5808C199.579 89.4931 199.696 89.4346 199.784 89.4054C199.667 89.4639 199.55 89.4931 199.433 89.5516C199.491 89.5224 199.55 89.4931 199.638 89.4931C199.521 89.5224 199.374 89.5224 199.257 89.5516C199.316 89.5516 199.345 89.5516 199.403 89.5516C199.286 89.5224 199.14 89.5224 199.023 89.4931C199.052 89.4931 199.111 89.4931 199.14 89.5224C199.023 89.4639 198.906 89.4346 198.789 89.3762C198.818 89.3762 198.847 89.4054 198.877 89.4346C198.789 89.3469 198.672 89.2884 198.584 89.2007C198.613 89.2299 198.642 89.2592 198.701 89.2884C198.613 89.2007 198.555 89.0837 198.467 88.996C198.496 89.0545 198.555 89.113 198.584 89.1715C198.525 89.0545 198.496 88.9375 198.437 88.8206C198.496 88.9375 198.525 89.0253 198.525 89.1422C198.525 88.8791 198.525 88.6159 198.525 88.3527C198.525 88.3819 198.525 88.3819 198.496 88.4112C198.555 88.2942 198.584 88.1772 198.642 88.0603C198.613 88.1188 198.584 88.1773 198.555 88.2065C198.642 88.1188 198.701 88.0018 198.789 87.9141C198.759 87.9433 198.73 87.9726 198.701 88.0018C198.789 87.9141 198.906 87.8556 198.994 87.7679C198.964 87.7971 198.935 87.7971 198.906 87.8263C199.023 87.7679 199.14 87.7386 199.257 87.6801C199.228 87.7094 199.169 87.7094 199.14 87.7094C199.257 87.6801 199.403 87.6801 199.521 87.6509C199.462 87.6509 199.374 87.6509 199.316 87.6509C199.433 87.6801 199.579 87.6801 199.696 87.7094C199.667 87.7094 199.638 87.7094 199.638 87.7094C199.433 87.6509 199.257 87.6509 199.052 87.6801C198.847 87.6801 198.672 87.7679 198.525 87.8556C198.233 88.031 197.94 88.3819 197.881 88.7329C197.794 89.113 197.823 89.5224 198.057 89.844C197.969 90.2242 198.291 90.5166 198.642 90.5751Z" fill="black"/>
</g>
<g opacity="0.702">
<path d="M186.495 103.909C189.364 102.681 192.262 101.541 195.247 100.664C196.389 100.313 197.56 100.02 198.731 99.6693C199.17 99.5231 199.609 99.3769 200.048 99.3184C199.901 99.3477 200.399 99.3184 200.458 99.3184C200.37 99.3184 200.311 99.3184 200.253 99.26C200.399 99.3477 200.399 99.3477 200.253 99.2015C200.018 98.9968 200.194 98.9675 200.165 99.143C200.136 99.3477 200.194 99.5816 200.194 99.7863C200.136 100.371 199.931 100.985 199.726 101.541C199.345 102.506 198.818 103.383 198.409 104.319C197.999 105.225 197.648 106.19 197.179 107.097C196.974 107.506 196.769 107.945 196.506 108.296C196.36 108.471 196.213 108.676 196.038 108.822C196.184 108.676 195.628 109.056 195.891 108.939C196.447 109.144 197.004 109.378 197.56 109.582C197.501 109.495 197.443 109.407 197.384 109.29C196.36 107.711 193.842 109.231 194.896 110.81C194.955 110.898 195.013 110.986 195.072 111.103C195.394 111.6 196.125 112.009 196.74 111.746C198.672 110.957 199.579 109.027 200.37 107.184C201.16 105.342 202.214 103.588 202.799 101.658C203.414 99.6109 203.297 96.6867 200.604 96.4528C199.696 96.365 198.818 96.6282 197.969 96.8914C196.974 97.213 195.921 97.4762 194.925 97.7686C191.793 98.7044 188.749 99.874 185.734 101.161C185.003 101.482 184.505 102.155 184.739 102.974C184.885 103.588 185.764 104.202 186.495 103.909Z" fill="black"/>
</g>
<g opacity="0.702">
<path d="M185.588 104.64C187.402 106.015 189.217 107.418 190.915 108.939C191.354 109.348 191.793 109.758 192.291 110.079C192.525 110.226 192.759 110.372 192.993 110.518C193.022 110.547 193.081 110.576 193.11 110.606C193.052 110.547 193.052 110.547 193.081 110.576C193.139 110.606 193.169 110.664 193.198 110.693C193.783 111.337 194.398 112.302 195.423 112.156C195.949 112.068 196.389 111.892 196.681 111.395C196.915 110.957 196.945 110.343 196.652 109.933C196.564 109.816 196.506 109.699 196.418 109.612C195.979 108.997 195.101 108.676 194.398 109.114C193.783 109.524 193.432 110.46 193.9 111.132C193.988 111.249 194.047 111.366 194.135 111.454C194.544 110.723 194.954 109.962 195.364 109.231C195.071 109.261 195.774 109.378 195.949 109.436C196.125 109.495 195.979 109.436 195.891 109.378C195.774 109.261 195.686 109.144 195.569 109.027C195.364 108.793 195.188 108.559 194.954 108.354C194.691 108.149 194.427 107.974 194.164 107.799C194.047 107.74 193.959 107.682 193.842 107.594C193.813 107.565 193.549 107.389 193.725 107.506C193.315 107.214 192.964 106.804 192.583 106.483C191.003 105.079 189.334 103.792 187.637 102.506C187.022 102.038 186.144 101.892 185.558 102.535C185.061 103.091 184.914 104.143 185.588 104.64Z" fill="black"/>
</g>
<g opacity="0.702">
<path d="M262.248 95.0784C263.916 96.0433 265.526 97.1253 267.048 98.3242C268.541 99.5231 269.888 100.897 271.38 102.096C272.054 102.623 272.698 102.944 273.576 102.915C274.073 102.886 274.542 102.827 275.01 102.798C275.595 102.74 276.181 102.71 276.766 102.71C277 102.71 276.795 102.71 276.942 102.71C277.059 102.74 277.176 102.798 277.293 102.798C277.527 102.798 277.322 102.857 277.205 102.71C277.352 102.944 277.147 102.623 277.117 102.564C277.674 104.377 280.484 103.558 279.927 101.745C279.459 100.196 277.82 99.7863 276.386 99.7863C275.771 99.7863 275.186 99.8448 274.571 99.9033C274.337 99.9325 274.073 99.9617 273.839 99.9617C273.693 99.9617 273.576 99.9617 273.429 99.991C273.371 99.991 273.283 99.991 273.224 100.02C273.605 100.137 273.693 100.137 273.488 100.02C273.341 99.7863 272.873 99.4939 272.639 99.2892C272.288 98.9383 271.907 98.6166 271.556 98.295C270.766 97.5932 269.946 96.8914 269.097 96.2188C267.37 94.8737 265.585 93.6163 263.711 92.5343C262.043 91.5694 260.609 94.1134 262.248 95.0784Z" fill="black"/>
</g>
</g>
<defs>
<clipPath id="clip0_747_1983">
<rect width="280" height="179.421" fill="white"/>
</clipPath>
</defs>
</svg>
