<svg width="25" height="23" viewBox="0 0 25 23" fill="none" xmlns="http://www.w3.org/2000/svg">
<g clip-path="url(#clip0_1934_6529)">
<path d="M16.019 20.0785C16.019 17.5439 12.8426 15.4892 8.9242 15.4892C5.00582 15.4892 1.82935 17.5439 1.82935 20.0785M18.384 14.3418L20.7489 12.0471M20.7489 12.0471L23.1139 9.75245M20.7489 12.0471L18.384 9.75245M20.7489 12.0471L23.1139 14.3418M8.9242 12.0471C6.31194 12.0471 4.1943 9.99236 4.1943 7.45777C4.1943 4.92314 6.31194 2.86841 8.9242 2.86841C11.5364 2.86841 13.6541 4.92314 13.6541 7.45777C13.6541 9.99236 11.5364 12.0471 8.9242 12.0471Z" stroke="#8E8E93" stroke-width="2" stroke-linecap="round" stroke-linejoin="round"/>
</g>
<defs>
<clipPath id="clip0_1934_6529">
<rect width="23.2195" height="22.9468" fill="white" transform="translate(0.861816)"/>
</clipPath>
</defs>
</svg>
