<svg width="24" height="24" viewBox="0 0 24 24" fill="none" xmlns="http://www.w3.org/2000/svg">
<path d="M3 21L3.79 18.12C5.1 13.39 8.55 11 12 11" stroke="#8E8E93" stroke-width="1.75" stroke-linecap="round" stroke-linejoin="round"/>
<path d="M12 10.98C14.7614 10.98 17 8.7414 17 5.97998C17 3.21856 14.7614 0.97998 12 0.97998C9.23858 0.97998 7 3.21856 7 5.97998C7 8.7414 9.23858 10.98 12 10.98Z" stroke="#8E8E93" stroke-width="1.75" stroke-linecap="round" stroke-linejoin="bevel"/>
<path d="M17 23C19.7614 23 22 20.7614 22 18C22 15.2386 19.7614 13 17 13C14.2386 13 12 15.2386 12 18C12 20.7614 14.2386 23 17 23Z" stroke="#8E8E93" stroke-width="1.75" stroke-linecap="round" stroke-linejoin="round"/>
<path d="M17 17.3401V20.5101" stroke="#8E8E93" stroke-width="1.75" stroke-linecap="round" stroke-linejoin="round"/>
<path d="M17 15.6V15.51" stroke="#8E8E93" stroke-width="1.75" stroke-linecap="round" stroke-linejoin="round"/>
</svg>
